<?xml version="1.0" encoding="utf-8" standalone="no"?>
<!DOCTYPE svg PUBLIC "-//W3C//DTD SVG 1.1//EN"
  "http://www.w3.org/Graphics/SVG/1.1/DTD/svg11.dtd">
<!-- Created with matplotlib (https://matplotlib.org/) -->
<svg height="874.675pt" version="1.1" viewBox="0 0 908.43125 874.675" width="908.43125pt" xmlns="http://www.w3.org/2000/svg" xmlns:xlink="http://www.w3.org/1999/xlink">
 <defs>
  <style type="text/css">
*{stroke-linecap:butt;stroke-linejoin:round;}
  </style>
 </defs>
 <g id="figure_1">
  <g id="patch_1">
   <path d="M 0 874.675 
L 908.43125 874.675 
L 908.43125 0 
L 0 0 
z
" style="fill:#ffffff;"/>
  </g>
  <g id="axes_1">
   <g id="patch_2">
    <path d="M 64.23125 822.6 
L 901.23125 822.6 
L 901.23125 7.2 
L 64.23125 7.2 
z
" style="fill:#ffffff;"/>
   </g>
   <g id="matplotlib.axis_1">
    <g id="xtick_1">
     <g id="line2d_1"/>
     <g id="text_1">
      <!-- 0.000 -->
      <defs>
       <path d="M 51.703125 34.421875 
Q 51.703125 24.515625 49.828125 17.75 
Q 47.953125 10.984375 44.703125 6.8125 
Q 41.453125 2.640625 37.0625 0.828125 
Q 32.671875 -0.984375 27.6875 -0.984375 
Q 22.65625 -0.984375 18.3125 0.828125 
Q 13.96875 2.640625 10.765625 6.78125 
Q 7.5625 10.9375 5.734375 17.703125 
Q 3.90625 24.46875 3.90625 34.421875 
Q 3.90625 44.828125 5.734375 51.640625 
Q 7.5625 58.453125 10.78125 62.5 
Q 14.015625 66.546875 18.40625 68.1875 
Q 22.796875 69.828125 27.984375 69.828125 
Q 32.90625 69.828125 37.21875 68.1875 
Q 41.546875 66.546875 44.765625 62.5 
Q 48 58.453125 49.84375 51.640625 
Q 51.703125 44.828125 51.703125 34.421875 
z
M 42.78125 34.421875 
Q 42.78125 42.625 41.796875 48.0625 
Q 40.828125 53.515625 38.921875 56.765625 
Q 37.015625 60.015625 34.25 61.359375 
Q 31.5 62.703125 27.984375 62.703125 
Q 24.265625 62.703125 21.4375 61.328125 
Q 18.609375 59.96875 16.671875 56.71875 
Q 14.75 53.46875 13.765625 48.015625 
Q 12.796875 42.578125 12.796875 34.421875 
Q 12.796875 26.515625 13.796875 21.09375 
Q 14.796875 15.671875 16.71875 12.375 
Q 18.65625 9.078125 21.4375 7.640625 
Q 24.21875 6.203125 27.78125 6.203125 
Q 31.25 6.203125 34.03125 7.640625 
Q 36.8125 9.078125 38.734375 12.375 
Q 40.671875 15.671875 41.71875 21.09375 
Q 42.78125 26.515625 42.78125 34.421875 
z
" id="LiberationSans-48"/>
       <path d="M 9.125 0 
L 9.125 10.6875 
L 18.65625 10.6875 
L 18.65625 0 
z
" id="LiberationSans-46"/>
      </defs>
      <g style="fill:#262626;" transform="translate(39.209375 840.59375)scale(0.2 -0.2)">
       <use xlink:href="#LiberationSans-48"/>
       <use x="55.615234" xlink:href="#LiberationSans-46"/>
       <use x="83.398438" xlink:href="#LiberationSans-48"/>
       <use x="139.013672" xlink:href="#LiberationSans-48"/>
       <use x="194.628906" xlink:href="#LiberationSans-48"/>
      </g>
     </g>
    </g>
    <g id="xtick_2">
     <g id="line2d_2"/>
     <g id="text_2">
      <!-- 0.001 -->
      <defs>
       <path d="M 7.625 0 
L 7.625 7.46875 
L 25.140625 7.46875 
L 25.140625 60.40625 
L 9.625 49.3125 
L 9.625 57.625 
L 25.875 68.796875 
L 33.984375 68.796875 
L 33.984375 7.46875 
L 50.734375 7.46875 
L 50.734375 0 
z
" id="LiberationSans-49"/>
      </defs>
      <g style="fill:#262626;" transform="translate(198.637946 840.59375)scale(0.2 -0.2)">
       <use xlink:href="#LiberationSans-48"/>
       <use x="55.615234" xlink:href="#LiberationSans-46"/>
       <use x="83.398438" xlink:href="#LiberationSans-48"/>
       <use x="139.013672" xlink:href="#LiberationSans-48"/>
       <use x="194.628906" xlink:href="#LiberationSans-49"/>
      </g>
     </g>
    </g>
    <g id="xtick_3">
     <g id="line2d_3"/>
     <g id="text_3">
      <!-- 0.002 -->
      <defs>
       <path d="M 5.03125 0 
L 5.03125 6.203125 
Q 7.515625 11.921875 11.109375 16.28125 
Q 14.703125 20.65625 18.65625 24.1875 
Q 22.609375 27.734375 26.484375 30.765625 
Q 30.375 33.796875 33.5 36.8125 
Q 36.625 39.84375 38.546875 43.15625 
Q 40.484375 46.484375 40.484375 50.6875 
Q 40.484375 53.609375 39.59375 55.828125 
Q 38.71875 58.0625 37.0625 59.5625 
Q 35.40625 61.078125 33.078125 61.828125 
Q 30.765625 62.59375 27.9375 62.59375 
Q 25.296875 62.59375 22.96875 61.859375 
Q 20.65625 61.140625 18.84375 59.671875 
Q 17.046875 58.203125 15.890625 56.03125 
Q 14.75 53.859375 14.40625 50.984375 
L 5.421875 51.8125 
Q 5.859375 55.515625 7.46875 58.78125 
Q 9.078125 62.0625 11.90625 64.53125 
Q 14.75 67 18.71875 68.40625 
Q 22.703125 69.828125 27.9375 69.828125 
Q 33.0625 69.828125 37.0625 68.609375 
Q 41.0625 67.390625 43.8125 64.984375 
Q 46.578125 62.59375 48.046875 59.078125 
Q 49.515625 55.5625 49.515625 50.984375 
Q 49.515625 47.515625 48.265625 44.390625 
Q 47.015625 41.265625 44.9375 38.421875 
Q 42.875 35.59375 40.140625 32.953125 
Q 37.40625 30.328125 34.421875 27.8125 
Q 31.453125 25.296875 28.421875 22.828125 
Q 25.390625 20.359375 22.71875 17.859375 
Q 20.0625 15.375 17.96875 12.8125 
Q 15.875 10.25 14.703125 7.46875 
L 50.59375 7.46875 
L 50.59375 0 
z
" id="LiberationSans-50"/>
      </defs>
      <g style="fill:#262626;" transform="translate(358.066518 840.59375)scale(0.2 -0.2)">
       <use xlink:href="#LiberationSans-48"/>
       <use x="55.615234" xlink:href="#LiberationSans-46"/>
       <use x="83.398438" xlink:href="#LiberationSans-48"/>
       <use x="139.013672" xlink:href="#LiberationSans-48"/>
       <use x="194.628906" xlink:href="#LiberationSans-50"/>
      </g>
     </g>
    </g>
    <g id="xtick_4">
     <g id="line2d_4"/>
     <g id="text_4">
      <!-- 0.003 -->
      <defs>
       <path d="M 51.21875 19 
Q 51.21875 14.265625 49.671875 10.546875 
Q 48.140625 6.84375 45.1875 4.265625 
Q 42.234375 1.703125 37.859375 0.359375 
Q 33.5 -0.984375 27.875 -0.984375 
Q 21.484375 -0.984375 17.109375 0.609375 
Q 12.75 2.203125 9.90625 4.8125 
Q 7.078125 7.421875 5.65625 10.765625 
Q 4.25 14.109375 3.8125 17.671875 
L 12.890625 18.5 
Q 13.28125 15.765625 14.328125 13.515625 
Q 15.375 11.28125 17.1875 9.671875 
Q 19 8.0625 21.625 7.171875 
Q 24.265625 6.296875 27.875 6.296875 
Q 34.515625 6.296875 38.296875 9.5625 
Q 42.09375 12.84375 42.09375 19.28125 
Q 42.09375 23.09375 40.40625 25.40625 
Q 38.71875 27.734375 36.203125 29.03125 
Q 33.6875 30.328125 30.734375 30.765625 
Q 27.78125 31.203125 25.296875 31.203125 
L 20.3125 31.203125 
L 20.3125 38.8125 
L 25.09375 38.8125 
Q 27.59375 38.8125 30.265625 39.328125 
Q 32.953125 39.84375 35.171875 41.1875 
Q 37.40625 42.53125 38.84375 44.828125 
Q 40.28125 47.125 40.28125 50.6875 
Q 40.28125 56.203125 37.03125 59.390625 
Q 33.796875 62.59375 27.390625 62.59375 
Q 21.578125 62.59375 17.984375 59.609375 
Q 14.40625 56.640625 13.8125 51.21875 
L 4.984375 51.90625 
Q 5.515625 56.453125 7.46875 59.8125 
Q 9.421875 63.1875 12.421875 65.40625 
Q 15.4375 67.625 19.28125 68.71875 
Q 23.140625 69.828125 27.484375 69.828125 
Q 33.25 69.828125 37.390625 68.375 
Q 41.546875 66.9375 44.1875 64.46875 
Q 46.828125 62.015625 48.0625 58.6875 
Q 49.3125 55.375 49.3125 51.609375 
Q 49.3125 48.578125 48.484375 45.9375 
Q 47.65625 43.3125 45.890625 41.203125 
Q 44.140625 39.109375 41.421875 37.59375 
Q 38.71875 36.078125 34.90625 35.296875 
L 34.90625 35.109375 
Q 39.0625 34.671875 42.140625 33.21875 
Q 45.21875 31.78125 47.21875 29.625 
Q 49.21875 27.484375 50.21875 24.75 
Q 51.21875 22.015625 51.21875 19 
z
" id="LiberationSans-51"/>
      </defs>
      <g style="fill:#262626;" transform="translate(517.495089 840.59375)scale(0.2 -0.2)">
       <use xlink:href="#LiberationSans-48"/>
       <use x="55.615234" xlink:href="#LiberationSans-46"/>
       <use x="83.398438" xlink:href="#LiberationSans-48"/>
       <use x="139.013672" xlink:href="#LiberationSans-48"/>
       <use x="194.628906" xlink:href="#LiberationSans-51"/>
      </g>
     </g>
    </g>
    <g id="xtick_5">
     <g id="line2d_5"/>
     <g id="text_5">
      <!-- 0.004 -->
      <defs>
       <path d="M 43.015625 15.578125 
L 43.015625 0 
L 34.71875 0 
L 34.71875 15.578125 
L 2.296875 15.578125 
L 2.296875 22.40625 
L 33.796875 68.796875 
L 43.015625 68.796875 
L 43.015625 22.515625 
L 52.6875 22.515625 
L 52.6875 15.578125 
z
M 34.71875 58.890625 
Q 34.625 58.640625 34.234375 57.9375 
Q 33.84375 57.234375 33.34375 56.34375 
Q 32.859375 55.46875 32.34375 54.5625 
Q 31.84375 53.65625 31.453125 53.078125 
L 13.8125 27.09375 
Q 13.578125 26.703125 13.109375 26.0625 
Q 12.640625 25.4375 12.15625 24.78125 
Q 11.671875 24.125 11.171875 23.484375 
Q 10.6875 22.859375 10.40625 22.515625 
L 34.71875 22.515625 
z
" id="LiberationSans-52"/>
      </defs>
      <g style="fill:#262626;" transform="translate(676.923661 840.59375)scale(0.2 -0.2)">
       <use xlink:href="#LiberationSans-48"/>
       <use x="55.615234" xlink:href="#LiberationSans-46"/>
       <use x="83.398438" xlink:href="#LiberationSans-48"/>
       <use x="139.013672" xlink:href="#LiberationSans-48"/>
       <use x="194.628906" xlink:href="#LiberationSans-52"/>
      </g>
     </g>
    </g>
    <g id="xtick_6">
     <g id="line2d_6"/>
     <g id="text_6">
      <!-- 0.005 -->
      <defs>
       <path d="M 51.421875 22.40625 
Q 51.421875 17.234375 49.859375 12.9375 
Q 48.296875 8.640625 45.21875 5.53125 
Q 42.140625 2.4375 37.578125 0.71875 
Q 33.015625 -0.984375 27 -0.984375 
Q 21.578125 -0.984375 17.546875 0.28125 
Q 13.53125 1.5625 10.734375 3.78125 
Q 7.953125 6 6.3125 8.984375 
Q 4.6875 11.96875 4 15.375 
L 12.890625 16.40625 
Q 13.421875 14.453125 14.390625 12.625 
Q 15.375 10.796875 17.0625 9.34375 
Q 18.75 7.90625 21.21875 7.046875 
Q 23.6875 6.203125 27.203125 6.203125 
Q 30.609375 6.203125 33.390625 7.25 
Q 36.1875 8.296875 38.15625 10.34375 
Q 40.140625 12.40625 41.203125 15.375 
Q 42.28125 18.359375 42.28125 22.21875 
Q 42.28125 25.390625 41.25 28.046875 
Q 40.234375 30.71875 38.328125 32.640625 
Q 36.421875 34.578125 33.65625 35.640625 
Q 30.90625 36.71875 27.390625 36.71875 
Q 25.203125 36.71875 23.34375 36.328125 
Q 21.484375 35.9375 19.890625 35.25 
Q 18.3125 34.578125 17.015625 33.671875 
Q 15.71875 32.765625 14.59375 31.78125 
L 6 31.78125 
L 8.296875 68.796875 
L 47.40625 68.796875 
L 47.40625 61.328125 
L 16.3125 61.328125 
L 14.984375 39.5 
Q 17.328125 41.3125 20.84375 42.59375 
Q 24.359375 43.890625 29.203125 43.890625 
Q 34.328125 43.890625 38.421875 42.328125 
Q 42.53125 40.765625 45.40625 37.90625 
Q 48.296875 35.0625 49.859375 31.109375 
Q 51.421875 27.15625 51.421875 22.40625 
z
" id="LiberationSans-53"/>
      </defs>
      <g style="fill:#262626;" transform="translate(836.352232 840.59375)scale(0.2 -0.2)">
       <use xlink:href="#LiberationSans-48"/>
       <use x="55.615234" xlink:href="#LiberationSans-46"/>
       <use x="83.398438" xlink:href="#LiberationSans-48"/>
       <use x="139.013672" xlink:href="#LiberationSans-48"/>
       <use x="194.628906" xlink:href="#LiberationSans-53"/>
      </g>
     </g>
    </g>
    <g id="text_7">
     <!-- caffeine dose [gram / kilogram] -->
     <defs>
      <path d="M 29 -0.984375 
Q 22.703125 -0.984375 17.984375 0.96875 
Q 13.28125 2.9375 10.15625 6.5 
Q 7.03125 10.0625 5.46875 15.0625 
Q 3.90625 20.0625 3.90625 26.125 
Q 3.90625 32.71875 5.609375 37.859375 
Q 7.328125 43.015625 10.546875 46.546875 
Q 13.765625 50.09375 18.46875 51.953125 
Q 23.1875 53.8125 29.203125 53.8125 
Q 34.328125 53.8125 38.296875 52.4375 
Q 42.28125 51.078125 45.15625 48.703125 
Q 48.046875 46.34375 49.828125 43.109375 
Q 51.609375 39.890625 52.296875 36.1875 
L 38.484375 35.5 
Q 37.890625 39.546875 35.546875 41.96875 
Q 33.203125 44.390625 28.90625 44.390625 
Q 23.390625 44.390625 20.84375 39.84375 
Q 18.3125 35.296875 18.3125 26.65625 
Q 18.3125 8.40625 29.109375 8.40625 
Q 33.015625 8.40625 35.640625 10.859375 
Q 38.28125 13.328125 38.921875 18.21875 
L 52.6875 17.578125 
Q 52.203125 13.921875 50.46875 10.578125 
Q 48.734375 7.234375 45.78125 4.65625 
Q 42.828125 2.09375 38.625 0.546875 
Q 34.421875 -0.984375 29 -0.984375 
z
" id="LiberationSans-Bold-99"/>
      <path d="M 19.1875 -0.984375 
Q 15.375 -0.984375 12.375 0.0625 
Q 9.375 1.125 7.265625 3.140625 
Q 5.171875 5.171875 4.046875 8.15625 
Q 2.9375 11.140625 2.9375 14.9375 
Q 2.9375 19.625 4.5625 22.828125 
Q 6.203125 26.03125 9.03125 28 
Q 11.859375 29.984375 15.671875 30.875 
Q 19.484375 31.78125 23.78125 31.84375 
L 35.15625 32.03125 
L 35.15625 34.71875 
Q 35.15625 37.59375 34.640625 39.515625 
Q 34.125 41.453125 33.140625 42.671875 
Q 32.171875 43.890625 30.734375 44.40625 
Q 29.296875 44.921875 27.4375 44.921875 
Q 25.734375 44.921875 24.390625 44.578125 
Q 23.046875 44.234375 22.0625 43.375 
Q 21.09375 42.53125 20.484375 41.09375 
Q 19.875 39.65625 19.625 37.453125 
L 5.328125 38.140625 
Q 5.90625 41.609375 7.46875 44.453125 
Q 9.03125 47.3125 11.78125 49.40625 
Q 14.546875 51.515625 18.578125 52.65625 
Q 22.609375 53.8125 28.03125 53.8125 
Q 32.953125 53.8125 36.8125 52.59375 
Q 40.671875 51.375 43.359375 48.953125 
Q 46.046875 46.53125 47.453125 43.015625 
Q 48.875 39.5 48.875 34.859375 
L 48.875 15.625 
Q 48.875 13.765625 49.046875 12.296875 
Q 49.21875 10.84375 49.671875 9.84375 
Q 50.140625 8.84375 51 8.328125 
Q 51.859375 7.8125 53.21875 7.8125 
Q 54.78125 7.8125 56.25 8.109375 
L 56.25 0.6875 
Q 55.03125 0.390625 54.046875 0.140625 
Q 53.078125 -0.09375 52.09375 -0.234375 
Q 51.125 -0.390625 50.015625 -0.484375 
Q 48.921875 -0.59375 47.46875 -0.59375 
Q 42.28125 -0.59375 39.8125 1.953125 
Q 37.359375 4.5 36.859375 9.421875 
L 36.578125 9.421875 
Q 33.84375 4.5 29.5625 1.75 
Q 25.296875 -0.984375 19.1875 -0.984375 
z
M 35.15625 24.46875 
L 28.125 24.359375 
Q 25.921875 24.265625 23.9375 24 
Q 21.96875 23.734375 20.484375 22.875 
Q 19 22.015625 18.109375 20.40625 
Q 17.234375 18.796875 17.234375 16.015625 
Q 17.234375 12.25 18.96875 10.421875 
Q 20.703125 8.59375 23.578125 8.59375 
Q 26.21875 8.59375 28.359375 9.71875 
Q 30.515625 10.84375 32 12.671875 
Q 33.5 14.5 34.328125 16.890625 
Q 35.15625 19.28125 35.15625 21.78125 
z
" id="LiberationSans-Bold-97"/>
      <path d="M 23.09375 43.5625 
L 23.09375 0 
L 9.421875 0 
L 9.421875 43.5625 
L 1.703125 43.5625 
L 1.703125 52.828125 
L 9.421875 52.828125 
L 9.421875 58.34375 
Q 9.421875 61.375 10.15625 63.9375 
Q 10.890625 66.5 12.640625 68.40625 
Q 14.40625 70.3125 17.375 71.390625 
Q 20.359375 72.46875 24.8125 72.46875 
Q 27.15625 72.46875 29.421875 72.21875 
Q 31.6875 71.96875 33.5 71.6875 
L 33.5 62.84375 
Q 32.625 63.03125 31.515625 63.15625 
Q 30.421875 63.28125 29.5 63.28125 
Q 27.59375 63.28125 26.34375 62.890625 
Q 25.09375 62.5 24.390625 61.71875 
Q 23.6875 60.9375 23.390625 59.734375 
Q 23.09375 58.546875 23.09375 56.984375 
L 23.09375 52.828125 
L 33.5 52.828125 
L 33.5 43.5625 
z
" id="LiberationSans-Bold-102"/>
      <path d="M 28.609375 -0.984375 
Q 22.90625 -0.984375 18.328125 0.703125 
Q 13.765625 2.390625 10.546875 5.828125 
Q 7.328125 9.28125 5.609375 14.46875 
Q 3.90625 19.671875 3.90625 26.65625 
Q 3.90625 34.234375 5.921875 39.40625 
Q 7.953125 44.578125 11.390625 47.78125 
Q 14.84375 50.984375 19.328125 52.390625 
Q 23.828125 53.8125 28.8125 53.8125 
Q 35.0625 53.8125 39.46875 51.640625 
Q 43.890625 49.46875 46.71875 45.5625 
Q 49.5625 41.65625 50.875 36.203125 
Q 52.203125 30.765625 52.203125 24.171875 
L 52.203125 23.78125 
L 18.3125 23.78125 
Q 18.3125 20.453125 18.890625 17.59375 
Q 19.484375 14.75 20.796875 12.671875 
Q 22.125 10.59375 24.21875 9.390625 
Q 26.3125 8.203125 29.296875 8.203125 
Q 32.90625 8.203125 35.203125 9.734375 
Q 37.5 11.28125 38.484375 14.5 
L 51.421875 13.375 
Q 50.53125 11.140625 48.9375 8.59375 
Q 47.359375 6.0625 44.71875 3.9375 
Q 42.09375 1.8125 38.15625 0.40625 
Q 34.234375 -0.984375 28.609375 -0.984375 
z
M 28.609375 45.171875 
Q 26.515625 45.171875 24.6875 44.453125 
Q 22.859375 43.75 21.515625 42.203125 
Q 20.171875 40.671875 19.328125 38.234375 
Q 18.5 35.796875 18.40625 32.375 
L 38.921875 32.375 
Q 38.53125 38.765625 35.84375 41.96875 
Q 33.15625 45.171875 28.609375 45.171875 
z
" id="LiberationSans-Bold-101"/>
      <path d="M 6.984375 62.359375 
L 6.984375 72.46875 
L 20.703125 72.46875 
L 20.703125 62.359375 
z
M 6.984375 0 
L 6.984375 52.828125 
L 20.703125 52.828125 
L 20.703125 0 
z
" id="LiberationSans-Bold-105"/>
      <path d="M 41.21875 0 
L 41.21875 29.640625 
Q 41.21875 32.71875 40.71875 35.28125 
Q 40.234375 37.84375 39.109375 39.671875 
Q 37.984375 41.5 36.171875 42.53125 
Q 34.375 43.5625 31.78125 43.5625 
Q 29.296875 43.5625 27.265625 42.453125 
Q 25.25 41.359375 23.78125 39.328125 
Q 22.3125 37.3125 21.5 34.5 
Q 20.703125 31.6875 20.703125 28.328125 
L 20.703125 0 
L 6.984375 0 
L 6.984375 41.015625 
Q 6.984375 42.71875 6.953125 44.53125 
Q 6.9375 46.34375 6.859375 47.96875 
Q 6.78125 49.609375 6.734375 50.90625 
Q 6.6875 52.203125 6.59375 52.828125 
L 19.671875 52.828125 
Q 19.78125 52.25 19.875 50.953125 
Q 19.96875 49.65625 20.0625 48.09375 
Q 20.171875 46.53125 20.234375 44.96875 
Q 20.3125 43.40625 20.3125 42.328125 
L 20.515625 42.328125 
Q 23.296875 48.390625 27.484375 51.125 
Q 31.6875 53.859375 37.5 53.859375 
Q 42.28125 53.859375 45.578125 52.296875 
Q 48.875 50.734375 50.953125 48 
Q 53.03125 45.265625 53.953125 41.546875 
Q 54.890625 37.84375 54.890625 33.546875 
L 54.890625 0 
z
" id="LiberationSans-Bold-110"/>
      <path id="LiberationSans-Bold-32"/>
      <path d="M 41.21875 0 
Q 41.109375 0.390625 40.984375 1.390625 
Q 40.875 2.390625 40.75 3.65625 
Q 40.625 4.9375 40.546875 6.25 
Q 40.484375 7.5625 40.484375 8.59375 
L 40.28125 8.59375 
Q 37.890625 3.46875 33.609375 1.234375 
Q 29.34375 -0.984375 23.390625 -0.984375 
Q 18.40625 -0.984375 14.765625 1.0625 
Q 11.140625 3.125 8.765625 6.78125 
Q 6.390625 10.453125 5.25 15.453125 
Q 4.109375 20.453125 4.109375 26.375 
Q 4.109375 32.375 5.296875 37.40625 
Q 6.5 42.4375 8.984375 46.0625 
Q 11.46875 49.703125 15.296875 51.75 
Q 19.140625 53.8125 24.421875 53.8125 
Q 27 53.8125 29.390625 53.265625 
Q 31.78125 52.734375 33.828125 51.609375 
Q 35.890625 50.484375 37.546875 48.71875 
Q 39.203125 46.96875 40.375 44.484375 
L 40.484375 44.484375 
Q 40.484375 44.96875 40.453125 45.921875 
Q 40.4375 46.875 40.4375 48.09375 
Q 40.4375 49.3125 40.40625 50.625 
Q 40.375 51.953125 40.375 53.171875 
L 40.375 72.46875 
L 54.109375 72.46875 
L 54.109375 11.53125 
Q 54.109375 7.671875 54.25 4.65625 
Q 54.390625 1.65625 54.5 0 
z
M 40.578125 26.703125 
Q 40.578125 31.9375 39.59375 35.375 
Q 38.625 38.8125 37.03125 40.84375 
Q 35.453125 42.875 33.421875 43.671875 
Q 31.390625 44.484375 29.296875 44.484375 
Q 26.65625 44.484375 24.625 43.453125 
Q 22.609375 42.4375 21.21875 40.234375 
Q 19.828125 38.03125 19.109375 34.609375 
Q 18.40625 31.203125 18.40625 26.375 
Q 18.40625 8.40625 29.203125 8.40625 
Q 31.25 8.40625 33.296875 9.28125 
Q 35.359375 10.15625 36.96875 12.25 
Q 38.578125 14.359375 39.578125 17.890625 
Q 40.578125 21.4375 40.578125 26.703125 
z
" id="LiberationSans-Bold-100"/>
      <path d="M 57.171875 26.46875 
Q 57.171875 20.40625 55.484375 15.375 
Q 53.8125 10.359375 50.4375 6.71875 
Q 47.078125 3.078125 42.046875 1.046875 
Q 37.015625 -0.984375 30.328125 -0.984375 
Q 23.875 -0.984375 18.9375 1.015625 
Q 14.015625 3.03125 10.671875 6.640625 
Q 7.328125 10.25 5.609375 15.296875 
Q 3.90625 20.359375 3.90625 26.46875 
Q 3.90625 32.375 5.53125 37.375 
Q 7.171875 42.390625 10.484375 46.046875 
Q 13.8125 49.703125 18.84375 51.75 
Q 23.875 53.8125 30.609375 53.8125 
Q 37.75 53.8125 42.765625 51.75 
Q 47.796875 49.703125 51 46.0625 
Q 54.203125 42.4375 55.6875 37.421875 
Q 57.171875 32.421875 57.171875 26.46875 
z
M 42.828125 26.46875 
Q 42.828125 35.890625 39.75 40.140625 
Q 36.671875 44.390625 30.8125 44.390625 
Q 24.75 44.390625 21.53125 40.09375 
Q 18.3125 35.796875 18.3125 26.46875 
Q 18.3125 21.734375 19.15625 18.3125 
Q 20.015625 14.890625 21.578125 12.6875 
Q 23.140625 10.5 25.34375 9.453125 
Q 27.546875 8.40625 30.171875 8.40625 
Q 33.203125 8.40625 35.5625 9.453125 
Q 37.9375 10.5 39.546875 12.6875 
Q 41.15625 14.890625 41.984375 18.3125 
Q 42.828125 21.734375 42.828125 26.46875 
z
" id="LiberationSans-Bold-111"/>
      <path d="M 51.515625 15.4375 
Q 51.515625 11.625 49.921875 8.59375 
Q 48.34375 5.5625 45.3125 3.4375 
Q 42.28125 1.3125 37.890625 0.15625 
Q 33.5 -0.984375 27.875 -0.984375 
Q 22.859375 -0.984375 18.796875 -0.25 
Q 14.75 0.484375 11.6875 2.171875 
Q 8.640625 3.859375 6.59375 6.546875 
Q 4.546875 9.234375 3.515625 13.1875 
L 15.578125 14.984375 
Q 16.15625 12.796875 17.1875 11.421875 
Q 18.21875 10.0625 19.71875 9.328125 
Q 21.234375 8.59375 23.265625 8.34375 
Q 25.296875 8.109375 27.875 8.109375 
Q 30.21875 8.109375 32.25 8.375 
Q 34.28125 8.640625 35.765625 9.296875 
Q 37.25 9.96875 38.078125 11.15625 
Q 38.921875 12.359375 38.921875 14.15625 
Q 38.921875 16.21875 37.71875 17.40625 
Q 36.53125 18.609375 34.453125 19.359375 
Q 32.375 20.125 29.5625 20.671875 
Q 26.765625 21.234375 23.578125 21.96875 
Q 20.265625 22.703125 17.03125 23.71875 
Q 13.8125 24.75 11.265625 26.5 
Q 8.734375 28.265625 7.171875 30.96875 
Q 5.609375 33.6875 5.609375 37.84375 
Q 5.609375 41.609375 7.078125 44.5625 
Q 8.546875 47.515625 11.375 49.578125 
Q 14.203125 51.65625 18.375 52.75 
Q 22.5625 53.859375 27.984375 53.859375 
Q 32.28125 53.859375 35.984375 53.046875 
Q 39.703125 52.25 42.625 50.515625 
Q 45.5625 48.78125 47.53125 46.09375 
Q 49.515625 43.40625 50.296875 39.59375 
L 38.140625 38.328125 
Q 37.796875 40.234375 36.90625 41.46875 
Q 36.03125 42.71875 34.734375 43.453125 
Q 33.453125 44.1875 31.734375 44.453125 
Q 30.03125 44.734375 27.984375 44.734375 
Q 23.09375 44.734375 20.65625 43.484375 
Q 18.21875 42.234375 18.21875 39.3125 
Q 18.21875 37.5 19.21875 36.421875 
Q 20.21875 35.359375 22.046875 34.640625 
Q 23.875 33.9375 26.390625 33.421875 
Q 28.90625 32.90625 31.890625 32.171875 
Q 35.546875 31.390625 39.078125 30.34375 
Q 42.625 29.296875 45.375 27.46875 
Q 48.140625 25.640625 49.828125 22.75 
Q 51.515625 19.875 51.515625 15.4375 
z
" id="LiberationSans-Bold-115"/>
      <path d="M 5.609375 -20.75 
L 5.609375 72.46875 
L 32.078125 72.46875 
L 32.078125 63.1875 
L 18.609375 63.1875 
L 18.609375 -11.421875 
L 32.078125 -11.421875 
L 32.078125 -20.75 
z
" id="LiberationSans-Bold-91"/>
      <path d="M 29.109375 -21.1875 
Q 23.875 -21.1875 19.890625 -20.140625 
Q 15.921875 -19.09375 13.109375 -17.203125 
Q 10.296875 -15.328125 8.609375 -12.71875 
Q 6.9375 -10.109375 6.296875 -6.984375 
L 20.015625 -5.375 
Q 20.75 -8.546875 23.171875 -10.34375 
Q 25.59375 -12.15625 29.5 -12.15625 
Q 31.9375 -12.15625 33.953125 -11.46875 
Q 35.984375 -10.796875 37.421875 -9.15625 
Q 38.875 -7.515625 39.671875 -4.828125 
Q 40.484375 -2.15625 40.484375 1.8125 
Q 40.484375 3.171875 40.484375 4.578125 
Q 40.484375 6 40.53125 7.171875 
Q 40.578125 8.546875 40.578125 9.8125 
L 40.484375 9.8125 
Q 38.09375 4.6875 33.765625 2.390625 
Q 29.4375 0.09375 23.484375 0.09375 
Q 18.453125 0.09375 14.8125 2.0625 
Q 11.1875 4.046875 8.78125 7.59375 
Q 6.390625 11.140625 5.25 16.046875 
Q 4.109375 20.953125 4.109375 26.859375 
Q 4.109375 32.953125 5.328125 37.90625 
Q 6.546875 42.875 9.0625 46.4375 
Q 11.578125 50 15.40625 51.921875 
Q 19.234375 53.859375 24.515625 53.859375 
Q 29.78125 53.859375 33.953125 51.609375 
Q 38.140625 49.359375 40.484375 44.34375 
L 40.71875 44.34375 
Q 40.71875 45.359375 40.796875 46.703125 
Q 40.875 48.046875 40.96875 49.28125 
Q 41.0625 50.53125 41.1875 51.5 
Q 41.3125 52.484375 41.40625 52.828125 
L 54.390625 52.828125 
Q 54.296875 51.078125 54.203125 47.90625 
Q 54.109375 44.734375 54.109375 40.625 
L 54.109375 1.609375 
Q 54.109375 -4.15625 52.4375 -8.421875 
Q 50.78125 -12.703125 47.578125 -15.53125 
Q 44.390625 -18.359375 39.71875 -19.765625 
Q 35.0625 -21.1875 29.109375 -21.1875 
z
M 40.578125 27.15625 
Q 40.578125 32.125 39.59375 35.4375 
Q 38.625 38.765625 37.0625 40.765625 
Q 35.5 42.78125 33.46875 43.609375 
Q 31.453125 44.4375 29.390625 44.4375 
Q 26.765625 44.4375 24.734375 43.40625 
Q 22.703125 42.390625 21.28125 40.234375 
Q 19.875 38.09375 19.140625 34.765625 
Q 18.40625 31.453125 18.40625 26.859375 
Q 18.40625 18.3125 21.140625 13.96875 
Q 23.875 9.625 29.296875 9.625 
Q 31.34375 9.625 33.375 10.421875 
Q 35.40625 11.234375 37.015625 13.25 
Q 38.625 15.28125 39.59375 18.640625 
Q 40.578125 22.015625 40.578125 27.15625 
z
" id="LiberationSans-Bold-103"/>
      <path d="M 6.984375 0 
L 6.984375 40.4375 
Q 6.984375 42.140625 6.953125 44.046875 
Q 6.9375 45.953125 6.859375 47.6875 
Q 6.78125 49.421875 6.734375 50.8125 
Q 6.6875 52.203125 6.59375 52.828125 
L 19.671875 52.828125 
Q 19.78125 52.25 19.875 50.796875 
Q 19.96875 49.359375 20.0625 47.65625 
Q 20.171875 45.953125 20.234375 44.265625 
Q 20.3125 42.578125 20.3125 41.546875 
L 20.515625 41.546875 
Q 21.53125 44.4375 22.546875 46.703125 
Q 23.578125 48.96875 24.96875 50.5625 
Q 26.375 52.15625 28.328125 53 
Q 30.28125 53.859375 33.15625 53.859375 
Q 34.375 53.859375 35.5625 53.640625 
Q 36.765625 53.421875 37.40625 53.125 
L 37.40625 41.65625 
Q 36.078125 41.9375 34.734375 42.15625 
Q 33.40625 42.390625 31.546875 42.390625 
Q 26.421875 42.390625 23.5625 38.234375 
Q 20.703125 34.078125 20.703125 25.921875 
L 20.703125 0 
z
" id="LiberationSans-Bold-114"/>
      <path d="M 38.09375 0 
L 38.09375 29.640625 
Q 38.09375 32.71875 37.671875 35.28125 
Q 37.25 37.84375 36.296875 39.671875 
Q 35.359375 41.5 33.8125 42.53125 
Q 32.28125 43.5625 30.078125 43.5625 
Q 27.984375 43.5625 26.265625 42.453125 
Q 24.5625 41.359375 23.3125 39.328125 
Q 22.078125 37.3125 21.390625 34.5 
Q 20.703125 31.6875 20.703125 28.328125 
L 20.703125 0 
L 6.984375 0 
L 6.984375 41.015625 
Q 6.984375 42.71875 6.953125 44.53125 
Q 6.9375 46.34375 6.859375 47.96875 
Q 6.78125 49.609375 6.734375 50.90625 
Q 6.6875 52.203125 6.59375 52.828125 
L 19.671875 52.828125 
Q 19.78125 52.25 19.875 50.953125 
Q 19.96875 49.65625 20.0625 48.09375 
Q 20.171875 46.53125 20.234375 44.96875 
Q 20.3125 43.40625 20.3125 42.328125 
L 20.515625 42.328125 
Q 23.046875 48.390625 26.828125 51.125 
Q 30.609375 53.859375 35.890625 53.859375 
Q 41.9375 53.859375 45.625 50.90625 
Q 49.3125 47.953125 50.59375 42.328125 
L 50.875 42.328125 
Q 52.296875 45.609375 53.921875 47.796875 
Q 55.5625 50 57.53125 51.34375 
Q 59.515625 52.6875 61.828125 53.265625 
Q 64.15625 53.859375 66.890625 53.859375 
Q 71.234375 53.859375 74.234375 52.296875 
Q 77.25 50.734375 79.125 48 
Q 81 45.265625 81.859375 41.546875 
Q 82.71875 37.84375 82.71875 33.546875 
L 82.71875 0 
L 69.09375 0 
L 69.09375 29.640625 
Q 69.09375 32.71875 68.671875 35.28125 
Q 68.265625 37.84375 67.3125 39.671875 
Q 66.359375 41.5 64.8125 42.53125 
Q 63.28125 43.5625 61.078125 43.5625 
Q 59.03125 43.5625 57.34375 42.5 
Q 55.671875 41.453125 54.421875 39.515625 
Q 53.171875 37.59375 52.484375 34.90625 
Q 51.8125 32.234375 51.703125 28.953125 
L 51.703125 0 
z
" id="LiberationSans-Bold-109"/>
      <path d="M 0.984375 -2 
L 15.1875 72.46875 
L 26.8125 72.46875 
L 12.84375 -2 
z
" id="LiberationSans-Bold-47"/>
      <path d="M 40.71875 0 
L 26.609375 23.921875 
L 20.703125 19.828125 
L 20.703125 0 
L 6.984375 0 
L 6.984375 72.46875 
L 20.703125 72.46875 
L 20.703125 30.953125 
L 39.546875 52.828125 
L 54.296875 52.828125 
L 35.75 32.234375 
L 55.71875 0 
z
" id="LiberationSans-Bold-107"/>
      <path d="M 6.984375 0 
L 6.984375 72.46875 
L 20.703125 72.46875 
L 20.703125 0 
z
" id="LiberationSans-Bold-108"/>
      <path d="M 1.21875 -20.75 
L 1.21875 -11.421875 
L 14.796875 -11.421875 
L 14.796875 63.1875 
L 1.21875 63.1875 
L 1.21875 72.46875 
L 27.6875 72.46875 
L 27.6875 -20.75 
z
" id="LiberationSans-Bold-93"/>
     </defs>
     <g style="fill:#262626;" transform="translate(334.923437 863.2375)scale(0.2 -0.2)">
      <use xlink:href="#LiberationSans-Bold-99"/>
      <use x="55.615234" xlink:href="#LiberationSans-Bold-97"/>
      <use x="111.230469" xlink:href="#LiberationSans-Bold-102"/>
      <use x="144.53125" xlink:href="#LiberationSans-Bold-102"/>
      <use x="177.832031" xlink:href="#LiberationSans-Bold-101"/>
      <use x="233.447266" xlink:href="#LiberationSans-Bold-105"/>
      <use x="261.230469" xlink:href="#LiberationSans-Bold-110"/>
      <use x="322.314453" xlink:href="#LiberationSans-Bold-101"/>
      <use x="377.929688" xlink:href="#LiberationSans-Bold-32"/>
      <use x="405.712891" xlink:href="#LiberationSans-Bold-100"/>
      <use x="466.796875" xlink:href="#LiberationSans-Bold-111"/>
      <use x="527.880859" xlink:href="#LiberationSans-Bold-115"/>
      <use x="583.496094" xlink:href="#LiberationSans-Bold-101"/>
      <use x="639.111328" xlink:href="#LiberationSans-Bold-32"/>
      <use x="666.894531" xlink:href="#LiberationSans-Bold-91"/>
      <use x="700.195312" xlink:href="#LiberationSans-Bold-103"/>
      <use x="761.279297" xlink:href="#LiberationSans-Bold-114"/>
      <use x="800.195312" xlink:href="#LiberationSans-Bold-97"/>
      <use x="855.810547" xlink:href="#LiberationSans-Bold-109"/>
      <use x="944.726562" xlink:href="#LiberationSans-Bold-32"/>
      <use x="972.509766" xlink:href="#LiberationSans-Bold-47"/>
      <use x="1000.292969" xlink:href="#LiberationSans-Bold-32"/>
      <use x="1028.076172" xlink:href="#LiberationSans-Bold-107"/>
      <use x="1083.691406" xlink:href="#LiberationSans-Bold-105"/>
      <use x="1111.474609" xlink:href="#LiberationSans-Bold-108"/>
      <use x="1139.257812" xlink:href="#LiberationSans-Bold-111"/>
      <use x="1200.341797" xlink:href="#LiberationSans-Bold-103"/>
      <use x="1261.425781" xlink:href="#LiberationSans-Bold-114"/>
      <use x="1300.341797" xlink:href="#LiberationSans-Bold-97"/>
      <use x="1355.957031" xlink:href="#LiberationSans-Bold-109"/>
      <use x="1444.873047" xlink:href="#LiberationSans-Bold-93"/>
     </g>
    </g>
   </g>
   <g id="matplotlib.axis_2">
    <g id="ytick_1">
     <g id="line2d_7"/>
     <g id="text_8">
      <!-- $\mathdefault{10^{0}}$ -->
      <g style="fill:#262626;" transform="translate(29.93125 792.783239)scale(0.2 -0.2)">
       <use transform="translate(0 0.140625)" xlink:href="#LiberationSans-49"/>
       <use transform="translate(55.615234 0.140625)" xlink:href="#LiberationSans-48"/>
       <use transform="translate(112.154961 37.120312)scale(0.7)" xlink:href="#LiberationSans-48"/>
      </g>
     </g>
    </g>
    <g id="ytick_2">
     <g id="line2d_8"/>
     <g id="text_9">
      <!-- $\mathdefault{10^{1}}$ -->
      <g style="fill:#262626;" transform="translate(29.93125 51.510511)scale(0.2 -0.2)">
       <use transform="translate(0 0.8625)" xlink:href="#LiberationSans-49"/>
       <use transform="translate(55.615234 0.8625)" xlink:href="#LiberationSans-48"/>
       <use transform="translate(112.154961 37.842188)scale(0.7)" xlink:href="#LiberationSans-49"/>
      </g>
     </g>
    </g>
    <g id="ytick_3">
     <g id="line2d_9"/>
    </g>
    <g id="ytick_4">
     <g id="line2d_10"/>
    </g>
    <g id="ytick_5">
     <g id="line2d_11"/>
    </g>
    <g id="ytick_6">
     <g id="line2d_12"/>
    </g>
    <g id="ytick_7">
     <g id="line2d_13"/>
    </g>
    <g id="ytick_8">
     <g id="line2d_14"/>
    </g>
    <g id="ytick_9">
     <g id="line2d_15"/>
    </g>
    <g id="ytick_10">
     <g id="line2d_16"/>
    </g>
    <g id="ytick_11">
     <g id="line2d_17"/>
    </g>
    <g id="text_10">
     <!-- caffeine auc_inf [gram * hour / liter] -->
     <defs>
      <path d="M 19.921875 52.828125 
L 19.921875 23.1875 
Q 19.921875 20.125 20.40625 17.546875 
Q 20.90625 14.984375 22.015625 13.15625 
Q 23.140625 11.328125 24.921875 10.296875 
Q 26.703125 9.28125 29.296875 9.28125 
Q 31.78125 9.28125 33.8125 10.375 
Q 35.84375 11.46875 37.296875 13.5 
Q 38.765625 15.53125 39.5625 18.328125 
Q 40.375 21.140625 40.375 24.515625 
L 40.375 52.828125 
L 54.109375 52.828125 
L 54.109375 11.8125 
Q 54.109375 10.15625 54.125 8.328125 
Q 54.15625 6.5 54.21875 4.859375 
Q 54.296875 3.21875 54.359375 1.921875 
Q 54.4375 0.640625 54.5 0 
L 41.40625 0 
Q 41.359375 0.59375 41.234375 1.875 
Q 41.109375 3.171875 41.03125 4.734375 
Q 40.96875 6.296875 40.890625 7.859375 
Q 40.828125 9.421875 40.828125 10.5 
L 40.578125 10.5 
Q 37.84375 4.5 33.609375 1.75 
Q 29.390625 -0.984375 23.578125 -0.984375 
Q 18.84375 -0.984375 15.515625 0.578125 
Q 12.203125 2.15625 10.125 4.859375 
Q 8.0625 7.5625 7.125 11.265625 
Q 6.203125 14.984375 6.203125 19.28125 
L 6.203125 52.828125 
z
" id="LiberationSans-Bold-117"/>
      <path d="M -0.984375 -12.203125 
L -0.984375 -8.40625 
L 56.5 -8.40625 
L 56.5 -12.203125 
z
" id="LiberationSans-Bold-95"/>
      <path d="M 24.03125 55.421875 
L 35.5 60.5 
L 38.8125 50.875 
L 26.609375 47.90625 
L 35.6875 37.5 
L 26.703125 31.59375 
L 19.578125 43.890625 
L 12.3125 31.59375 
L 3.21875 37.59375 
L 12.5 47.90625 
L 0.296875 50.875 
L 3.609375 60.5 
L 15.28125 55.421875 
L 14.40625 68.796875 
L 24.90625 68.796875 
z
" id="LiberationSans-Bold-42"/>
      <path d="M 20.515625 42.28125 
Q 23.296875 48.34375 27.484375 51.078125 
Q 31.6875 53.8125 37.5 53.8125 
Q 42.28125 53.8125 45.578125 52.25 
Q 48.875 50.6875 50.953125 47.953125 
Q 53.03125 45.21875 53.953125 41.5 
Q 54.890625 37.796875 54.890625 33.5 
L 54.890625 0 
L 41.21875 0 
L 41.21875 29.59375 
Q 41.21875 32.671875 40.71875 35.234375 
Q 40.234375 37.796875 39.109375 39.625 
Q 37.984375 41.453125 36.171875 42.46875 
Q 34.375 43.5 31.78125 43.5 
Q 29.296875 43.5 27.265625 42.40625 
Q 25.25 41.3125 23.78125 39.28125 
Q 22.3125 37.25 21.5 34.4375 
Q 20.703125 31.640625 20.703125 28.265625 
L 20.703125 0 
L 6.984375 0 
L 6.984375 72.46875 
L 20.703125 72.46875 
L 20.703125 52.6875 
Q 20.703125 51.125 20.65625 49.53125 
Q 20.609375 47.953125 20.53125 46.5625 
Q 20.453125 45.171875 20.40625 44.046875 
Q 20.359375 42.921875 20.3125 42.28125 
z
" id="LiberationSans-Bold-104"/>
      <path d="M 20.515625 -0.875 
Q 14.453125 -0.875 11.171875 2.421875 
Q 7.90625 5.71875 7.90625 12.40625 
L 7.90625 43.5625 
L 1.21875 43.5625 
L 1.21875 52.828125 
L 8.59375 52.828125 
L 12.890625 65.234375 
L 21.484375 65.234375 
L 21.484375 52.828125 
L 31.5 52.828125 
L 31.5 43.5625 
L 21.484375 43.5625 
L 21.484375 16.109375 
Q 21.484375 12.25 22.953125 10.421875 
Q 24.421875 8.59375 27.484375 8.59375 
Q 28.765625 8.59375 29.78125 8.78125 
Q 30.8125 8.984375 32.078125 9.28125 
L 32.078125 0.78125 
Q 29.546875 -0.046875 26.703125 -0.453125 
Q 23.875 -0.875 20.515625 -0.875 
z
" id="LiberationSans-Bold-116"/>
     </defs>
     <g style="fill:#262626;" transform="translate(21.69375 582.701563)rotate(-90)scale(0.2 -0.2)">
      <use xlink:href="#LiberationSans-Bold-99"/>
      <use x="55.615234" xlink:href="#LiberationSans-Bold-97"/>
      <use x="111.230469" xlink:href="#LiberationSans-Bold-102"/>
      <use x="144.53125" xlink:href="#LiberationSans-Bold-102"/>
      <use x="177.832031" xlink:href="#LiberationSans-Bold-101"/>
      <use x="233.447266" xlink:href="#LiberationSans-Bold-105"/>
      <use x="261.230469" xlink:href="#LiberationSans-Bold-110"/>
      <use x="322.314453" xlink:href="#LiberationSans-Bold-101"/>
      <use x="377.929688" xlink:href="#LiberationSans-Bold-32"/>
      <use x="405.712891" xlink:href="#LiberationSans-Bold-97"/>
      <use x="461.328125" xlink:href="#LiberationSans-Bold-117"/>
      <use x="522.412109" xlink:href="#LiberationSans-Bold-99"/>
      <use x="578.027344" xlink:href="#LiberationSans-Bold-95"/>
      <use x="633.642578" xlink:href="#LiberationSans-Bold-105"/>
      <use x="661.425781" xlink:href="#LiberationSans-Bold-110"/>
      <use x="722.509766" xlink:href="#LiberationSans-Bold-102"/>
      <use x="755.810547" xlink:href="#LiberationSans-Bold-32"/>
      <use x="783.59375" xlink:href="#LiberationSans-Bold-91"/>
      <use x="816.894531" xlink:href="#LiberationSans-Bold-103"/>
      <use x="877.978516" xlink:href="#LiberationSans-Bold-114"/>
      <use x="916.894531" xlink:href="#LiberationSans-Bold-97"/>
      <use x="972.509766" xlink:href="#LiberationSans-Bold-109"/>
      <use x="1061.425781" xlink:href="#LiberationSans-Bold-32"/>
      <use x="1089.208984" xlink:href="#LiberationSans-Bold-42"/>
      <use x="1128.125" xlink:href="#LiberationSans-Bold-32"/>
      <use x="1155.908203" xlink:href="#LiberationSans-Bold-104"/>
      <use x="1216.992188" xlink:href="#LiberationSans-Bold-111"/>
      <use x="1278.076172" xlink:href="#LiberationSans-Bold-117"/>
      <use x="1339.160156" xlink:href="#LiberationSans-Bold-114"/>
      <use x="1378.076172" xlink:href="#LiberationSans-Bold-32"/>
      <use x="1405.859375" xlink:href="#LiberationSans-Bold-47"/>
      <use x="1433.642578" xlink:href="#LiberationSans-Bold-32"/>
      <use x="1461.425781" xlink:href="#LiberationSans-Bold-108"/>
      <use x="1489.208984" xlink:href="#LiberationSans-Bold-105"/>
      <use x="1516.992188" xlink:href="#LiberationSans-Bold-116"/>
      <use x="1550.292969" xlink:href="#LiberationSans-Bold-101"/>
      <use x="1605.908203" xlink:href="#LiberationSans-Bold-114"/>
      <use x="1644.824219" xlink:href="#LiberationSans-Bold-93"/>
     </g>
    </g>
   </g>
   <g id="PathCollection_1">
    <defs>
     <path d="M -2.236068 2.236068 
L 2.236068 2.236068 
L 2.236068 -2.236068 
L -2.236068 -2.236068 
z
" id="m705be6bb13" style="stroke:#0173b2;stroke-opacity:0.5;"/>
    </defs>
    <g clip-path="url(#pcc48f611ff)"/>
   </g>
   <g id="PathCollection_2">
    <defs>
     <path d="M -2.236068 2.236068 
L 2.236068 2.236068 
L 2.236068 -2.236068 
L -2.236068 -2.236068 
z
" id="ma0f6e5023c" style="stroke:#000000;stroke-opacity:0.5;"/>
    </defs>
    <g clip-path="url(#pcc48f611ff)"/>
   </g>
   <g id="patch_3">
    <path d="M 64.23125 822.6 
L 64.23125 7.2 
" style="fill:none;stroke:#262626;stroke-linecap:square;stroke-linejoin:miter;stroke-width:1.25;"/>
   </g>
   <g id="patch_4">
    <path d="M 901.23125 822.6 
L 901.23125 7.2 
" style="fill:none;stroke:#262626;stroke-linecap:square;stroke-linejoin:miter;stroke-width:1.25;"/>
   </g>
   <g id="patch_5">
    <path d="M 64.23125 822.6 
L 901.23125 822.6 
" style="fill:none;stroke:#262626;stroke-linecap:square;stroke-linejoin:miter;stroke-width:1.25;"/>
   </g>
   <g id="patch_6">
    <path d="M 64.23125 7.2 
L 901.23125 7.2 
" style="fill:none;stroke:#262626;stroke-linecap:square;stroke-linejoin:miter;stroke-width:1.25;"/>
   </g>
   <g id="legend_1">
    <g id="line2d_18">
     <path d="M 544.34625 28 
L 576.34625 28 
" style="fill:none;stroke:#ffffff;stroke-linecap:round;stroke-width:1.5;"/>
    </g>
    <g id="line2d_19">
     <defs>
      <path d="M 0 5 
C 1.326016 5 2.597899 4.473168 3.535534 3.535534 
C 4.473168 2.597899 5 1.326016 5 0 
C 5 -1.326016 4.473168 -2.597899 3.535534 -3.535534 
C 2.597899 -4.473168 1.326016 -5 0 -5 
C -1.326016 -5 -2.597899 -4.473168 -3.535534 -3.535534 
C -4.473168 -2.597899 -5 -1.326016 -5 0 
C -5 1.326016 -4.473168 2.597899 -3.535534 3.535534 
C -2.597899 4.473168 -1.326016 5 0 5 
z
" id="m2f5afcf0cd" style="stroke:#ffffff;"/>
     </defs>
     <g>
      <use style="fill:#029e73;stroke:#ffffff;" x="560.34625" xlink:href="#m2f5afcf0cd" y="28"/>
     </g>
    </g>
    <g id="text_11">
     <!-- control I: 0   G: 0  TI: 0   -->
     <defs>
      <path d="M 30.859375 3.953125 
Q 33.796875 3.953125 36.453125 4.8125 
Q 39.109375 5.671875 41.15625 7.28125 
Q 43.21875 8.890625 44.5 11.15625 
Q 45.796875 13.421875 46 16.3125 
L 51.609375 16.3125 
Q 51.421875 12.546875 49.65625 9.375 
Q 47.90625 6.203125 45.0625 3.90625 
Q 42.234375 1.609375 38.5625 0.3125 
Q 34.90625 -0.984375 30.859375 -0.984375 
Q 25.046875 -0.984375 20.75 1.21875 
Q 16.453125 3.421875 13.59375 7.078125 
Q 10.75 10.75 9.296875 15.5 
Q 7.859375 20.265625 7.859375 25.390625 
L 7.859375 27.4375 
Q 7.859375 32.5625 9.296875 37.328125 
Q 10.75 42.09375 13.59375 45.75 
Q 16.453125 49.421875 20.75 51.609375 
Q 25.046875 53.8125 30.8125 53.8125 
Q 35.203125 53.8125 38.9375 52.421875 
Q 42.671875 51.03125 45.421875 48.515625 
Q 48.1875 46 49.796875 42.546875 
Q 51.421875 39.109375 51.609375 35.015625 
L 46 35.015625 
Q 45.84375 37.984375 44.625 40.515625 
Q 43.40625 43.0625 41.40625 44.921875 
Q 39.40625 46.78125 36.6875 47.796875 
Q 33.984375 48.828125 30.8125 48.828125 
Q 26.21875 48.828125 22.96875 46.96875 
Q 19.734375 45.125 17.671875 42.09375 
Q 15.625 39.0625 14.671875 35.21875 
Q 13.71875 31.390625 13.71875 27.4375 
L 13.71875 25.390625 
Q 13.71875 21.390625 14.671875 17.53125 
Q 15.625 13.671875 17.671875 10.671875 
Q 19.734375 7.671875 22.96875 5.8125 
Q 26.21875 3.953125 30.859375 3.953125 
z
" id="RobotoMono-Light-99"/>
      <path d="M 6.390625 27.203125 
Q 6.453125 32.5625 8.0625 37.390625 
Q 9.671875 42.234375 12.671875 45.875 
Q 15.671875 49.515625 20.046875 51.65625 
Q 24.421875 53.8125 29.9375 53.8125 
Q 35.5 53.8125 39.859375 51.65625 
Q 44.234375 49.515625 47.265625 45.875 
Q 50.296875 42.234375 51.90625 37.390625 
Q 53.515625 32.5625 53.5625 27.203125 
L 53.5625 25.59375 
Q 53.515625 20.21875 51.921875 15.375 
Q 50.34375 10.546875 47.3125 6.90625 
Q 44.28125 3.265625 39.9375 1.140625 
Q 35.59375 -0.984375 30.03125 -0.984375 
Q 24.46875 -0.984375 20.09375 1.140625 
Q 15.71875 3.265625 12.6875 6.90625 
Q 9.671875 10.546875 8.0625 15.375 
Q 6.453125 20.21875 6.390625 25.59375 
z
M 12.25 25.59375 
Q 12.25 21.390625 13.421875 17.484375 
Q 14.59375 13.578125 16.84375 10.5625 
Q 19.09375 7.5625 22.390625 5.75 
Q 25.6875 3.953125 30.03125 3.953125 
Q 34.328125 3.953125 37.625 5.75 
Q 40.921875 7.5625 43.140625 10.5625 
Q 45.359375 13.578125 46.53125 17.484375 
Q 47.703125 21.390625 47.703125 25.59375 
L 47.703125 27.203125 
Q 47.703125 31.34375 46.53125 35.25 
Q 45.359375 39.15625 43.109375 42.15625 
Q 40.875 45.171875 37.546875 47 
Q 34.234375 48.828125 29.9375 48.828125 
Q 25.640625 48.828125 22.34375 47 
Q 19.046875 45.171875 16.8125 42.15625 
Q 14.59375 39.15625 13.421875 35.25 
Q 12.25 31.34375 12.25 27.203125 
z
" id="RobotoMono-Light-111"/>
      <path d="M 14.796875 52.828125 
L 15.234375 42.921875 
Q 18.015625 47.859375 22.65625 50.8125 
Q 27.296875 53.765625 33.203125 53.8125 
Q 41.890625 53.8125 46.484375 48.609375 
Q 51.078125 43.40625 51.125 33.84375 
L 51.125 0 
L 45.265625 0 
L 45.265625 33.734375 
Q 45.21875 41.015625 41.9375 44.890625 
Q 38.671875 48.78125 31.78125 48.734375 
Q 28.953125 48.734375 26.390625 47.796875 
Q 23.828125 46.875 21.703125 45.265625 
Q 19.578125 43.65625 17.9375 41.453125 
Q 16.3125 39.265625 15.28125 36.671875 
L 15.28125 0 
L 9.421875 0 
L 9.421875 52.828125 
z
" id="RobotoMono-Light-110"/>
      <path d="M 28.90625 66.359375 
L 28.90625 52.828125 
L 48.484375 52.828125 
L 48.484375 48.046875 
L 28.90625 48.046875 
L 28.90625 14.796875 
Q 28.953125 11.71875 29.859375 9.6875 
Q 30.765625 7.671875 32.296875 6.421875 
Q 33.84375 5.171875 35.90625 4.640625 
Q 37.984375 4.109375 40.4375 4.109375 
Q 42.875 4.109375 45.4375 4.4375 
Q 48 4.78125 49.8125 5.125 
L 50.6875 0.6875 
Q 48.578125 -0.140625 45.546875 -0.5625 
Q 42.53125 -0.984375 39.40625 -0.984375 
Q 35.890625 -0.984375 32.90625 -0.125 
Q 29.9375 0.734375 27.734375 2.609375 
Q 25.53125 4.5 24.265625 7.5 
Q 23 10.5 22.953125 14.84375 
L 22.953125 48.046875 
L 8.25 48.046875 
L 8.25 52.828125 
L 22.953125 52.828125 
L 22.953125 66.359375 
z
" id="RobotoMono-Light-116"/>
      <path d="M 44.390625 53.8125 
Q 46.578125 53.8125 48.78125 53.53125 
Q 50.984375 53.265625 52.4375 52.78125 
L 51.703125 47.171875 
Q 49.65625 47.609375 47.609375 47.84375 
Q 45.5625 48.09375 43.40625 48.09375 
Q 35.984375 48.09375 30.8125 44.578125 
Q 25.640625 41.0625 23.53125 33.796875 
L 23.578125 0 
L 17.53125 0 
L 17.53125 52.828125 
L 23.140625 52.828125 
L 23.53125 43.65625 
L 23.53125 42.578125 
Q 26.765625 47.796875 32.078125 50.796875 
Q 37.40625 53.8125 44.390625 53.8125 
z
" id="RobotoMono-Light-114"/>
      <path d="M 10.796875 75 
L 35.40625 75 
L 35.40625 5.171875 
L 53.265625 5.171875 
L 53.265625 0 
L 10.796875 0 
L 10.796875 5.171875 
L 29.546875 5.171875 
L 29.546875 69.78125 
L 10.796875 69.78125 
z
" id="RobotoMono-Light-108"/>
      <path id="RobotoMono-Light-32"/>
      <path d="M 9.421875 71.09375 
L 50.59375 71.09375 
L 50.59375 65.828125 
L 32.765625 65.828125 
L 32.765625 5.171875 
L 50.59375 5.171875 
L 50.59375 0 
L 9.421875 0 
L 9.421875 5.171875 
L 26.703125 5.171875 
L 26.703125 65.828125 
L 9.421875 65.828125 
z
" id="RobotoMono-Light-73"/>
      <path d="M 29.09375 4.15625 
Q 29.09375 6.203125 30.4375 7.640625 
Q 31.78125 9.078125 34.078125 9.078125 
Q 36.421875 9.078125 37.75 7.640625 
Q 39.09375 6.203125 39.09375 4.15625 
Q 39.09375 2.09375 37.75 0.75 
Q 36.421875 -0.59375 34.078125 -0.59375 
Q 31.78125 -0.59375 30.4375 0.75 
Q 29.09375 2.09375 29.09375 4.15625 
z
M 29.09375 47.15625 
Q 29.09375 49.203125 30.4375 50.640625 
Q 31.78125 52.078125 34.078125 52.078125 
Q 36.421875 52.078125 37.75 50.640625 
Q 39.09375 49.203125 39.09375 47.15625 
Q 39.09375 45.09375 37.75 43.75 
Q 36.421875 42.40625 34.078125 42.40625 
Q 31.78125 42.40625 30.4375 43.75 
Q 29.09375 45.09375 29.09375 47.15625 
z
" id="RobotoMono-Light-58"/>
      <path d="M 52.484375 28.125 
Q 52.484375 22.171875 51.171875 16.875 
Q 49.859375 11.578125 47.125 7.609375 
Q 44.390625 3.65625 40.1875 1.328125 
Q 35.984375 -0.984375 30.171875 -0.984375 
Q 24.421875 -0.984375 20.1875 1.328125 
Q 15.96875 3.65625 13.203125 7.609375 
Q 10.453125 11.578125 9.109375 16.875 
Q 7.765625 22.171875 7.71875 28.125 
L 7.71875 42.921875 
Q 7.765625 48.875 9.078125 54.171875 
Q 10.40625 59.46875 13.15625 63.46875 
Q 15.921875 67.484375 20.109375 69.796875 
Q 24.3125 72.125 30.078125 72.125 
Q 35.890625 72.125 40.109375 69.796875 
Q 44.34375 67.484375 47.078125 63.5 
Q 49.8125 59.515625 51.140625 54.1875 
Q 52.484375 48.875 52.484375 42.921875 
z
M 13.578125 27.25 
Q 13.578125 25.25 13.71875 23.4375 
L 45.796875 52.484375 
Q 45.125 55.609375 43.890625 58.296875 
Q 42.671875 60.984375 40.734375 62.9375 
Q 38.8125 64.890625 36.171875 66.015625 
Q 33.546875 67.140625 30.078125 67.140625 
Q 25.53125 67.140625 22.375 65.234375 
Q 19.234375 63.328125 17.28125 60.109375 
Q 15.328125 56.890625 14.453125 52.6875 
Q 13.578125 48.484375 13.578125 43.890625 
z
M 46.625 43.890625 
Q 46.625 45.515625 46.484375 47.078125 
L 14.546875 18.0625 
Q 15.28125 15.046875 16.546875 12.453125 
Q 17.828125 9.859375 19.71875 7.984375 
Q 21.625 6.109375 24.21875 5.03125 
Q 26.8125 3.953125 30.171875 3.953125 
Q 34.71875 3.953125 37.859375 5.875 
Q 41.015625 7.8125 42.9375 11.03125 
Q 44.875 14.265625 45.75 18.453125 
Q 46.625 22.65625 46.625 27.25 
z
" id="RobotoMono-Light-48"/>
      <path d="M 53.5625 8.453125 
Q 51.46875 5.953125 48.921875 4.140625 
Q 46.390625 2.34375 43.53125 1.1875 
Q 40.671875 0.046875 37.546875 -0.46875 
Q 34.421875 -0.984375 31.203125 -0.984375 
Q 26.953125 -0.921875 23.40625 0.359375 
Q 19.875 1.65625 17.03125 3.921875 
Q 14.203125 6.203125 12.109375 9.25 
Q 10.015625 12.3125 8.625 15.828125 
Q 7.234375 19.34375 6.5 23.171875 
Q 5.765625 27 5.71875 30.8125 
L 5.71875 40.765625 
Q 5.765625 44.484375 6.421875 48.234375 
Q 7.078125 52 8.421875 55.484375 
Q 9.765625 58.984375 11.765625 61.984375 
Q 13.765625 64.984375 16.5 67.234375 
Q 19.234375 69.484375 22.671875 70.78125 
Q 26.125 72.078125 30.375 72.078125 
Q 35.109375 72.078125 39.140625 70.53125 
Q 43.171875 69 46.1875 66.234375 
Q 49.21875 63.484375 51.09375 59.625 
Q 52.984375 55.765625 53.46875 51.078125 
L 47.703125 51.078125 
Q 47.015625 54.5 45.625 57.421875 
Q 44.234375 60.359375 42.078125 62.453125 
Q 39.9375 64.546875 37.03125 65.734375 
Q 34.125 66.9375 30.421875 66.9375 
Q 27 66.9375 24.265625 65.796875 
Q 21.53125 64.65625 19.453125 62.71875 
Q 17.390625 60.796875 15.890625 58.234375 
Q 14.40625 55.671875 13.453125 52.765625 
Q 12.5 49.859375 12.0625 46.796875 
Q 11.625 43.75 11.578125 40.875 
L 11.578125 30.8125 
Q 11.625 27.828125 12.125 24.703125 
Q 12.640625 21.578125 13.671875 18.625 
Q 14.703125 15.671875 16.265625 13.03125 
Q 17.828125 10.40625 20 8.421875 
Q 22.171875 6.453125 24.953125 5.296875 
Q 27.734375 4.15625 31.25 4.109375 
Q 33.453125 4.046875 35.796875 4.3125 
Q 38.140625 4.59375 40.359375 5.296875 
Q 42.578125 6 44.5 7.21875 
Q 46.4375 8.453125 47.859375 10.296875 
L 47.90625 28.65625 
L 31.0625 28.65625 
L 31.0625 33.734375 
L 53.46875 33.734375 
z
" id="RobotoMono-Light-71"/>
      <path d="M 55.609375 65.96875 
L 32.953125 65.96875 
L 32.953125 0 
L 27.25 0 
L 27.296875 65.96875 
L 4.59375 65.96875 
L 4.59375 71.09375 
L 55.609375 71.09375 
z
" id="RobotoMono-Light-84"/>
     </defs>
     <g style="fill:#262626;" transform="translate(589.14625 33.6)scale(0.16 -0.16)">
      <use xlink:href="#RobotoMono-Light-99"/>
      <use x="60.009766" xlink:href="#RobotoMono-Light-111"/>
      <use x="120.019531" xlink:href="#RobotoMono-Light-110"/>
      <use x="180.029297" xlink:href="#RobotoMono-Light-116"/>
      <use x="240.039062" xlink:href="#RobotoMono-Light-114"/>
      <use x="300.048828" xlink:href="#RobotoMono-Light-111"/>
      <use x="360.058594" xlink:href="#RobotoMono-Light-108"/>
      <use x="420.068359" xlink:href="#RobotoMono-Light-32"/>
      <use x="480.078125" xlink:href="#RobotoMono-Light-73"/>
      <use x="540.087891" xlink:href="#RobotoMono-Light-58"/>
      <use x="600.097656" xlink:href="#RobotoMono-Light-32"/>
      <use x="660.107422" xlink:href="#RobotoMono-Light-48"/>
      <use x="720.117188" xlink:href="#RobotoMono-Light-32"/>
      <use x="780.126953" xlink:href="#RobotoMono-Light-32"/>
      <use x="840.136719" xlink:href="#RobotoMono-Light-32"/>
      <use x="900.146484" xlink:href="#RobotoMono-Light-71"/>
      <use x="960.15625" xlink:href="#RobotoMono-Light-58"/>
      <use x="1020.166016" xlink:href="#RobotoMono-Light-32"/>
      <use x="1080.175781" xlink:href="#RobotoMono-Light-48"/>
      <use x="1140.185547" xlink:href="#RobotoMono-Light-32"/>
      <use x="1200.195312" xlink:href="#RobotoMono-Light-32"/>
      <use x="1260.205078" xlink:href="#RobotoMono-Light-84"/>
      <use x="1320.214844" xlink:href="#RobotoMono-Light-73"/>
      <use x="1380.224609" xlink:href="#RobotoMono-Light-58"/>
      <use x="1440.234375" xlink:href="#RobotoMono-Light-32"/>
      <use x="1500.244141" xlink:href="#RobotoMono-Light-48"/>
      <use x="1560.253906" xlink:href="#RobotoMono-Light-32"/>
      <use x="1620.263672" xlink:href="#RobotoMono-Light-32"/>
     </g>
    </g>
    <g id="line2d_20">
     <path d="M 544.34625 51.25 
L 576.34625 51.25 
" style="fill:none;stroke:#ffffff;stroke-linecap:round;stroke-width:1.5;"/>
    </g>
    <g id="line2d_21">
     <defs>
      <path d="M 0 5 
C 1.326016 5 2.597899 4.473168 3.535534 3.535534 
C 4.473168 2.597899 5 1.326016 5 0 
C 5 -1.326016 4.473168 -2.597899 3.535534 -3.535534 
C 2.597899 -4.473168 1.326016 -5 0 -5 
C -1.326016 -5 -2.597899 -4.473168 -3.535534 -3.535534 
C -4.473168 -2.597899 -5 -1.326016 -5 0 
C -5 1.326016 -4.473168 2.597899 -3.535534 3.535534 
C -2.597899 4.473168 -1.326016 5 0 5 
z
" id="m84089a48e0" style="stroke:#ffffff;"/>
     </defs>
     <g>
      <use style="fill:#0173b2;stroke:#ffffff;" x="560.34625" xlink:href="#m84089a48e0" y="51.25"/>
     </g>
    </g>
    <g id="text_12">
     <!-- smoking I: 1   G: 0  TI: 1   -->
     <defs>
      <path d="M 46.296875 13.421875 
Q 46.296875 15.875 45.0625 17.671875 
Q 43.84375 19.484375 41.71875 20.78125 
Q 39.59375 22.078125 36.8125 22.953125 
Q 34.03125 23.828125 30.90625 24.46875 
Q 27.09375 25.25 23.53125 26.34375 
Q 19.96875 27.4375 17.1875 29.140625 
Q 14.40625 30.859375 12.734375 33.328125 
Q 11.078125 35.796875 11.078125 39.40625 
Q 11.078125 42.828125 12.78125 45.5 
Q 14.5 48.1875 17.28125 50.046875 
Q 20.0625 51.90625 23.625 52.859375 
Q 27.203125 53.8125 30.953125 53.8125 
Q 35.25 53.8125 38.984375 52.75 
Q 42.71875 51.703125 45.53125 49.671875 
Q 48.34375 47.65625 50 44.71875 
Q 51.65625 41.796875 51.8125 38.03125 
L 45.953125 38.03125 
Q 45.84375 40.578125 44.578125 42.59375 
Q 43.3125 44.625 41.203125 45.984375 
Q 39.109375 47.359375 36.453125 48.09375 
Q 33.796875 48.828125 30.953125 48.828125 
Q 28.328125 48.828125 25.8125 48.265625 
Q 23.296875 47.703125 21.3125 46.546875 
Q 19.34375 45.40625 18.140625 43.671875 
Q 16.9375 41.9375 16.9375 39.59375 
Q 16.890625 37.109375 18.078125 35.421875 
Q 19.28125 33.734375 21.328125 32.59375 
Q 23.390625 31.453125 26.140625 30.6875 
Q 28.90625 29.9375 32.03125 29.296875 
Q 36.03125 28.46875 39.671875 27.265625 
Q 43.3125 26.078125 46.09375 24.296875 
Q 48.875 22.515625 50.484375 19.921875 
Q 52.09375 17.328125 52.09375 13.71875 
Q 52.09375 10.015625 50.3125 7.25 
Q 48.53125 4.5 45.625 2.65625 
Q 42.71875 0.828125 38.984375 -0.078125 
Q 35.25 -0.984375 31.296875 -0.984375 
Q 26.859375 -0.984375 22.921875 0.09375 
Q 19 1.171875 15.984375 3.1875 
Q 12.984375 5.21875 11.171875 8.140625 
Q 9.375 11.078125 9.234375 14.796875 
L 15.09375 14.796875 
Q 15.375 11.671875 16.96875 9.5625 
Q 18.5625 7.46875 20.875 6.21875 
Q 23.1875 4.984375 25.921875 4.46875 
Q 28.65625 3.953125 31.296875 3.953125 
Q 33.984375 3.953125 36.640625 4.515625 
Q 39.3125 5.078125 41.4375 6.21875 
Q 43.5625 7.375 44.890625 9.15625 
Q 46.234375 10.9375 46.296875 13.421875 
z
" id="RobotoMono-Light-115"/>
      <path d="M 9.625 52.828125 
L 9.765625 46.921875 
Q 11.375 50 14.1875 51.875 
Q 17 53.765625 21.296875 53.8125 
Q 23.53125 53.8125 25.265625 53.296875 
Q 27 52.78125 28.265625 51.84375 
Q 29.546875 50.921875 30.421875 49.625 
Q 31.296875 48.34375 31.84375 46.828125 
Q 33.5 49.8125 36.40625 51.78125 
Q 39.3125 53.765625 43.65625 53.8125 
Q 47.078125 53.8125 49.359375 52.640625 
Q 51.65625 51.46875 53.078125 49.46875 
Q 54.5 47.46875 55.109375 44.828125 
Q 55.71875 42.1875 55.71875 39.265625 
L 55.671875 0 
L 50.203125 0 
L 50.140625 39.265625 
Q 50.140625 40.96875 49.796875 42.671875 
Q 49.46875 44.390625 48.609375 45.75 
Q 47.75 47.125 46.203125 47.953125 
Q 44.671875 48.78125 42.28125 48.734375 
Q 39.84375 48.6875 38.15625 47.953125 
Q 36.46875 47.21875 35.375 46.046875 
Q 34.28125 44.875 33.671875 43.4375 
Q 33.0625 42 32.765625 40.53125 
L 32.71875 0 
L 27.25 0 
L 27.203125 39.796875 
Q 27.203125 41.453125 26.859375 43.0625 
Q 26.515625 44.671875 25.65625 45.9375 
Q 24.8125 47.21875 23.296875 48 
Q 21.78125 48.78125 19.4375 48.734375 
Q 17.09375 48.6875 15.453125 48 
Q 13.8125 47.3125 12.71875 46.15625 
Q 11.625 45.015625 10.953125 43.53125 
Q 10.296875 42.046875 9.90625 40.4375 
L 9.859375 0 
L 4.34375 0 
L 4.34375 52.828125 
z
" id="RobotoMono-Light-109"/>
      <path d="M 23.921875 26.703125 
L 16.453125 20.015625 
L 16.453125 0 
L 10.546875 0 
L 10.546875 75 
L 16.453125 75 
L 16.453125 26.765625 
L 22.75 32.953125 
L 44.1875 52.828125 
L 51.65625 52.828125 
L 28.078125 30.5625 
L 54.109375 0 
L 46.578125 0 
z
" id="RobotoMono-Light-107"/>
      <path d="M 10.796875 52.828125 
L 35.296875 52.828125 
L 35.296875 5.171875 
L 53.265625 5.171875 
L 53.265625 0 
L 10.796875 0 
L 10.796875 5.171875 
L 29.4375 5.171875 
L 29.4375 47.609375 
L 10.796875 47.609375 
z
M 27.734375 67.28125 
Q 27.734375 69.09375 28.75 70.40625 
Q 29.78125 71.734375 32.171875 71.734375 
Q 34.515625 71.734375 35.5625 70.40625 
Q 36.625 69.09375 36.625 67.28125 
Q 36.625 65.578125 35.5625 64.28125 
Q 34.515625 62.984375 32.171875 62.984375 
Q 29.78125 62.984375 28.75 64.28125 
Q 27.734375 65.578125 27.734375 67.28125 
z
" id="RobotoMono-Light-105"/>
      <path d="M 7.765625 26.90625 
Q 7.765625 32.171875 9.03125 37.03125 
Q 10.296875 41.890625 12.90625 45.625 
Q 15.53125 49.359375 19.453125 51.578125 
Q 23.390625 53.8125 28.765625 53.8125 
Q 33.84375 53.8125 37.859375 51.640625 
Q 41.890625 49.46875 44.578125 45.515625 
L 44.828125 52.828125 
L 50.296875 52.828125 
L 50.296875 0.921875 
Q 50.25 -3.90625 48.78125 -7.953125 
Q 47.3125 -12.015625 44.546875 -14.921875 
Q 41.796875 -17.828125 37.890625 -19.4375 
Q 33.984375 -21.046875 29.109375 -21.046875 
Q 26.765625 -21.046875 24.21875 -20.5 
Q 21.6875 -19.96875 19.234375 -18.84375 
Q 16.796875 -17.71875 14.578125 -16.03125 
Q 12.359375 -14.359375 10.6875 -12.015625 
L 13.96875 -8.5 
Q 20.265625 -16.109375 28.71875 -16.109375 
Q 32.46875 -16.109375 35.390625 -14.890625 
Q 38.328125 -13.671875 40.296875 -11.453125 
Q 42.28125 -9.234375 43.328125 -6.125 
Q 44.390625 -3.03125 44.4375 0.6875 
L 44.4375 6.6875 
Q 41.65625 2.984375 37.625 1 
Q 33.59375 -0.984375 28.65625 -0.984375 
Q 23.390625 -0.984375 19.453125 1.28125 
Q 15.53125 3.5625 12.9375 7.296875 
Q 10.359375 11.03125 9.0625 15.890625 
Q 7.765625 20.75 7.765625 25.875 
z
M 13.625 25.875 
Q 13.625 21.921875 14.46875 18.015625 
Q 15.328125 14.109375 17.234375 11 
Q 19.140625 7.90625 22.21875 6 
Q 25.296875 4.109375 29.734375 4.109375 
Q 32.234375 4.109375 34.46875 4.765625 
Q 36.71875 5.421875 38.59375 6.640625 
Q 40.484375 7.859375 41.96875 9.59375 
Q 43.453125 11.328125 44.4375 13.484375 
L 44.4375 38.625 
Q 43.453125 40.828125 42.03125 42.671875 
Q 40.625 44.53125 38.765625 45.875 
Q 36.921875 47.21875 34.671875 47.96875 
Q 32.421875 48.734375 29.828125 48.734375 
Q 25.34375 48.734375 22.265625 46.796875 
Q 19.1875 44.875 17.25 41.765625 
Q 15.328125 38.671875 14.46875 34.765625 
Q 13.625 30.859375 13.625 26.90625 
z
" id="RobotoMono-Light-103"/>
      <path d="M 36.234375 0 
L 30.375 0 
L 30.375 63.71875 
L 10.6875 55.28125 
L 10.6875 60.796875 
L 35.40625 71.09375 
L 36.234375 71.09375 
z
" id="RobotoMono-Light-49"/>
     </defs>
     <g style="fill:#262626;" transform="translate(589.14625 56.85)scale(0.16 -0.16)">
      <use xlink:href="#RobotoMono-Light-115"/>
      <use x="60.009766" xlink:href="#RobotoMono-Light-109"/>
      <use x="120.019531" xlink:href="#RobotoMono-Light-111"/>
      <use x="180.029297" xlink:href="#RobotoMono-Light-107"/>
      <use x="240.039062" xlink:href="#RobotoMono-Light-105"/>
      <use x="300.048828" xlink:href="#RobotoMono-Light-110"/>
      <use x="360.058594" xlink:href="#RobotoMono-Light-103"/>
      <use x="420.068359" xlink:href="#RobotoMono-Light-32"/>
      <use x="480.078125" xlink:href="#RobotoMono-Light-73"/>
      <use x="540.087891" xlink:href="#RobotoMono-Light-58"/>
      <use x="600.097656" xlink:href="#RobotoMono-Light-32"/>
      <use x="660.107422" xlink:href="#RobotoMono-Light-49"/>
      <use x="720.117188" xlink:href="#RobotoMono-Light-32"/>
      <use x="780.126953" xlink:href="#RobotoMono-Light-32"/>
      <use x="840.136719" xlink:href="#RobotoMono-Light-32"/>
      <use x="900.146484" xlink:href="#RobotoMono-Light-71"/>
      <use x="960.15625" xlink:href="#RobotoMono-Light-58"/>
      <use x="1020.166016" xlink:href="#RobotoMono-Light-32"/>
      <use x="1080.175781" xlink:href="#RobotoMono-Light-48"/>
      <use x="1140.185547" xlink:href="#RobotoMono-Light-32"/>
      <use x="1200.195312" xlink:href="#RobotoMono-Light-32"/>
      <use x="1260.205078" xlink:href="#RobotoMono-Light-84"/>
      <use x="1320.214844" xlink:href="#RobotoMono-Light-73"/>
      <use x="1380.224609" xlink:href="#RobotoMono-Light-58"/>
      <use x="1440.234375" xlink:href="#RobotoMono-Light-32"/>
      <use x="1500.244141" xlink:href="#RobotoMono-Light-49"/>
      <use x="1560.253906" xlink:href="#RobotoMono-Light-32"/>
      <use x="1620.263672" xlink:href="#RobotoMono-Light-32"/>
     </g>
    </g>
    <g id="line2d_22">
     <path d="M 544.34625 74.6175 
L 576.34625 74.6175 
" style="fill:none;stroke:#ffffff;stroke-linecap:round;stroke-width:1.5;"/>
    </g>
    <g id="line2d_23">
     <defs>
      <path d="M 0 5 
C 1.326016 5 2.597899 4.473168 3.535534 3.535534 
C 4.473168 2.597899 5 1.326016 5 0 
C 5 -1.326016 4.473168 -2.597899 3.535534 -3.535534 
C 2.597899 -4.473168 1.326016 -5 0 -5 
C -1.326016 -5 -2.597899 -4.473168 -3.535534 -3.535534 
C -4.473168 -2.597899 -5 -1.326016 -5 0 
C -5 1.326016 -4.473168 2.597899 -3.535534 3.535534 
C -2.597899 4.473168 -1.326016 5 0 5 
z
" id="m57e98e503a" style="stroke:#ffffff;"/>
     </defs>
     <g>
      <use style="fill:#d55e00;stroke:#ffffff;" x="560.34625" xlink:href="#m57e98e503a" y="74.6175"/>
     </g>
    </g>
    <g id="text_13">
     <!-- oc      I: 0   G: 0  TI: 0   -->
     <g style="fill:#262626;" transform="translate(589.14625 80.2175)scale(0.16 -0.16)">
      <use xlink:href="#RobotoMono-Light-111"/>
      <use x="60.009766" xlink:href="#RobotoMono-Light-99"/>
      <use x="120.019531" xlink:href="#RobotoMono-Light-32"/>
      <use x="180.029297" xlink:href="#RobotoMono-Light-32"/>
      <use x="240.039062" xlink:href="#RobotoMono-Light-32"/>
      <use x="300.048828" xlink:href="#RobotoMono-Light-32"/>
      <use x="360.058594" xlink:href="#RobotoMono-Light-32"/>
      <use x="420.068359" xlink:href="#RobotoMono-Light-32"/>
      <use x="480.078125" xlink:href="#RobotoMono-Light-73"/>
      <use x="540.087891" xlink:href="#RobotoMono-Light-58"/>
      <use x="600.097656" xlink:href="#RobotoMono-Light-32"/>
      <use x="660.107422" xlink:href="#RobotoMono-Light-48"/>
      <use x="720.117188" xlink:href="#RobotoMono-Light-32"/>
      <use x="780.126953" xlink:href="#RobotoMono-Light-32"/>
      <use x="840.136719" xlink:href="#RobotoMono-Light-32"/>
      <use x="900.146484" xlink:href="#RobotoMono-Light-71"/>
      <use x="960.15625" xlink:href="#RobotoMono-Light-58"/>
      <use x="1020.166016" xlink:href="#RobotoMono-Light-32"/>
      <use x="1080.175781" xlink:href="#RobotoMono-Light-48"/>
      <use x="1140.185547" xlink:href="#RobotoMono-Light-32"/>
      <use x="1200.195312" xlink:href="#RobotoMono-Light-32"/>
      <use x="1260.205078" xlink:href="#RobotoMono-Light-84"/>
      <use x="1320.214844" xlink:href="#RobotoMono-Light-73"/>
      <use x="1380.224609" xlink:href="#RobotoMono-Light-58"/>
      <use x="1440.234375" xlink:href="#RobotoMono-Light-32"/>
      <use x="1500.244141" xlink:href="#RobotoMono-Light-48"/>
      <use x="1560.253906" xlink:href="#RobotoMono-Light-32"/>
      <use x="1620.263672" xlink:href="#RobotoMono-Light-32"/>
     </g>
    </g>
    <g id="line2d_24">
     <path d="M 544.34625 97.8675 
L 576.34625 97.8675 
" style="fill:none;stroke:#ffffff;stroke-linecap:round;stroke-width:1.5;"/>
    </g>
    <g id="line2d_25">
     <defs>
      <path d="M 0 5 
C 1.326016 5 2.597899 4.473168 3.535534 3.535534 
C 4.473168 2.597899 5 1.326016 5 0 
C 5 -1.326016 4.473168 -2.597899 3.535534 -3.535534 
C 2.597899 -4.473168 1.326016 -5 0 -5 
C -1.326016 -5 -2.597899 -4.473168 -3.535534 -3.535534 
C -4.473168 -2.597899 -5 -1.326016 -5 0 
C -5 1.326016 -4.473168 2.597899 -3.535534 3.535534 
C -2.597899 4.473168 -1.326016 5 0 5 
z
" id="m5b6fd54a8e" style="stroke:#ffffff;"/>
     </defs>
     <g>
      <use style="fill:#de8f05;stroke:#ffffff;" x="560.34625" xlink:href="#m5b6fd54a8e" y="97.8675"/>
     </g>
    </g>
    <g id="text_14">
     <!-- oc-smoking I: 0   G: 0  TI: 0   -->
     <defs>
      <path d="M 47.359375 29.34375 
L 11.1875 29.34375 
L 11.1875 34.28125 
L 47.359375 34.28125 
z
" id="RobotoMono-Light-45"/>
     </defs>
     <g style="fill:#262626;" transform="translate(589.14625 103.4675)scale(0.16 -0.16)">
      <use xlink:href="#RobotoMono-Light-111"/>
      <use x="60.009766" xlink:href="#RobotoMono-Light-99"/>
      <use x="120.019531" xlink:href="#RobotoMono-Light-45"/>
      <use x="180.078125" xlink:href="#RobotoMono-Light-115"/>
      <use x="240.087891" xlink:href="#RobotoMono-Light-109"/>
      <use x="300.097656" xlink:href="#RobotoMono-Light-111"/>
      <use x="360.107422" xlink:href="#RobotoMono-Light-107"/>
      <use x="420.117188" xlink:href="#RobotoMono-Light-105"/>
      <use x="480.126953" xlink:href="#RobotoMono-Light-110"/>
      <use x="540.136719" xlink:href="#RobotoMono-Light-103"/>
      <use x="600.146484" xlink:href="#RobotoMono-Light-32"/>
      <use x="660.15625" xlink:href="#RobotoMono-Light-73"/>
      <use x="720.166016" xlink:href="#RobotoMono-Light-58"/>
      <use x="780.175781" xlink:href="#RobotoMono-Light-32"/>
      <use x="840.185547" xlink:href="#RobotoMono-Light-48"/>
      <use x="900.195312" xlink:href="#RobotoMono-Light-32"/>
      <use x="960.205078" xlink:href="#RobotoMono-Light-32"/>
      <use x="1020.214844" xlink:href="#RobotoMono-Light-32"/>
      <use x="1080.224609" xlink:href="#RobotoMono-Light-71"/>
      <use x="1140.234375" xlink:href="#RobotoMono-Light-58"/>
      <use x="1200.244141" xlink:href="#RobotoMono-Light-32"/>
      <use x="1260.253906" xlink:href="#RobotoMono-Light-48"/>
      <use x="1320.263672" xlink:href="#RobotoMono-Light-32"/>
      <use x="1380.273438" xlink:href="#RobotoMono-Light-32"/>
      <use x="1440.283203" xlink:href="#RobotoMono-Light-84"/>
      <use x="1500.292969" xlink:href="#RobotoMono-Light-73"/>
      <use x="1560.302734" xlink:href="#RobotoMono-Light-58"/>
      <use x="1620.3125" xlink:href="#RobotoMono-Light-32"/>
      <use x="1680.322266" xlink:href="#RobotoMono-Light-48"/>
      <use x="1740.332031" xlink:href="#RobotoMono-Light-32"/>
      <use x="1800.341797" xlink:href="#RobotoMono-Light-32"/>
     </g>
    </g>
    <g id="line2d_26">
     <path d="M 544.34625 121.235 
L 576.34625 121.235 
" style="fill:none;stroke:#ffffff;stroke-linecap:round;stroke-width:1.5;"/>
    </g>
    <g id="line2d_27">
     <defs>
      <path d="M 0 5 
C 1.326016 5 2.597899 4.473168 3.535534 3.535534 
C 4.473168 2.597899 5 1.326016 5 0 
C 5 -1.326016 4.473168 -2.597899 3.535534 -3.535534 
C 2.597899 -4.473168 1.326016 -5 0 -5 
C -1.326016 -5 -2.597899 -4.473168 -3.535534 -3.535534 
C -4.473168 -2.597899 -5 -1.326016 -5 0 
C -5 1.326016 -4.473168 2.597899 -3.535534 3.535534 
C -2.597899 4.473168 -1.326016 5 0 5 
z
" id="m5833282b37" style="stroke:#ffffff;"/>
     </defs>
     <g>
      <use style="stroke:#ffffff;" x="560.34625" xlink:href="#m5833282b37" y="121.235"/>
     </g>
    </g>
    <g id="text_15">
     <!-- unknown I: 4   G: 0  TI: 4   -->
     <defs>
      <path d="M 44.875 8.25 
Q 42.234375 3.90625 37.90625 1.453125 
Q 33.59375 -0.984375 27.6875 -0.984375 
Q 23.296875 -0.984375 19.953125 0.4375 
Q 16.609375 1.859375 14.328125 4.59375 
Q 12.0625 7.328125 10.859375 11.28125 
Q 9.671875 15.234375 9.671875 20.3125 
L 9.671875 52.828125 
L 15.484375 52.828125 
L 15.484375 20.21875 
Q 15.578125 12.25 18.703125 8.140625 
Q 21.828125 4.046875 28.375 4.046875 
Q 34.96875 4.046875 39.0625 7.078125 
Q 43.171875 10.109375 44.78125 15.28125 
L 44.734375 52.828125 
L 50.640625 52.828125 
L 50.640625 0 
L 45.171875 0 
z
" id="RobotoMono-Light-117"/>
      <path d="M 15.828125 17.140625 
L 17.390625 7.765625 
L 19.34375 17.140625 
L 28.265625 52.828125 
L 32.375 52.828125 
L 41.3125 17.140625 
L 43.265625 7.515625 
L 44.96875 17.140625 
L 52.203125 52.828125 
L 57.625 52.828125 
L 45.90625 0 
L 41.15625 0 
L 31.84375 36.140625 
L 30.28125 44.578125 
L 28.71875 36.140625 
L 19.484375 0 
L 14.75 0 
L 3.03125 52.828125 
L 8.453125 52.828125 
z
" id="RobotoMono-Light-119"/>
      <path d="M 43.359375 22.90625 
L 54.5 22.90625 
L 54.5 17.96875 
L 43.359375 17.96875 
L 43.359375 0 
L 37.546875 0 
L 37.546875 17.96875 
L 4.109375 17.96875 
L 4.109375 21.296875 
L 36.96875 71.09375 
L 43.359375 71.09375 
z
M 11.140625 22.90625 
L 37.546875 22.90625 
L 37.546875 63.71875 
L 34.765625 58.796875 
z
" id="RobotoMono-Light-52"/>
     </defs>
     <g style="fill:#262626;" transform="translate(589.14625 126.835)scale(0.16 -0.16)">
      <use xlink:href="#RobotoMono-Light-117"/>
      <use x="60.009766" xlink:href="#RobotoMono-Light-110"/>
      <use x="120.019531" xlink:href="#RobotoMono-Light-107"/>
      <use x="180.029297" xlink:href="#RobotoMono-Light-110"/>
      <use x="240.039062" xlink:href="#RobotoMono-Light-111"/>
      <use x="300.048828" xlink:href="#RobotoMono-Light-119"/>
      <use x="360.058594" xlink:href="#RobotoMono-Light-110"/>
      <use x="420.068359" xlink:href="#RobotoMono-Light-32"/>
      <use x="480.078125" xlink:href="#RobotoMono-Light-73"/>
      <use x="540.087891" xlink:href="#RobotoMono-Light-58"/>
      <use x="600.097656" xlink:href="#RobotoMono-Light-32"/>
      <use x="660.107422" xlink:href="#RobotoMono-Light-52"/>
      <use x="720.117188" xlink:href="#RobotoMono-Light-32"/>
      <use x="780.126953" xlink:href="#RobotoMono-Light-32"/>
      <use x="840.136719" xlink:href="#RobotoMono-Light-32"/>
      <use x="900.146484" xlink:href="#RobotoMono-Light-71"/>
      <use x="960.15625" xlink:href="#RobotoMono-Light-58"/>
      <use x="1020.166016" xlink:href="#RobotoMono-Light-32"/>
      <use x="1080.175781" xlink:href="#RobotoMono-Light-48"/>
      <use x="1140.185547" xlink:href="#RobotoMono-Light-32"/>
      <use x="1200.195312" xlink:href="#RobotoMono-Light-32"/>
      <use x="1260.205078" xlink:href="#RobotoMono-Light-84"/>
      <use x="1320.214844" xlink:href="#RobotoMono-Light-73"/>
      <use x="1380.224609" xlink:href="#RobotoMono-Light-58"/>
      <use x="1440.234375" xlink:href="#RobotoMono-Light-32"/>
      <use x="1500.244141" xlink:href="#RobotoMono-Light-52"/>
      <use x="1560.253906" xlink:href="#RobotoMono-Light-32"/>
      <use x="1620.263672" xlink:href="#RobotoMono-Light-32"/>
     </g>
    </g>
   </g>
   <g id="legend_2">
    <g id="line2d_28">
     <path d="M 78.63125 28 
L 110.63125 28 
" style="fill:none;stroke:#ffffff;stroke-linecap:round;stroke-width:1.5;"/>
    </g>
    <g id="line2d_29">
     <g>
      <use style="stroke:#ffffff;" x="94.63125" xlink:href="#m5833282b37" y="28"/>
     </g>
    </g>
    <g id="text_16">
     <!-- raw -->
     <defs>
      <path d="M 45.75 0 
Q 45.21875 1.609375 44.921875 3.578125 
Q 44.625 5.5625 44.53125 7.625 
Q 43.015625 5.765625 41.015625 4.203125 
Q 39.015625 2.640625 36.640625 1.484375 
Q 34.28125 0.34375 31.546875 -0.3125 
Q 28.8125 -0.984375 25.828125 -0.984375 
Q 22.125 -0.984375 18.921875 0.09375 
Q 15.71875 1.171875 13.34375 3.125 
Q 10.984375 5.078125 9.640625 7.828125 
Q 8.296875 10.59375 8.296875 14.015625 
Q 8.296875 18.5625 10.296875 21.734375 
Q 12.3125 24.90625 15.71875 26.875 
Q 19.140625 28.859375 23.625 29.78125 
Q 28.125 30.71875 33.0625 30.71875 
L 44.484375 30.71875 
L 44.484375 36.71875 
Q 44.4375 39.703125 43.3125 41.96875 
Q 42.1875 44.234375 40.25 45.765625 
Q 38.328125 47.3125 35.671875 48.09375 
Q 33.015625 48.875 29.890625 48.875 
Q 27.046875 48.875 24.484375 48.140625 
Q 21.921875 47.40625 19.9375 46.03125 
Q 17.96875 44.671875 16.75 42.6875 
Q 15.53125 40.71875 15.4375 38.234375 
L 9.578125 38.28125 
Q 9.71875 41.65625 11.34375 44.484375 
Q 12.984375 47.3125 15.765625 49.390625 
Q 18.5625 51.46875 22.234375 52.640625 
Q 25.921875 53.8125 30.125 53.8125 
Q 34.328125 53.8125 38.015625 52.734375 
Q 41.703125 51.65625 44.40625 49.5 
Q 47.125 47.359375 48.703125 44.140625 
Q 50.296875 40.921875 50.34375 36.625 
L 50.34375 11.03125 
Q 50.34375 8.40625 50.796875 5.71875 
Q 51.265625 3.03125 51.953125 0.59375 
L 52 0 
z
M 26.46875 4.203125 
Q 29.546875 4.15625 32.34375 4.9375 
Q 35.15625 5.71875 37.5 7.109375 
Q 39.84375 8.5 41.640625 10.421875 
Q 43.453125 12.359375 44.484375 14.65625 
L 44.484375 26.21875 
L 33.84375 26.21875 
Q 29.984375 26.21875 26.421875 25.625 
Q 22.859375 25.046875 20.125 23.703125 
Q 17.390625 22.359375 15.75 20.109375 
Q 14.109375 17.875 14.109375 14.5 
Q 14.109375 12.109375 15.078125 10.203125 
Q 16.0625 8.296875 17.71875 6.953125 
Q 19.390625 5.609375 21.625 4.90625 
Q 23.875 4.203125 26.46875 4.203125 
z
" id="RobotoMono-Light-97"/>
     </defs>
     <g style="fill:#262626;" transform="translate(123.43125 33.6)scale(0.16 -0.16)">
      <use xlink:href="#RobotoMono-Light-114"/>
      <use x="60.009766" xlink:href="#RobotoMono-Light-97"/>
      <use x="120.019531" xlink:href="#RobotoMono-Light-119"/>
     </g>
    </g>
    <g id="line2d_30">
     <path d="M 78.63125 51.25 
L 110.63125 51.25 
" style="fill:none;stroke:#ffffff;stroke-linecap:round;stroke-width:1.5;"/>
    </g>
    <g id="line2d_31">
     <defs>
      <path d="M -5 5 
L 5 5 
L 5 -5 
L -5 -5 
z
" id="m3d833d11f3" style="stroke:#ffffff;stroke-linejoin:miter;"/>
     </defs>
     <g>
      <use style="stroke:#ffffff;stroke-linejoin:miter;" x="94.63125" xlink:href="#m3d833d11f3" y="51.25"/>
     </g>
    </g>
    <g id="text_17">
     <!-- calculated -->
     <defs>
      <path d="M 31.984375 -0.984375 
Q 26.46875 -0.984375 21.921875 1.0625 
Q 17.390625 3.125 14.140625 6.640625 
Q 10.890625 10.15625 9.109375 14.859375 
Q 7.328125 19.578125 7.28125 24.90625 
L 7.28125 27 
Q 7.328125 32.671875 9.15625 37.546875 
Q 10.984375 42.4375 14.15625 46.046875 
Q 17.328125 49.65625 21.625 51.734375 
Q 25.921875 53.8125 30.859375 53.8125 
Q 36.140625 53.8125 40.1875 51.90625 
Q 44.234375 50 46.984375 46.703125 
Q 49.75 43.40625 51.1875 39.015625 
Q 52.640625 34.625 52.6875 29.59375 
L 52.6875 26.03125 
L 13.140625 26.03125 
L 13.140625 24.90625 
Q 13.1875 20.75 14.546875 16.96875 
Q 15.921875 13.1875 18.40625 10.296875 
Q 20.90625 7.421875 24.421875 5.6875 
Q 27.9375 3.953125 32.234375 3.953125 
Q 37.109375 3.90625 41.0625 5.765625 
Q 45.015625 7.625 47.796875 11.140625 
L 51.515625 8.34375 
Q 50.046875 6.296875 48.046875 4.5625 
Q 46.046875 2.828125 43.578125 1.609375 
Q 41.109375 0.390625 38.171875 -0.296875 
Q 35.25 -0.984375 31.984375 -0.984375 
z
M 30.859375 48.828125 
Q 27.296875 48.828125 24.3125 47.484375 
Q 21.34375 46.140625 19.09375 43.75 
Q 16.84375 41.359375 15.375 38.109375 
Q 13.921875 34.859375 13.375 31 
L 46.828125 31 
L 46.828125 31.640625 
Q 46.734375 34.90625 45.625 38 
Q 44.53125 41.109375 42.5 43.5 
Q 40.484375 45.90625 37.546875 47.359375 
Q 34.625 48.828125 30.859375 48.828125 
z
" id="RobotoMono-Light-101"/>
      <path d="M 7.671875 26.90625 
Q 7.671875 32.171875 8.984375 37.03125 
Q 10.296875 41.890625 12.90625 45.625 
Q 15.53125 49.359375 19.453125 51.578125 
Q 23.390625 53.8125 28.71875 53.8125 
Q 33.734375 53.8125 37.71875 51.65625 
Q 41.703125 49.515625 44.390625 45.65625 
L 44.390625 75 
L 50.203125 75 
L 50.203125 0 
L 44.734375 0 
L 44.484375 6.890625 
Q 41.703125 3.078125 37.640625 1.046875 
Q 33.59375 -0.984375 28.609375 -0.984375 
Q 23.390625 -0.984375 19.453125 1.28125 
Q 15.53125 3.5625 12.90625 7.296875 
Q 10.296875 11.03125 8.984375 15.890625 
Q 7.671875 20.75 7.671875 25.875 
z
M 13.578125 25.875 
Q 13.578125 21.921875 14.421875 18.015625 
Q 15.28125 14.109375 17.1875 11 
Q 19.09375 7.90625 22.171875 6 
Q 25.25 4.109375 29.6875 4.109375 
Q 32.171875 4.109375 34.390625 4.734375 
Q 36.625 5.375 38.5 6.5625 
Q 40.375 7.765625 41.859375 9.453125 
Q 43.359375 11.140625 44.390625 13.234375 
L 44.390625 38.8125 
Q 43.40625 41.015625 41.96875 42.8125 
Q 40.53125 44.625 38.671875 45.9375 
Q 36.8125 47.265625 34.5625 48 
Q 32.328125 48.734375 29.78125 48.734375 
Q 25.296875 48.734375 22.21875 46.796875 
Q 19.140625 44.875 17.203125 41.765625 
Q 15.28125 38.671875 14.421875 34.765625 
Q 13.578125 30.859375 13.578125 26.90625 
z
" id="RobotoMono-Light-100"/>
     </defs>
     <g style="fill:#262626;" transform="translate(123.43125 56.85)scale(0.16 -0.16)">
      <use xlink:href="#RobotoMono-Light-99"/>
      <use x="60.009766" xlink:href="#RobotoMono-Light-97"/>
      <use x="120.019531" xlink:href="#RobotoMono-Light-108"/>
      <use x="180.029297" xlink:href="#RobotoMono-Light-99"/>
      <use x="240.039062" xlink:href="#RobotoMono-Light-117"/>
      <use x="300.048828" xlink:href="#RobotoMono-Light-108"/>
      <use x="360.058594" xlink:href="#RobotoMono-Light-97"/>
      <use x="420.068359" xlink:href="#RobotoMono-Light-116"/>
      <use x="480.078125" xlink:href="#RobotoMono-Light-101"/>
      <use x="540.087891" xlink:href="#RobotoMono-Light-100"/>
     </g>
    </g>
   </g>
  </g>
 </g>
 <defs>
  <clipPath id="pcc48f611ff">
   <rect height="815.4" width="837" x="64.23125" y="7.2"/>
  </clipPath>
 </defs>
</svg>
