<?xml version="1.0" encoding="utf-8" standalone="no"?>
<!DOCTYPE svg PUBLIC "-//W3C//DTD SVG 1.1//EN"
  "http://www.w3.org/Graphics/SVG/1.1/DTD/svg11.dtd">
<!-- Created with matplotlib (https://matplotlib.org/) -->
<svg height="457.490625pt" version="1.1" viewBox="0 0 896.6 457.490625" width="896.6pt" xmlns="http://www.w3.org/2000/svg" xmlns:xlink="http://www.w3.org/1999/xlink">
 <defs>
  <style type="text/css">
*{stroke-linecap:butt;stroke-linejoin:round;}
  </style>
 </defs>
 <g id="figure_1">
  <g id="patch_1">
   <path d="M 0 457.490625 
L 896.6 457.490625 
L 896.6 0 
L 0 0 
z
" style="fill:#ffffff;"/>
  </g>
  <g id="axes_1">
   <g id="patch_2">
    <path d="M 38.5 428.146875 
L 875.5 428.146875 
L 875.5 20.446875 
L 38.5 20.446875 
z
" style="fill:#ffffff;"/>
   </g>
   <g id="matplotlib.axis_1">
    <g id="xtick_1">
     <g id="line2d_1">
      <path clip-path="url(#pb2c84a1f98)" d="M 38.5 428.146875 
L 38.5 20.446875 
" style="fill:none;stroke:#cccccc;stroke-linecap:round;stroke-width:0.8;"/>
     </g>
     <g id="line2d_2"/>
     <g id="text_1">
      <!-- 0.0 -->
      <defs>
       <path d="M 51.703125 34.421875 
Q 51.703125 24.515625 49.828125 17.75 
Q 47.953125 10.984375 44.703125 6.8125 
Q 41.453125 2.640625 37.0625 0.828125 
Q 32.671875 -0.984375 27.6875 -0.984375 
Q 22.65625 -0.984375 18.3125 0.828125 
Q 13.96875 2.640625 10.765625 6.78125 
Q 7.5625 10.9375 5.734375 17.703125 
Q 3.90625 24.46875 3.90625 34.421875 
Q 3.90625 44.828125 5.734375 51.640625 
Q 7.5625 58.453125 10.78125 62.5 
Q 14.015625 66.546875 18.40625 68.1875 
Q 22.796875 69.828125 27.984375 69.828125 
Q 32.90625 69.828125 37.21875 68.1875 
Q 41.546875 66.546875 44.765625 62.5 
Q 48 58.453125 49.84375 51.640625 
Q 51.703125 44.828125 51.703125 34.421875 
z
M 42.78125 34.421875 
Q 42.78125 42.625 41.796875 48.0625 
Q 40.828125 53.515625 38.921875 56.765625 
Q 37.015625 60.015625 34.25 61.359375 
Q 31.5 62.703125 27.984375 62.703125 
Q 24.265625 62.703125 21.4375 61.328125 
Q 18.609375 59.96875 16.671875 56.71875 
Q 14.75 53.46875 13.765625 48.015625 
Q 12.796875 42.578125 12.796875 34.421875 
Q 12.796875 26.515625 13.796875 21.09375 
Q 14.796875 15.671875 16.71875 12.375 
Q 18.65625 9.078125 21.4375 7.640625 
Q 24.21875 6.203125 27.78125 6.203125 
Q 31.25 6.203125 34.03125 7.640625 
Q 36.8125 9.078125 38.734375 12.375 
Q 40.671875 15.671875 41.71875 21.09375 
Q 42.78125 26.515625 42.78125 34.421875 
z
" id="LiberationSans-48"/>
       <path d="M 9.125 0 
L 9.125 10.6875 
L 18.65625 10.6875 
L 18.65625 0 
z
" id="LiberationSans-46"/>
      </defs>
      <g style="fill:#262626;" transform="translate(24.6 446.140625)scale(0.2 -0.2)">
       <use xlink:href="#LiberationSans-48"/>
       <use x="55.615234" xlink:href="#LiberationSans-46"/>
       <use x="83.398438" xlink:href="#LiberationSans-48"/>
      </g>
     </g>
    </g>
    <g id="xtick_2">
     <g id="line2d_3">
      <path clip-path="url(#pb2c84a1f98)" d="M 205.9 428.146875 
L 205.9 20.446875 
" style="fill:none;stroke:#cccccc;stroke-linecap:round;stroke-width:0.8;"/>
     </g>
     <g id="line2d_4"/>
     <g id="text_2">
      <!-- 0.2 -->
      <defs>
       <path d="M 5.03125 0 
L 5.03125 6.203125 
Q 7.515625 11.921875 11.109375 16.28125 
Q 14.703125 20.65625 18.65625 24.1875 
Q 22.609375 27.734375 26.484375 30.765625 
Q 30.375 33.796875 33.5 36.8125 
Q 36.625 39.84375 38.546875 43.15625 
Q 40.484375 46.484375 40.484375 50.6875 
Q 40.484375 53.609375 39.59375 55.828125 
Q 38.71875 58.0625 37.0625 59.5625 
Q 35.40625 61.078125 33.078125 61.828125 
Q 30.765625 62.59375 27.9375 62.59375 
Q 25.296875 62.59375 22.96875 61.859375 
Q 20.65625 61.140625 18.84375 59.671875 
Q 17.046875 58.203125 15.890625 56.03125 
Q 14.75 53.859375 14.40625 50.984375 
L 5.421875 51.8125 
Q 5.859375 55.515625 7.46875 58.78125 
Q 9.078125 62.0625 11.90625 64.53125 
Q 14.75 67 18.71875 68.40625 
Q 22.703125 69.828125 27.9375 69.828125 
Q 33.0625 69.828125 37.0625 68.609375 
Q 41.0625 67.390625 43.8125 64.984375 
Q 46.578125 62.59375 48.046875 59.078125 
Q 49.515625 55.5625 49.515625 50.984375 
Q 49.515625 47.515625 48.265625 44.390625 
Q 47.015625 41.265625 44.9375 38.421875 
Q 42.875 35.59375 40.140625 32.953125 
Q 37.40625 30.328125 34.421875 27.8125 
Q 31.453125 25.296875 28.421875 22.828125 
Q 25.390625 20.359375 22.71875 17.859375 
Q 20.0625 15.375 17.96875 12.8125 
Q 15.875 10.25 14.703125 7.46875 
L 50.59375 7.46875 
L 50.59375 0 
z
" id="LiberationSans-50"/>
      </defs>
      <g style="fill:#262626;" transform="translate(192 446.140625)scale(0.2 -0.2)">
       <use xlink:href="#LiberationSans-48"/>
       <use x="55.615234" xlink:href="#LiberationSans-46"/>
       <use x="83.398438" xlink:href="#LiberationSans-50"/>
      </g>
     </g>
    </g>
    <g id="xtick_3">
     <g id="line2d_5">
      <path clip-path="url(#pb2c84a1f98)" d="M 373.3 428.146875 
L 373.3 20.446875 
" style="fill:none;stroke:#cccccc;stroke-linecap:round;stroke-width:0.8;"/>
     </g>
     <g id="line2d_6"/>
     <g id="text_3">
      <!-- 0.4 -->
      <defs>
       <path d="M 43.015625 15.578125 
L 43.015625 0 
L 34.71875 0 
L 34.71875 15.578125 
L 2.296875 15.578125 
L 2.296875 22.40625 
L 33.796875 68.796875 
L 43.015625 68.796875 
L 43.015625 22.515625 
L 52.6875 22.515625 
L 52.6875 15.578125 
z
M 34.71875 58.890625 
Q 34.625 58.640625 34.234375 57.9375 
Q 33.84375 57.234375 33.34375 56.34375 
Q 32.859375 55.46875 32.34375 54.5625 
Q 31.84375 53.65625 31.453125 53.078125 
L 13.8125 27.09375 
Q 13.578125 26.703125 13.109375 26.0625 
Q 12.640625 25.4375 12.15625 24.78125 
Q 11.671875 24.125 11.171875 23.484375 
Q 10.6875 22.859375 10.40625 22.515625 
L 34.71875 22.515625 
z
" id="LiberationSans-52"/>
      </defs>
      <g style="fill:#262626;" transform="translate(359.4 446.140625)scale(0.2 -0.2)">
       <use xlink:href="#LiberationSans-48"/>
       <use x="55.615234" xlink:href="#LiberationSans-46"/>
       <use x="83.398438" xlink:href="#LiberationSans-52"/>
      </g>
     </g>
    </g>
    <g id="xtick_4">
     <g id="line2d_7">
      <path clip-path="url(#pb2c84a1f98)" d="M 540.7 428.146875 
L 540.7 20.446875 
" style="fill:none;stroke:#cccccc;stroke-linecap:round;stroke-width:0.8;"/>
     </g>
     <g id="line2d_8"/>
     <g id="text_4">
      <!-- 0.6 -->
      <defs>
       <path d="M 51.21875 22.515625 
Q 51.21875 17.328125 49.78125 13 
Q 48.34375 8.6875 45.53125 5.578125 
Q 42.71875 2.484375 38.5625 0.75 
Q 34.421875 -0.984375 29 -0.984375 
Q 23 -0.984375 18.5 1.3125 
Q 14.015625 3.609375 11.03125 7.921875 
Q 8.0625 12.25 6.5625 18.53125 
Q 5.078125 24.8125 5.078125 32.8125 
Q 5.078125 42 6.765625 48.921875 
Q 8.453125 55.859375 11.625 60.5 
Q 14.796875 65.140625 19.359375 67.484375 
Q 23.921875 69.828125 29.6875 69.828125 
Q 33.203125 69.828125 36.28125 69.09375 
Q 39.359375 68.359375 41.875 66.71875 
Q 44.390625 65.09375 46.28125 62.40625 
Q 48.1875 59.71875 49.3125 55.8125 
L 40.921875 54.296875 
Q 39.546875 58.734375 36.546875 60.71875 
Q 33.546875 62.703125 29.59375 62.703125 
Q 25.984375 62.703125 23.046875 60.984375 
Q 20.125 59.28125 18.0625 55.875 
Q 16.015625 52.484375 14.90625 47.359375 
Q 13.8125 42.234375 13.8125 35.40625 
Q 16.21875 39.84375 20.5625 42.15625 
Q 24.90625 44.484375 30.515625 44.484375 
Q 35.203125 44.484375 39.015625 42.96875 
Q 42.828125 41.453125 45.53125 38.59375 
Q 48.25 35.75 49.734375 31.671875 
Q 51.21875 27.59375 51.21875 22.515625 
z
M 42.28125 22.125 
Q 42.28125 25.6875 41.40625 28.5625 
Q 40.53125 31.453125 38.765625 33.46875 
Q 37.015625 35.5 34.421875 36.59375 
Q 31.84375 37.703125 28.421875 37.703125 
Q 26.03125 37.703125 23.578125 36.984375 
Q 21.140625 36.28125 19.15625 34.6875 
Q 17.1875 33.109375 15.9375 30.515625 
Q 14.703125 27.9375 14.703125 24.21875 
Q 14.703125 20.40625 15.671875 17.109375 
Q 16.65625 13.8125 18.484375 11.375 
Q 20.3125 8.9375 22.890625 7.515625 
Q 25.484375 6.109375 28.71875 6.109375 
Q 31.890625 6.109375 34.40625 7.203125 
Q 36.921875 8.296875 38.671875 10.375 
Q 40.4375 12.453125 41.359375 15.421875 
Q 42.28125 18.40625 42.28125 22.125 
z
" id="LiberationSans-54"/>
      </defs>
      <g style="fill:#262626;" transform="translate(526.8 446.140625)scale(0.2 -0.2)">
       <use xlink:href="#LiberationSans-48"/>
       <use x="55.615234" xlink:href="#LiberationSans-46"/>
       <use x="83.398438" xlink:href="#LiberationSans-54"/>
      </g>
     </g>
    </g>
    <g id="xtick_5">
     <g id="line2d_9">
      <path clip-path="url(#pb2c84a1f98)" d="M 708.1 428.146875 
L 708.1 20.446875 
" style="fill:none;stroke:#cccccc;stroke-linecap:round;stroke-width:0.8;"/>
     </g>
     <g id="line2d_10"/>
     <g id="text_5">
      <!-- 0.8 -->
      <defs>
       <path d="M 51.265625 19.1875 
Q 51.265625 14.796875 49.875 11.109375 
Q 48.484375 7.421875 45.625 4.734375 
Q 42.78125 2.046875 38.328125 0.53125 
Q 33.890625 -0.984375 27.828125 -0.984375 
Q 21.78125 -0.984375 17.359375 0.53125 
Q 12.9375 2.046875 10.03125 4.703125 
Q 7.125 7.375 5.734375 11.0625 
Q 4.34375 14.75 4.34375 19.09375 
Q 4.34375 22.859375 5.484375 25.78125 
Q 6.640625 28.71875 8.5625 30.828125 
Q 10.5 32.953125 12.96875 34.25 
Q 15.4375 35.546875 18.0625 35.984375 
L 18.0625 36.1875 
Q 15.1875 36.859375 12.90625 38.375 
Q 10.640625 39.890625 9.09375 42.015625 
Q 7.5625 44.140625 6.75 46.71875 
Q 5.953125 49.3125 5.953125 52.203125 
Q 5.953125 55.8125 7.34375 59 
Q 8.734375 62.203125 11.46875 64.625 
Q 14.203125 67.046875 18.25 68.4375 
Q 22.3125 69.828125 27.640625 69.828125 
Q 33.25 69.828125 37.375 68.40625 
Q 41.5 67 44.203125 64.578125 
Q 46.921875 62.15625 48.234375 58.9375 
Q 49.5625 55.71875 49.5625 52.09375 
Q 49.5625 49.265625 48.75 46.671875 
Q 47.953125 44.09375 46.40625 41.96875 
Q 44.875 39.84375 42.59375 38.34375 
Q 40.328125 36.859375 37.359375 36.28125 
L 37.359375 36.078125 
Q 40.328125 35.59375 42.859375 34.296875 
Q 45.40625 33.015625 47.265625 30.890625 
Q 49.125 28.765625 50.1875 25.828125 
Q 51.265625 22.90625 51.265625 19.1875 
z
M 40.4375 51.609375 
Q 40.4375 54.203125 39.765625 56.34375 
Q 39.109375 58.5 37.59375 60.03125 
Q 36.078125 61.578125 33.640625 62.421875 
Q 31.203125 63.28125 27.640625 63.28125 
Q 24.171875 63.28125 21.78125 62.421875 
Q 19.390625 61.578125 17.84375 60.03125 
Q 16.3125 58.5 15.625 56.34375 
Q 14.9375 54.203125 14.9375 51.609375 
Q 14.9375 49.5625 15.46875 47.40625 
Q 16.015625 45.265625 17.421875 43.5 
Q 18.84375 41.75 21.328125 40.625 
Q 23.828125 39.5 27.734375 39.5 
Q 31.890625 39.5 34.40625 40.625 
Q 36.921875 41.75 38.25 43.5 
Q 39.59375 45.265625 40.015625 47.40625 
Q 40.4375 49.5625 40.4375 51.609375 
z
M 42.140625 20.015625 
Q 42.140625 22.515625 41.453125 24.828125 
Q 40.765625 27.15625 39.109375 28.9375 
Q 37.453125 30.71875 34.640625 31.8125 
Q 31.84375 32.90625 27.640625 32.90625 
Q 23.78125 32.90625 21.0625 31.8125 
Q 18.359375 30.71875 16.671875 28.90625 
Q 14.984375 27.09375 14.203125 24.71875 
Q 13.421875 22.359375 13.421875 19.828125 
Q 13.421875 16.65625 14.203125 14.03125 
Q 14.984375 11.421875 16.6875 9.546875 
Q 18.40625 7.671875 21.1875 6.640625 
Q 23.96875 5.609375 27.9375 5.609375 
Q 31.9375 5.609375 34.671875 6.640625 
Q 37.40625 7.671875 39.0625 9.546875 
Q 40.71875 11.421875 41.421875 14.078125 
Q 42.140625 16.75 42.140625 20.015625 
z
" id="LiberationSans-56"/>
      </defs>
      <g style="fill:#262626;" transform="translate(694.2 446.140625)scale(0.2 -0.2)">
       <use xlink:href="#LiberationSans-48"/>
       <use x="55.615234" xlink:href="#LiberationSans-46"/>
       <use x="83.398438" xlink:href="#LiberationSans-56"/>
      </g>
     </g>
    </g>
    <g id="xtick_6">
     <g id="line2d_11">
      <path clip-path="url(#pb2c84a1f98)" d="M 875.5 428.146875 
L 875.5 20.446875 
" style="fill:none;stroke:#cccccc;stroke-linecap:round;stroke-width:0.8;"/>
     </g>
     <g id="line2d_12"/>
     <g id="text_6">
      <!-- 1.0 -->
      <defs>
       <path d="M 7.625 0 
L 7.625 7.46875 
L 25.140625 7.46875 
L 25.140625 60.40625 
L 9.625 49.3125 
L 9.625 57.625 
L 25.875 68.796875 
L 33.984375 68.796875 
L 33.984375 7.46875 
L 50.734375 7.46875 
L 50.734375 0 
z
" id="LiberationSans-49"/>
      </defs>
      <g style="fill:#262626;" transform="translate(861.6 446.140625)scale(0.2 -0.2)">
       <use xlink:href="#LiberationSans-49"/>
       <use x="55.615234" xlink:href="#LiberationSans-46"/>
       <use x="83.398438" xlink:href="#LiberationSans-48"/>
      </g>
     </g>
    </g>
   </g>
   <g id="matplotlib.axis_2">
    <g id="ytick_1">
     <g id="line2d_13">
      <path clip-path="url(#pb2c84a1f98)" d="M 38.5 428.146875 
L 875.5 428.146875 
" style="fill:none;stroke:#cccccc;stroke-linecap:round;stroke-width:0.8;"/>
     </g>
     <g id="line2d_14"/>
     <g id="text_7">
      <!-- 0.0 -->
      <g style="fill:#262626;" transform="translate(7.2 435.39375)scale(0.2 -0.2)">
       <use xlink:href="#LiberationSans-48"/>
       <use x="55.615234" xlink:href="#LiberationSans-46"/>
       <use x="83.398438" xlink:href="#LiberationSans-48"/>
      </g>
     </g>
    </g>
    <g id="ytick_2">
     <g id="line2d_15">
      <path clip-path="url(#pb2c84a1f98)" d="M 38.5 346.606875 
L 875.5 346.606875 
" style="fill:none;stroke:#cccccc;stroke-linecap:round;stroke-width:0.8;"/>
     </g>
     <g id="line2d_16"/>
     <g id="text_8">
      <!-- 0.2 -->
      <g style="fill:#262626;" transform="translate(7.2 353.85375)scale(0.2 -0.2)">
       <use xlink:href="#LiberationSans-48"/>
       <use x="55.615234" xlink:href="#LiberationSans-46"/>
       <use x="83.398438" xlink:href="#LiberationSans-50"/>
      </g>
     </g>
    </g>
    <g id="ytick_3">
     <g id="line2d_17">
      <path clip-path="url(#pb2c84a1f98)" d="M 38.5 265.066875 
L 875.5 265.066875 
" style="fill:none;stroke:#cccccc;stroke-linecap:round;stroke-width:0.8;"/>
     </g>
     <g id="line2d_18"/>
     <g id="text_9">
      <!-- 0.4 -->
      <g style="fill:#262626;" transform="translate(7.2 272.31375)scale(0.2 -0.2)">
       <use xlink:href="#LiberationSans-48"/>
       <use x="55.615234" xlink:href="#LiberationSans-46"/>
       <use x="83.398438" xlink:href="#LiberationSans-52"/>
      </g>
     </g>
    </g>
    <g id="ytick_4">
     <g id="line2d_19">
      <path clip-path="url(#pb2c84a1f98)" d="M 38.5 183.526875 
L 875.5 183.526875 
" style="fill:none;stroke:#cccccc;stroke-linecap:round;stroke-width:0.8;"/>
     </g>
     <g id="line2d_20"/>
     <g id="text_10">
      <!-- 0.6 -->
      <g style="fill:#262626;" transform="translate(7.2 190.77375)scale(0.2 -0.2)">
       <use xlink:href="#LiberationSans-48"/>
       <use x="55.615234" xlink:href="#LiberationSans-46"/>
       <use x="83.398438" xlink:href="#LiberationSans-54"/>
      </g>
     </g>
    </g>
    <g id="ytick_5">
     <g id="line2d_21">
      <path clip-path="url(#pb2c84a1f98)" d="M 38.5 101.986875 
L 875.5 101.986875 
" style="fill:none;stroke:#cccccc;stroke-linecap:round;stroke-width:0.8;"/>
     </g>
     <g id="line2d_22"/>
     <g id="text_11">
      <!-- 0.8 -->
      <g style="fill:#262626;" transform="translate(7.2 109.23375)scale(0.2 -0.2)">
       <use xlink:href="#LiberationSans-48"/>
       <use x="55.615234" xlink:href="#LiberationSans-46"/>
       <use x="83.398438" xlink:href="#LiberationSans-56"/>
      </g>
     </g>
    </g>
    <g id="ytick_6">
     <g id="line2d_23">
      <path clip-path="url(#pb2c84a1f98)" d="M 38.5 20.446875 
L 875.5 20.446875 
" style="fill:none;stroke:#cccccc;stroke-linecap:round;stroke-width:0.8;"/>
     </g>
     <g id="line2d_24"/>
     <g id="text_12">
      <!-- 1.0 -->
      <g style="fill:#262626;" transform="translate(7.2 27.69375)scale(0.2 -0.2)">
       <use xlink:href="#LiberationSans-49"/>
       <use x="55.615234" xlink:href="#LiberationSans-46"/>
       <use x="83.398438" xlink:href="#LiberationSans-48"/>
      </g>
     </g>
    </g>
   </g>
   <g id="patch_3">
    <path d="M 38.5 428.146875 
L 38.5 20.446875 
" style="fill:none;stroke:#cccccc;stroke-linecap:square;stroke-linejoin:miter;"/>
   </g>
   <g id="patch_4">
    <path d="M 875.5 428.146875 
L 875.5 20.446875 
" style="fill:none;stroke:#cccccc;stroke-linecap:square;stroke-linejoin:miter;"/>
   </g>
   <g id="patch_5">
    <path d="M 38.5 428.146875 
L 875.5 428.146875 
" style="fill:none;stroke:#cccccc;stroke-linecap:square;stroke-linejoin:miter;"/>
   </g>
   <g id="patch_6">
    <path d="M 38.5 20.446875 
L 875.5 20.446875 
" style="fill:none;stroke:#cccccc;stroke-linecap:square;stroke-linejoin:miter;"/>
   </g>
   <g id="text_13">
    <!-- Clearance -->
    <defs>
     <path d="M 38.8125 10.359375 
Q 42.875 10.359375 45.828125 11.5 
Q 48.78125 12.640625 50.953125 14.5 
Q 53.125 16.359375 54.5625 18.703125 
Q 56 21.046875 56.9375 23.4375 
L 69.484375 18.703125 
Q 67.96875 14.984375 65.53125 11.421875 
Q 63.09375 7.859375 59.421875 5.125 
Q 55.765625 2.390625 50.703125 0.703125 
Q 45.65625 -0.984375 38.8125 -0.984375 
Q 29.890625 -0.984375 23.34375 1.671875 
Q 16.796875 4.34375 12.515625 9.109375 
Q 8.25 13.875 6.171875 20.40625 
Q 4.109375 26.953125 4.109375 34.71875 
Q 4.109375 42.78125 6.171875 49.265625 
Q 8.25 55.765625 12.453125 60.328125 
Q 16.65625 64.890625 23.078125 67.359375 
Q 29.5 69.828125 38.1875 69.828125 
Q 44.921875 69.828125 49.96875 68.40625 
Q 55.03125 67 58.71875 64.421875 
Q 62.40625 61.859375 64.8125 58.375 
Q 67.234375 54.890625 68.609375 50.6875 
L 55.90625 47.21875 
Q 55.21875 49.421875 53.796875 51.4375 
Q 52.390625 53.46875 50.21875 55.03125 
Q 48.046875 56.59375 45.109375 57.546875 
Q 42.1875 58.5 38.484375 58.5 
Q 33.25 58.5 29.484375 56.8125 
Q 25.734375 55.125 23.3125 52 
Q 20.90625 48.875 19.75 44.5 
Q 18.609375 40.140625 18.609375 34.71875 
Q 18.609375 29.34375 19.75 24.875 
Q 20.90625 20.40625 23.34375 17.1875 
Q 25.78125 13.96875 29.609375 12.15625 
Q 33.453125 10.359375 38.8125 10.359375 
z
" id="LiberationSans-Bold-67"/>
     <path d="M 6.984375 0 
L 6.984375 72.46875 
L 20.703125 72.46875 
L 20.703125 0 
z
" id="LiberationSans-Bold-108"/>
     <path d="M 28.609375 -0.984375 
Q 22.90625 -0.984375 18.328125 0.703125 
Q 13.765625 2.390625 10.546875 5.828125 
Q 7.328125 9.28125 5.609375 14.46875 
Q 3.90625 19.671875 3.90625 26.65625 
Q 3.90625 34.234375 5.921875 39.40625 
Q 7.953125 44.578125 11.390625 47.78125 
Q 14.84375 50.984375 19.328125 52.390625 
Q 23.828125 53.8125 28.8125 53.8125 
Q 35.0625 53.8125 39.46875 51.640625 
Q 43.890625 49.46875 46.71875 45.5625 
Q 49.5625 41.65625 50.875 36.203125 
Q 52.203125 30.765625 52.203125 24.171875 
L 52.203125 23.78125 
L 18.3125 23.78125 
Q 18.3125 20.453125 18.890625 17.59375 
Q 19.484375 14.75 20.796875 12.671875 
Q 22.125 10.59375 24.21875 9.390625 
Q 26.3125 8.203125 29.296875 8.203125 
Q 32.90625 8.203125 35.203125 9.734375 
Q 37.5 11.28125 38.484375 14.5 
L 51.421875 13.375 
Q 50.53125 11.140625 48.9375 8.59375 
Q 47.359375 6.0625 44.71875 3.9375 
Q 42.09375 1.8125 38.15625 0.40625 
Q 34.234375 -0.984375 28.609375 -0.984375 
z
M 28.609375 45.171875 
Q 26.515625 45.171875 24.6875 44.453125 
Q 22.859375 43.75 21.515625 42.203125 
Q 20.171875 40.671875 19.328125 38.234375 
Q 18.5 35.796875 18.40625 32.375 
L 38.921875 32.375 
Q 38.53125 38.765625 35.84375 41.96875 
Q 33.15625 45.171875 28.609375 45.171875 
z
" id="LiberationSans-Bold-101"/>
     <path d="M 19.1875 -0.984375 
Q 15.375 -0.984375 12.375 0.0625 
Q 9.375 1.125 7.265625 3.140625 
Q 5.171875 5.171875 4.046875 8.15625 
Q 2.9375 11.140625 2.9375 14.9375 
Q 2.9375 19.625 4.5625 22.828125 
Q 6.203125 26.03125 9.03125 28 
Q 11.859375 29.984375 15.671875 30.875 
Q 19.484375 31.78125 23.78125 31.84375 
L 35.15625 32.03125 
L 35.15625 34.71875 
Q 35.15625 37.59375 34.640625 39.515625 
Q 34.125 41.453125 33.140625 42.671875 
Q 32.171875 43.890625 30.734375 44.40625 
Q 29.296875 44.921875 27.4375 44.921875 
Q 25.734375 44.921875 24.390625 44.578125 
Q 23.046875 44.234375 22.0625 43.375 
Q 21.09375 42.53125 20.484375 41.09375 
Q 19.875 39.65625 19.625 37.453125 
L 5.328125 38.140625 
Q 5.90625 41.609375 7.46875 44.453125 
Q 9.03125 47.3125 11.78125 49.40625 
Q 14.546875 51.515625 18.578125 52.65625 
Q 22.609375 53.8125 28.03125 53.8125 
Q 32.953125 53.8125 36.8125 52.59375 
Q 40.671875 51.375 43.359375 48.953125 
Q 46.046875 46.53125 47.453125 43.015625 
Q 48.875 39.5 48.875 34.859375 
L 48.875 15.625 
Q 48.875 13.765625 49.046875 12.296875 
Q 49.21875 10.84375 49.671875 9.84375 
Q 50.140625 8.84375 51 8.328125 
Q 51.859375 7.8125 53.21875 7.8125 
Q 54.78125 7.8125 56.25 8.109375 
L 56.25 0.6875 
Q 55.03125 0.390625 54.046875 0.140625 
Q 53.078125 -0.09375 52.09375 -0.234375 
Q 51.125 -0.390625 50.015625 -0.484375 
Q 48.921875 -0.59375 47.46875 -0.59375 
Q 42.28125 -0.59375 39.8125 1.953125 
Q 37.359375 4.5 36.859375 9.421875 
L 36.578125 9.421875 
Q 33.84375 4.5 29.5625 1.75 
Q 25.296875 -0.984375 19.1875 -0.984375 
z
M 35.15625 24.46875 
L 28.125 24.359375 
Q 25.921875 24.265625 23.9375 24 
Q 21.96875 23.734375 20.484375 22.875 
Q 19 22.015625 18.109375 20.40625 
Q 17.234375 18.796875 17.234375 16.015625 
Q 17.234375 12.25 18.96875 10.421875 
Q 20.703125 8.59375 23.578125 8.59375 
Q 26.21875 8.59375 28.359375 9.71875 
Q 30.515625 10.84375 32 12.671875 
Q 33.5 14.5 34.328125 16.890625 
Q 35.15625 19.28125 35.15625 21.78125 
z
" id="LiberationSans-Bold-97"/>
     <path d="M 6.984375 0 
L 6.984375 40.4375 
Q 6.984375 42.140625 6.953125 44.046875 
Q 6.9375 45.953125 6.859375 47.6875 
Q 6.78125 49.421875 6.734375 50.8125 
Q 6.6875 52.203125 6.59375 52.828125 
L 19.671875 52.828125 
Q 19.78125 52.25 19.875 50.796875 
Q 19.96875 49.359375 20.0625 47.65625 
Q 20.171875 45.953125 20.234375 44.265625 
Q 20.3125 42.578125 20.3125 41.546875 
L 20.515625 41.546875 
Q 21.53125 44.4375 22.546875 46.703125 
Q 23.578125 48.96875 24.96875 50.5625 
Q 26.375 52.15625 28.328125 53 
Q 30.28125 53.859375 33.15625 53.859375 
Q 34.375 53.859375 35.5625 53.640625 
Q 36.765625 53.421875 37.40625 53.125 
L 37.40625 41.65625 
Q 36.078125 41.9375 34.734375 42.15625 
Q 33.40625 42.390625 31.546875 42.390625 
Q 26.421875 42.390625 23.5625 38.234375 
Q 20.703125 34.078125 20.703125 25.921875 
L 20.703125 0 
z
" id="LiberationSans-Bold-114"/>
     <path d="M 41.21875 0 
L 41.21875 29.640625 
Q 41.21875 32.71875 40.71875 35.28125 
Q 40.234375 37.84375 39.109375 39.671875 
Q 37.984375 41.5 36.171875 42.53125 
Q 34.375 43.5625 31.78125 43.5625 
Q 29.296875 43.5625 27.265625 42.453125 
Q 25.25 41.359375 23.78125 39.328125 
Q 22.3125 37.3125 21.5 34.5 
Q 20.703125 31.6875 20.703125 28.328125 
L 20.703125 0 
L 6.984375 0 
L 6.984375 41.015625 
Q 6.984375 42.71875 6.953125 44.53125 
Q 6.9375 46.34375 6.859375 47.96875 
Q 6.78125 49.609375 6.734375 50.90625 
Q 6.6875 52.203125 6.59375 52.828125 
L 19.671875 52.828125 
Q 19.78125 52.25 19.875 50.953125 
Q 19.96875 49.65625 20.0625 48.09375 
Q 20.171875 46.53125 20.234375 44.96875 
Q 20.3125 43.40625 20.3125 42.328125 
L 20.515625 42.328125 
Q 23.296875 48.390625 27.484375 51.125 
Q 31.6875 53.859375 37.5 53.859375 
Q 42.28125 53.859375 45.578125 52.296875 
Q 48.875 50.734375 50.953125 48 
Q 53.03125 45.265625 53.953125 41.546875 
Q 54.890625 37.84375 54.890625 33.546875 
L 54.890625 0 
z
" id="LiberationSans-Bold-110"/>
     <path d="M 29 -0.984375 
Q 22.703125 -0.984375 17.984375 0.96875 
Q 13.28125 2.9375 10.15625 6.5 
Q 7.03125 10.0625 5.46875 15.0625 
Q 3.90625 20.0625 3.90625 26.125 
Q 3.90625 32.71875 5.609375 37.859375 
Q 7.328125 43.015625 10.546875 46.546875 
Q 13.765625 50.09375 18.46875 51.953125 
Q 23.1875 53.8125 29.203125 53.8125 
Q 34.328125 53.8125 38.296875 52.4375 
Q 42.28125 51.078125 45.15625 48.703125 
Q 48.046875 46.34375 49.828125 43.109375 
Q 51.609375 39.890625 52.296875 36.1875 
L 38.484375 35.5 
Q 37.890625 39.546875 35.546875 41.96875 
Q 33.203125 44.390625 28.90625 44.390625 
Q 23.390625 44.390625 20.84375 39.84375 
Q 18.3125 35.296875 18.3125 26.65625 
Q 18.3125 8.40625 29.109375 8.40625 
Q 33.015625 8.40625 35.640625 10.859375 
Q 38.28125 13.328125 38.921875 18.21875 
L 52.6875 17.578125 
Q 52.203125 13.921875 50.46875 10.578125 
Q 48.734375 7.234375 45.78125 4.65625 
Q 42.828125 2.09375 38.625 0.546875 
Q 34.421875 -0.984375 29 -0.984375 
z
" id="LiberationSans-Bold-99"/>
    </defs>
    <g style="fill:#262626;" transform="translate(433.097656 14.446875)scale(0.1 -0.1)">
     <use xlink:href="#LiberationSans-Bold-67"/>
     <use x="72.216797" xlink:href="#LiberationSans-Bold-108"/>
     <use x="100" xlink:href="#LiberationSans-Bold-101"/>
     <use x="155.615234" xlink:href="#LiberationSans-Bold-97"/>
     <use x="211.230469" xlink:href="#LiberationSans-Bold-114"/>
     <use x="250.146484" xlink:href="#LiberationSans-Bold-97"/>
     <use x="305.761719" xlink:href="#LiberationSans-Bold-110"/>
     <use x="366.845703" xlink:href="#LiberationSans-Bold-99"/>
     <use x="422.460938" xlink:href="#LiberationSans-Bold-101"/>
    </g>
   </g>
   <g id="legend_1"/>
  </g>
 </g>
 <defs>
  <clipPath id="pb2c84a1f98">
   <rect height="407.7" width="837" x="38.5" y="20.446875"/>
  </clipPath>
 </defs>
</svg>
