<?xml version="1.0" encoding="utf-8" standalone="no"?>
<!DOCTYPE svg PUBLIC "-//W3C//DTD SVG 1.1//EN"
  "http://www.w3.org/Graphics/SVG/1.1/DTD/svg11.dtd">
<!-- Created with matplotlib (https://matplotlib.org/) -->
<svg height="876.548867pt" version="1.1" viewBox="0 0 961.9 876.548867" width="961.9pt" xmlns="http://www.w3.org/2000/svg" xmlns:xlink="http://www.w3.org/1999/xlink">
 <defs>
  <style type="text/css">
*{stroke-linecap:butt;stroke-linejoin:round;}
  </style>
 </defs>
 <g id="figure_1">
  <g id="patch_1">
   <path d="M 0 876.548867 
L 961.9 876.548867 
L 961.9 0 
L 0 0 
z
" style="fill:#ffffff;"/>
  </g>
  <g id="axes_1">
   <g id="patch_2">
    <path d="M 117.7 824.205117 
L 954.7 824.205117 
L 954.7 8.805117 
L 117.7 8.805117 
z
" style="fill:#ffffff;"/>
   </g>
   <g id="matplotlib.axis_1">
    <g id="xtick_1">
     <g id="line2d_1"/>
     <g id="text_1">
      <!-- 0.000 -->
      <defs>
       <path d="M 51.703125 34.421875 
Q 51.703125 24.515625 49.828125 17.75 
Q 47.953125 10.984375 44.703125 6.8125 
Q 41.453125 2.640625 37.0625 0.828125 
Q 32.671875 -0.984375 27.6875 -0.984375 
Q 22.65625 -0.984375 18.3125 0.828125 
Q 13.96875 2.640625 10.765625 6.78125 
Q 7.5625 10.9375 5.734375 17.703125 
Q 3.90625 24.46875 3.90625 34.421875 
Q 3.90625 44.828125 5.734375 51.640625 
Q 7.5625 58.453125 10.78125 62.5 
Q 14.015625 66.546875 18.40625 68.1875 
Q 22.796875 69.828125 27.984375 69.828125 
Q 32.90625 69.828125 37.21875 68.1875 
Q 41.546875 66.546875 44.765625 62.5 
Q 48 58.453125 49.84375 51.640625 
Q 51.703125 44.828125 51.703125 34.421875 
z
M 42.78125 34.421875 
Q 42.78125 42.625 41.796875 48.0625 
Q 40.828125 53.515625 38.921875 56.765625 
Q 37.015625 60.015625 34.25 61.359375 
Q 31.5 62.703125 27.984375 62.703125 
Q 24.265625 62.703125 21.4375 61.328125 
Q 18.609375 59.96875 16.671875 56.71875 
Q 14.75 53.46875 13.765625 48.015625 
Q 12.796875 42.578125 12.796875 34.421875 
Q 12.796875 26.515625 13.796875 21.09375 
Q 14.796875 15.671875 16.71875 12.375 
Q 18.65625 9.078125 21.4375 7.640625 
Q 24.21875 6.203125 27.78125 6.203125 
Q 31.25 6.203125 34.03125 7.640625 
Q 36.8125 9.078125 38.734375 12.375 
Q 40.671875 15.671875 41.71875 21.09375 
Q 42.78125 26.515625 42.78125 34.421875 
z
" id="LiberationSans-48"/>
       <path d="M 9.125 0 
L 9.125 10.6875 
L 18.65625 10.6875 
L 18.65625 0 
z
" id="LiberationSans-46"/>
      </defs>
      <g style="fill:#262626;" transform="translate(92.678125 842.198867)scale(0.2 -0.2)">
       <use xlink:href="#LiberationSans-48"/>
       <use x="55.615234" xlink:href="#LiberationSans-46"/>
       <use x="83.398438" xlink:href="#LiberationSans-48"/>
       <use x="139.013672" xlink:href="#LiberationSans-48"/>
       <use x="194.628906" xlink:href="#LiberationSans-48"/>
      </g>
     </g>
    </g>
    <g id="xtick_2">
     <g id="line2d_2"/>
     <g id="text_2">
      <!-- 0.001 -->
      <defs>
       <path d="M 7.625 0 
L 7.625 7.46875 
L 25.140625 7.46875 
L 25.140625 60.40625 
L 9.625 49.3125 
L 9.625 57.625 
L 25.875 68.796875 
L 33.984375 68.796875 
L 33.984375 7.46875 
L 50.734375 7.46875 
L 50.734375 0 
z
" id="LiberationSans-49"/>
      </defs>
      <g style="fill:#262626;" transform="translate(198.963839 842.198867)scale(0.2 -0.2)">
       <use xlink:href="#LiberationSans-48"/>
       <use x="55.615234" xlink:href="#LiberationSans-46"/>
       <use x="83.398438" xlink:href="#LiberationSans-48"/>
       <use x="139.013672" xlink:href="#LiberationSans-48"/>
       <use x="194.628906" xlink:href="#LiberationSans-49"/>
      </g>
     </g>
    </g>
    <g id="xtick_3">
     <g id="line2d_3"/>
     <g id="text_3">
      <!-- 0.002 -->
      <defs>
       <path d="M 5.03125 0 
L 5.03125 6.203125 
Q 7.515625 11.921875 11.109375 16.28125 
Q 14.703125 20.65625 18.65625 24.1875 
Q 22.609375 27.734375 26.484375 30.765625 
Q 30.375 33.796875 33.5 36.8125 
Q 36.625 39.84375 38.546875 43.15625 
Q 40.484375 46.484375 40.484375 50.6875 
Q 40.484375 53.609375 39.59375 55.828125 
Q 38.71875 58.0625 37.0625 59.5625 
Q 35.40625 61.078125 33.078125 61.828125 
Q 30.765625 62.59375 27.9375 62.59375 
Q 25.296875 62.59375 22.96875 61.859375 
Q 20.65625 61.140625 18.84375 59.671875 
Q 17.046875 58.203125 15.890625 56.03125 
Q 14.75 53.859375 14.40625 50.984375 
L 5.421875 51.8125 
Q 5.859375 55.515625 7.46875 58.78125 
Q 9.078125 62.0625 11.90625 64.53125 
Q 14.75 67 18.71875 68.40625 
Q 22.703125 69.828125 27.9375 69.828125 
Q 33.0625 69.828125 37.0625 68.609375 
Q 41.0625 67.390625 43.8125 64.984375 
Q 46.578125 62.59375 48.046875 59.078125 
Q 49.515625 55.5625 49.515625 50.984375 
Q 49.515625 47.515625 48.265625 44.390625 
Q 47.015625 41.265625 44.9375 38.421875 
Q 42.875 35.59375 40.140625 32.953125 
Q 37.40625 30.328125 34.421875 27.8125 
Q 31.453125 25.296875 28.421875 22.828125 
Q 25.390625 20.359375 22.71875 17.859375 
Q 20.0625 15.375 17.96875 12.8125 
Q 15.875 10.25 14.703125 7.46875 
L 50.59375 7.46875 
L 50.59375 0 
z
" id="LiberationSans-50"/>
      </defs>
      <g style="fill:#262626;" transform="translate(305.249554 842.198867)scale(0.2 -0.2)">
       <use xlink:href="#LiberationSans-48"/>
       <use x="55.615234" xlink:href="#LiberationSans-46"/>
       <use x="83.398438" xlink:href="#LiberationSans-48"/>
       <use x="139.013672" xlink:href="#LiberationSans-48"/>
       <use x="194.628906" xlink:href="#LiberationSans-50"/>
      </g>
     </g>
    </g>
    <g id="xtick_4">
     <g id="line2d_4"/>
     <g id="text_4">
      <!-- 0.003 -->
      <defs>
       <path d="M 51.21875 19 
Q 51.21875 14.265625 49.671875 10.546875 
Q 48.140625 6.84375 45.1875 4.265625 
Q 42.234375 1.703125 37.859375 0.359375 
Q 33.5 -0.984375 27.875 -0.984375 
Q 21.484375 -0.984375 17.109375 0.609375 
Q 12.75 2.203125 9.90625 4.8125 
Q 7.078125 7.421875 5.65625 10.765625 
Q 4.25 14.109375 3.8125 17.671875 
L 12.890625 18.5 
Q 13.28125 15.765625 14.328125 13.515625 
Q 15.375 11.28125 17.1875 9.671875 
Q 19 8.0625 21.625 7.171875 
Q 24.265625 6.296875 27.875 6.296875 
Q 34.515625 6.296875 38.296875 9.5625 
Q 42.09375 12.84375 42.09375 19.28125 
Q 42.09375 23.09375 40.40625 25.40625 
Q 38.71875 27.734375 36.203125 29.03125 
Q 33.6875 30.328125 30.734375 30.765625 
Q 27.78125 31.203125 25.296875 31.203125 
L 20.3125 31.203125 
L 20.3125 38.8125 
L 25.09375 38.8125 
Q 27.59375 38.8125 30.265625 39.328125 
Q 32.953125 39.84375 35.171875 41.1875 
Q 37.40625 42.53125 38.84375 44.828125 
Q 40.28125 47.125 40.28125 50.6875 
Q 40.28125 56.203125 37.03125 59.390625 
Q 33.796875 62.59375 27.390625 62.59375 
Q 21.578125 62.59375 17.984375 59.609375 
Q 14.40625 56.640625 13.8125 51.21875 
L 4.984375 51.90625 
Q 5.515625 56.453125 7.46875 59.8125 
Q 9.421875 63.1875 12.421875 65.40625 
Q 15.4375 67.625 19.28125 68.71875 
Q 23.140625 69.828125 27.484375 69.828125 
Q 33.25 69.828125 37.390625 68.375 
Q 41.546875 66.9375 44.1875 64.46875 
Q 46.828125 62.015625 48.0625 58.6875 
Q 49.3125 55.375 49.3125 51.609375 
Q 49.3125 48.578125 48.484375 45.9375 
Q 47.65625 43.3125 45.890625 41.203125 
Q 44.140625 39.109375 41.421875 37.59375 
Q 38.71875 36.078125 34.90625 35.296875 
L 34.90625 35.109375 
Q 39.0625 34.671875 42.140625 33.21875 
Q 45.21875 31.78125 47.21875 29.625 
Q 49.21875 27.484375 50.21875 24.75 
Q 51.21875 22.015625 51.21875 19 
z
" id="LiberationSans-51"/>
      </defs>
      <g style="fill:#262626;" transform="translate(411.535268 842.198867)scale(0.2 -0.2)">
       <use xlink:href="#LiberationSans-48"/>
       <use x="55.615234" xlink:href="#LiberationSans-46"/>
       <use x="83.398438" xlink:href="#LiberationSans-48"/>
       <use x="139.013672" xlink:href="#LiberationSans-48"/>
       <use x="194.628906" xlink:href="#LiberationSans-51"/>
      </g>
     </g>
    </g>
    <g id="xtick_5">
     <g id="line2d_5"/>
     <g id="text_5">
      <!-- 0.004 -->
      <defs>
       <path d="M 43.015625 15.578125 
L 43.015625 0 
L 34.71875 0 
L 34.71875 15.578125 
L 2.296875 15.578125 
L 2.296875 22.40625 
L 33.796875 68.796875 
L 43.015625 68.796875 
L 43.015625 22.515625 
L 52.6875 22.515625 
L 52.6875 15.578125 
z
M 34.71875 58.890625 
Q 34.625 58.640625 34.234375 57.9375 
Q 33.84375 57.234375 33.34375 56.34375 
Q 32.859375 55.46875 32.34375 54.5625 
Q 31.84375 53.65625 31.453125 53.078125 
L 13.8125 27.09375 
Q 13.578125 26.703125 13.109375 26.0625 
Q 12.640625 25.4375 12.15625 24.78125 
Q 11.671875 24.125 11.171875 23.484375 
Q 10.6875 22.859375 10.40625 22.515625 
L 34.71875 22.515625 
z
" id="LiberationSans-52"/>
      </defs>
      <g style="fill:#262626;" transform="translate(517.820982 842.198867)scale(0.2 -0.2)">
       <use xlink:href="#LiberationSans-48"/>
       <use x="55.615234" xlink:href="#LiberationSans-46"/>
       <use x="83.398438" xlink:href="#LiberationSans-48"/>
       <use x="139.013672" xlink:href="#LiberationSans-48"/>
       <use x="194.628906" xlink:href="#LiberationSans-52"/>
      </g>
     </g>
    </g>
    <g id="xtick_6">
     <g id="line2d_6"/>
     <g id="text_6">
      <!-- 0.005 -->
      <defs>
       <path d="M 51.421875 22.40625 
Q 51.421875 17.234375 49.859375 12.9375 
Q 48.296875 8.640625 45.21875 5.53125 
Q 42.140625 2.4375 37.578125 0.71875 
Q 33.015625 -0.984375 27 -0.984375 
Q 21.578125 -0.984375 17.546875 0.28125 
Q 13.53125 1.5625 10.734375 3.78125 
Q 7.953125 6 6.3125 8.984375 
Q 4.6875 11.96875 4 15.375 
L 12.890625 16.40625 
Q 13.421875 14.453125 14.390625 12.625 
Q 15.375 10.796875 17.0625 9.34375 
Q 18.75 7.90625 21.21875 7.046875 
Q 23.6875 6.203125 27.203125 6.203125 
Q 30.609375 6.203125 33.390625 7.25 
Q 36.1875 8.296875 38.15625 10.34375 
Q 40.140625 12.40625 41.203125 15.375 
Q 42.28125 18.359375 42.28125 22.21875 
Q 42.28125 25.390625 41.25 28.046875 
Q 40.234375 30.71875 38.328125 32.640625 
Q 36.421875 34.578125 33.65625 35.640625 
Q 30.90625 36.71875 27.390625 36.71875 
Q 25.203125 36.71875 23.34375 36.328125 
Q 21.484375 35.9375 19.890625 35.25 
Q 18.3125 34.578125 17.015625 33.671875 
Q 15.71875 32.765625 14.59375 31.78125 
L 6 31.78125 
L 8.296875 68.796875 
L 47.40625 68.796875 
L 47.40625 61.328125 
L 16.3125 61.328125 
L 14.984375 39.5 
Q 17.328125 41.3125 20.84375 42.59375 
Q 24.359375 43.890625 29.203125 43.890625 
Q 34.328125 43.890625 38.421875 42.328125 
Q 42.53125 40.765625 45.40625 37.90625 
Q 48.296875 35.0625 49.859375 31.109375 
Q 51.421875 27.15625 51.421875 22.40625 
z
" id="LiberationSans-53"/>
      </defs>
      <g style="fill:#262626;" transform="translate(624.106696 842.198867)scale(0.2 -0.2)">
       <use xlink:href="#LiberationSans-48"/>
       <use x="55.615234" xlink:href="#LiberationSans-46"/>
       <use x="83.398438" xlink:href="#LiberationSans-48"/>
       <use x="139.013672" xlink:href="#LiberationSans-48"/>
       <use x="194.628906" xlink:href="#LiberationSans-53"/>
      </g>
     </g>
    </g>
    <g id="xtick_7">
     <g id="line2d_7"/>
     <g id="text_7">
      <!-- 0.006 -->
      <defs>
       <path d="M 51.21875 22.515625 
Q 51.21875 17.328125 49.78125 13 
Q 48.34375 8.6875 45.53125 5.578125 
Q 42.71875 2.484375 38.5625 0.75 
Q 34.421875 -0.984375 29 -0.984375 
Q 23 -0.984375 18.5 1.3125 
Q 14.015625 3.609375 11.03125 7.921875 
Q 8.0625 12.25 6.5625 18.53125 
Q 5.078125 24.8125 5.078125 32.8125 
Q 5.078125 42 6.765625 48.921875 
Q 8.453125 55.859375 11.625 60.5 
Q 14.796875 65.140625 19.359375 67.484375 
Q 23.921875 69.828125 29.6875 69.828125 
Q 33.203125 69.828125 36.28125 69.09375 
Q 39.359375 68.359375 41.875 66.71875 
Q 44.390625 65.09375 46.28125 62.40625 
Q 48.1875 59.71875 49.3125 55.8125 
L 40.921875 54.296875 
Q 39.546875 58.734375 36.546875 60.71875 
Q 33.546875 62.703125 29.59375 62.703125 
Q 25.984375 62.703125 23.046875 60.984375 
Q 20.125 59.28125 18.0625 55.875 
Q 16.015625 52.484375 14.90625 47.359375 
Q 13.8125 42.234375 13.8125 35.40625 
Q 16.21875 39.84375 20.5625 42.15625 
Q 24.90625 44.484375 30.515625 44.484375 
Q 35.203125 44.484375 39.015625 42.96875 
Q 42.828125 41.453125 45.53125 38.59375 
Q 48.25 35.75 49.734375 31.671875 
Q 51.21875 27.59375 51.21875 22.515625 
z
M 42.28125 22.125 
Q 42.28125 25.6875 41.40625 28.5625 
Q 40.53125 31.453125 38.765625 33.46875 
Q 37.015625 35.5 34.421875 36.59375 
Q 31.84375 37.703125 28.421875 37.703125 
Q 26.03125 37.703125 23.578125 36.984375 
Q 21.140625 36.28125 19.15625 34.6875 
Q 17.1875 33.109375 15.9375 30.515625 
Q 14.703125 27.9375 14.703125 24.21875 
Q 14.703125 20.40625 15.671875 17.109375 
Q 16.65625 13.8125 18.484375 11.375 
Q 20.3125 8.9375 22.890625 7.515625 
Q 25.484375 6.109375 28.71875 6.109375 
Q 31.890625 6.109375 34.40625 7.203125 
Q 36.921875 8.296875 38.671875 10.375 
Q 40.4375 12.453125 41.359375 15.421875 
Q 42.28125 18.40625 42.28125 22.125 
z
" id="LiberationSans-54"/>
      </defs>
      <g style="fill:#262626;" transform="translate(730.392411 842.198867)scale(0.2 -0.2)">
       <use xlink:href="#LiberationSans-48"/>
       <use x="55.615234" xlink:href="#LiberationSans-46"/>
       <use x="83.398438" xlink:href="#LiberationSans-48"/>
       <use x="139.013672" xlink:href="#LiberationSans-48"/>
       <use x="194.628906" xlink:href="#LiberationSans-54"/>
      </g>
     </g>
    </g>
    <g id="xtick_8">
     <g id="line2d_8"/>
     <g id="text_8">
      <!-- 0.007 -->
      <defs>
       <path d="M 50.59375 61.671875 
Q 45.40625 53.765625 41.0625 46.453125 
Q 36.71875 39.15625 33.59375 31.75 
Q 30.46875 24.359375 28.734375 16.578125 
Q 27 8.796875 27 0 
L 17.828125 0 
Q 17.828125 8.25 19.78125 16.1875 
Q 21.734375 24.125 25.046875 31.765625 
Q 28.375 39.40625 32.765625 46.78125 
Q 37.15625 54.15625 42.09375 61.328125 
L 5.125 61.328125 
L 5.125 68.796875 
L 50.59375 68.796875 
z
" id="LiberationSans-55"/>
      </defs>
      <g style="fill:#262626;" transform="translate(836.678125 842.198867)scale(0.2 -0.2)">
       <use xlink:href="#LiberationSans-48"/>
       <use x="55.615234" xlink:href="#LiberationSans-46"/>
       <use x="83.398438" xlink:href="#LiberationSans-48"/>
       <use x="139.013672" xlink:href="#LiberationSans-48"/>
       <use x="194.628906" xlink:href="#LiberationSans-55"/>
      </g>
     </g>
    </g>
    <g id="text_9">
     <!-- $Dose_{caffeine}$ [g/kg] -->
     <defs>
      <path d="M 16.890625 72.90625 
L 38.09375 72.90625 
Q 54.984375 72.90625 63.59375 65.75 
Q 72.21875 58.59375 72.21875 44.484375 
Q 72.21875 35.15625 68.9375 26.53125 
Q 65.671875 17.921875 59.90625 12.015625 
Q 54.109375 5.953125 45.171875 2.96875 
Q 36.234375 0 24.03125 0 
L 2.6875 0 
z
M 25.203125 64.796875 
L 14.203125 8.109375 
L 27.09375 8.109375 
Q 43.65625 8.109375 52.734375 17.625 
Q 61.8125 27.15625 61.8125 44.484375 
Q 61.8125 54.984375 55.953125 59.890625 
Q 50.09375 64.796875 37.59375 64.796875 
z
" id="DejaVuSans-Oblique-68"/>
      <path d="M 25.390625 -1.421875 
Q 15.765625 -1.421875 10.171875 4.515625 
Q 4.59375 10.453125 4.59375 20.703125 
Q 4.59375 26.65625 6.515625 32.828125 
Q 8.453125 39.015625 11.53125 43.21875 
Q 16.359375 49.75 22.3125 52.875 
Q 28.265625 56 35.796875 56 
Q 45.125 56 50.859375 50.1875 
Q 56.59375 44.390625 56.59375 35.015625 
Q 56.59375 28.515625 54.6875 22.0625 
Q 52.78125 15.625 49.703125 11.375 
Q 44.921875 4.828125 38.96875 1.703125 
Q 33.015625 -1.421875 25.390625 -1.421875 
z
M 13.921875 21 
Q 13.921875 13.578125 17.015625 9.890625 
Q 20.125 6.203125 26.421875 6.203125 
Q 35.453125 6.203125 41.375 14.078125 
Q 47.3125 21.96875 47.3125 34.078125 
Q 47.3125 41.15625 44.140625 44.765625 
Q 40.96875 48.390625 34.8125 48.390625 
Q 29.734375 48.390625 25.78125 46.015625 
Q 21.828125 43.65625 18.703125 38.8125 
Q 16.40625 35.203125 15.15625 30.5625 
Q 13.921875 25.921875 13.921875 21 
z
" id="DejaVuSans-Oblique-111"/>
      <path d="M 50 53.078125 
L 48.296875 44.578125 
Q 44.734375 46.53125 40.765625 47.5 
Q 36.8125 48.484375 32.625 48.484375 
Q 25.53125 48.484375 21.453125 46.0625 
Q 17.390625 43.65625 17.390625 39.5 
Q 17.390625 34.671875 26.859375 32.078125 
Q 27.59375 31.890625 27.9375 31.78125 
L 30.8125 30.90625 
Q 39.796875 28.421875 42.796875 25.6875 
Q 45.796875 22.953125 45.796875 18.21875 
Q 45.796875 9.515625 38.890625 4.046875 
Q 31.984375 -1.421875 20.796875 -1.421875 
Q 16.453125 -1.421875 11.671875 -0.578125 
Q 6.890625 0.25 1.125 2 
L 2.875 11.28125 
Q 7.8125 8.734375 12.59375 7.421875 
Q 17.390625 6.109375 21.78125 6.109375 
Q 28.375 6.109375 32.5 8.9375 
Q 36.625 11.765625 36.625 16.109375 
Q 36.625 20.796875 25.78125 23.6875 
L 24.859375 23.921875 
L 21.78125 24.703125 
Q 14.9375 26.515625 11.765625 29.46875 
Q 8.59375 32.421875 8.59375 37.015625 
Q 8.59375 45.75 15.15625 50.875 
Q 21.734375 56 33.015625 56 
Q 37.453125 56 41.671875 55.265625 
Q 45.90625 54.546875 50 53.078125 
z
" id="DejaVuSans-Oblique-115"/>
      <path d="M 48.09375 32.234375 
Q 48.25 33.015625 48.3125 33.84375 
Q 48.390625 34.671875 48.390625 35.5 
Q 48.390625 41.453125 44.890625 44.921875 
Q 41.40625 48.390625 35.40625 48.390625 
Q 28.71875 48.390625 23.578125 44.15625 
Q 18.453125 39.9375 15.828125 32.171875 
z
M 55.90625 25.203125 
L 14.109375 25.203125 
Q 13.8125 23.34375 13.71875 22.265625 
Q 13.625 21.1875 13.625 20.40625 
Q 13.625 13.625 17.796875 9.90625 
Q 21.96875 6.203125 29.59375 6.203125 
Q 35.453125 6.203125 40.671875 7.515625 
Q 45.90625 8.84375 50.390625 11.375 
L 48.6875 2.484375 
Q 43.84375 0.53125 38.6875 -0.4375 
Q 33.546875 -1.421875 28.21875 -1.421875 
Q 16.84375 -1.421875 10.71875 4.015625 
Q 4.59375 9.46875 4.59375 19.484375 
Q 4.59375 28.03125 7.640625 35.375 
Q 10.6875 42.71875 16.609375 48.484375 
Q 20.40625 52.09375 25.65625 54.046875 
Q 30.90625 56 36.8125 56 
Q 46.09375 56 51.578125 50.4375 
Q 57.078125 44.875 57.078125 35.5 
Q 57.078125 33.25 56.78125 30.6875 
Q 56.5 28.125 55.90625 25.203125 
z
" id="DejaVuSans-Oblique-101"/>
      <path d="M 53.609375 52.59375 
L 51.8125 43.703125 
Q 48.578125 46.046875 44.9375 47.21875 
Q 41.3125 48.390625 37.40625 48.390625 
Q 33.109375 48.390625 29.21875 46.875 
Q 25.34375 45.359375 22.703125 42.578125 
Q 18.5 38.328125 16.203125 32.609375 
Q 13.921875 26.90625 13.921875 20.796875 
Q 13.921875 13.421875 17.609375 9.8125 
Q 21.296875 6.203125 28.8125 6.203125 
Q 32.515625 6.203125 36.6875 7.328125 
Q 40.875 8.453125 45.40625 10.6875 
L 43.703125 1.8125 
Q 39.796875 0.203125 35.671875 -0.609375 
Q 31.546875 -1.421875 27.203125 -1.421875 
Q 16.3125 -1.421875 10.453125 4.015625 
Q 4.59375 9.46875 4.59375 19.578125 
Q 4.59375 28.078125 7.640625 35.234375 
Q 10.6875 42.390625 16.703125 48.09375 
Q 20.796875 52 26.3125 54 
Q 31.84375 56 38.375 56 
Q 42.1875 56 45.9375 55.140625 
Q 49.703125 54.296875 53.609375 52.59375 
z
" id="DejaVuSans-Oblique-99"/>
      <path d="M 53.71875 31.203125 
L 47.609375 0 
L 38.625 0 
L 40.28125 8.296875 
Q 36.328125 3.421875 31.265625 1 
Q 26.21875 -1.421875 20.015625 -1.421875 
Q 13.03125 -1.421875 8.5625 2.84375 
Q 4.109375 7.125 4.109375 13.8125 
Q 4.109375 23.390625 11.75 28.953125 
Q 19.390625 34.515625 32.8125 34.515625 
L 45.3125 34.515625 
L 45.796875 36.921875 
Q 45.90625 37.3125 45.953125 37.765625 
Q 46 38.234375 46 39.203125 
Q 46 43.5625 42.453125 45.96875 
Q 38.921875 48.390625 32.515625 48.390625 
Q 28.125 48.390625 23.5 47.265625 
Q 18.890625 46.140625 14.015625 43.890625 
L 15.578125 52.203125 
Q 20.65625 54.109375 25.515625 55.046875 
Q 30.375 56 34.90625 56 
Q 44.578125 56 49.625 51.796875 
Q 54.6875 47.609375 54.6875 39.59375 
Q 54.6875 37.984375 54.4375 35.8125 
Q 54.203125 33.640625 53.71875 31.203125 
z
M 44 27.484375 
L 35.015625 27.484375 
Q 23.96875 27.484375 18.671875 24.53125 
Q 13.375 21.578125 13.375 15.375 
Q 13.375 11.078125 16.078125 8.640625 
Q 18.796875 6.203125 23.578125 6.203125 
Q 30.90625 6.203125 36.375 11.453125 
Q 41.84375 16.703125 43.609375 25.484375 
z
" id="DejaVuSans-Oblique-97"/>
      <path d="M 47.796875 75.984375 
L 46.390625 68.5 
L 37.796875 68.5 
Q 32.90625 68.5 30.6875 66.578125 
Q 28.46875 64.65625 27.390625 59.515625 
L 26.421875 54.6875 
L 41.21875 54.6875 
L 39.890625 47.703125 
L 25.09375 47.703125 
L 15.828125 0 
L 6.78125 0 
L 16.109375 47.703125 
L 7.515625 47.703125 
L 8.796875 54.6875 
L 17.390625 54.6875 
L 18.109375 58.5 
Q 19.96875 68.171875 24.625 72.078125 
Q 29.296875 75.984375 39.3125 75.984375 
z
" id="DejaVuSans-Oblique-102"/>
      <path d="M 18.3125 75.984375 
L 27.296875 75.984375 
L 25.09375 64.59375 
L 16.109375 64.59375 
z
M 14.203125 54.6875 
L 23.1875 54.6875 
L 12.5 0 
L 3.515625 0 
z
" id="DejaVuSans-Oblique-105"/>
      <path d="M 55.71875 33.015625 
L 49.3125 0 
L 40.28125 0 
L 46.6875 32.671875 
Q 47.125 34.96875 47.359375 36.71875 
Q 47.609375 38.484375 47.609375 39.5 
Q 47.609375 43.609375 45.015625 45.890625 
Q 42.4375 48.1875 37.796875 48.1875 
Q 30.5625 48.1875 25.34375 43.375 
Q 20.125 38.578125 18.5 30.328125 
L 12.5 0 
L 3.515625 0 
L 14.109375 54.6875 
L 23.09375 54.6875 
L 21.296875 46.09375 
Q 25.046875 50.828125 30.3125 53.40625 
Q 35.59375 56 41.40625 56 
Q 48.640625 56 52.609375 52.09375 
Q 56.59375 48.1875 56.59375 41.109375 
Q 56.59375 39.359375 56.375 37.359375 
Q 56.15625 35.359375 55.71875 33.015625 
z
" id="DejaVuSans-Oblique-110"/>
      <path id="LiberationSans-Bold-32"/>
      <path d="M 5.609375 -20.75 
L 5.609375 72.46875 
L 32.078125 72.46875 
L 32.078125 63.1875 
L 18.609375 63.1875 
L 18.609375 -11.421875 
L 32.078125 -11.421875 
L 32.078125 -20.75 
z
" id="LiberationSans-Bold-91"/>
      <path d="M 29.109375 -21.1875 
Q 23.875 -21.1875 19.890625 -20.140625 
Q 15.921875 -19.09375 13.109375 -17.203125 
Q 10.296875 -15.328125 8.609375 -12.71875 
Q 6.9375 -10.109375 6.296875 -6.984375 
L 20.015625 -5.375 
Q 20.75 -8.546875 23.171875 -10.34375 
Q 25.59375 -12.15625 29.5 -12.15625 
Q 31.9375 -12.15625 33.953125 -11.46875 
Q 35.984375 -10.796875 37.421875 -9.15625 
Q 38.875 -7.515625 39.671875 -4.828125 
Q 40.484375 -2.15625 40.484375 1.8125 
Q 40.484375 3.171875 40.484375 4.578125 
Q 40.484375 6 40.53125 7.171875 
Q 40.578125 8.546875 40.578125 9.8125 
L 40.484375 9.8125 
Q 38.09375 4.6875 33.765625 2.390625 
Q 29.4375 0.09375 23.484375 0.09375 
Q 18.453125 0.09375 14.8125 2.0625 
Q 11.1875 4.046875 8.78125 7.59375 
Q 6.390625 11.140625 5.25 16.046875 
Q 4.109375 20.953125 4.109375 26.859375 
Q 4.109375 32.953125 5.328125 37.90625 
Q 6.546875 42.875 9.0625 46.4375 
Q 11.578125 50 15.40625 51.921875 
Q 19.234375 53.859375 24.515625 53.859375 
Q 29.78125 53.859375 33.953125 51.609375 
Q 38.140625 49.359375 40.484375 44.34375 
L 40.71875 44.34375 
Q 40.71875 45.359375 40.796875 46.703125 
Q 40.875 48.046875 40.96875 49.28125 
Q 41.0625 50.53125 41.1875 51.5 
Q 41.3125 52.484375 41.40625 52.828125 
L 54.390625 52.828125 
Q 54.296875 51.078125 54.203125 47.90625 
Q 54.109375 44.734375 54.109375 40.625 
L 54.109375 1.609375 
Q 54.109375 -4.15625 52.4375 -8.421875 
Q 50.78125 -12.703125 47.578125 -15.53125 
Q 44.390625 -18.359375 39.71875 -19.765625 
Q 35.0625 -21.1875 29.109375 -21.1875 
z
M 40.578125 27.15625 
Q 40.578125 32.125 39.59375 35.4375 
Q 38.625 38.765625 37.0625 40.765625 
Q 35.5 42.78125 33.46875 43.609375 
Q 31.453125 44.4375 29.390625 44.4375 
Q 26.765625 44.4375 24.734375 43.40625 
Q 22.703125 42.390625 21.28125 40.234375 
Q 19.875 38.09375 19.140625 34.765625 
Q 18.40625 31.453125 18.40625 26.859375 
Q 18.40625 18.3125 21.140625 13.96875 
Q 23.875 9.625 29.296875 9.625 
Q 31.34375 9.625 33.375 10.421875 
Q 35.40625 11.234375 37.015625 13.25 
Q 38.625 15.28125 39.59375 18.640625 
Q 40.578125 22.015625 40.578125 27.15625 
z
" id="LiberationSans-Bold-103"/>
      <path d="M 0.984375 -2 
L 15.1875 72.46875 
L 26.8125 72.46875 
L 12.84375 -2 
z
" id="LiberationSans-Bold-47"/>
      <path d="M 40.71875 0 
L 26.609375 23.921875 
L 20.703125 19.828125 
L 20.703125 0 
L 6.984375 0 
L 6.984375 72.46875 
L 20.703125 72.46875 
L 20.703125 30.953125 
L 39.546875 52.828125 
L 54.296875 52.828125 
L 35.75 32.234375 
L 55.71875 0 
z
" id="LiberationSans-Bold-107"/>
      <path d="M 1.21875 -20.75 
L 1.21875 -11.421875 
L 14.796875 -11.421875 
L 14.796875 63.1875 
L 1.21875 63.1875 
L 1.21875 72.46875 
L 27.6875 72.46875 
L 27.6875 -20.75 
z
" id="LiberationSans-Bold-93"/>
     </defs>
     <g style="fill:#262626;" transform="translate(452.6 864.948867)scale(0.2 -0.2)">
      <use transform="translate(0 0.09375)" xlink:href="#DejaVuSans-Oblique-68"/>
      <use transform="translate(77.001953 0.09375)" xlink:href="#DejaVuSans-Oblique-111"/>
      <use transform="translate(138.183594 0.09375)" xlink:href="#DejaVuSans-Oblique-115"/>
      <use transform="translate(190.283203 0.09375)" xlink:href="#DejaVuSans-Oblique-101"/>
      <use transform="translate(251.806641 -16.3125)scale(0.7)" xlink:href="#DejaVuSans-Oblique-99"/>
      <use transform="translate(290.292969 -16.3125)scale(0.7)" xlink:href="#DejaVuSans-Oblique-97"/>
      <use transform="translate(333.188477 -16.3125)scale(0.7)" xlink:href="#DejaVuSans-Oblique-102"/>
      <use transform="translate(357.832031 -16.3125)scale(0.7)" xlink:href="#DejaVuSans-Oblique-102"/>
      <use transform="translate(382.475586 -16.3125)scale(0.7)" xlink:href="#DejaVuSans-Oblique-101"/>
      <use transform="translate(425.541992 -16.3125)scale(0.7)" xlink:href="#DejaVuSans-Oblique-105"/>
      <use transform="translate(444.990234 -16.3125)scale(0.7)" xlink:href="#DejaVuSans-Oblique-110"/>
      <use transform="translate(489.355469 -16.3125)scale(0.7)" xlink:href="#DejaVuSans-Oblique-101"/>
      <use transform="translate(535.15625 0.09375)" xlink:href="#LiberationSans-Bold-32"/>
      <use transform="translate(562.939453 0.09375)" xlink:href="#LiberationSans-Bold-91"/>
      <use transform="translate(596.240234 0.09375)" xlink:href="#LiberationSans-Bold-103"/>
      <use transform="translate(657.324219 0.09375)" xlink:href="#LiberationSans-Bold-47"/>
      <use transform="translate(685.107422 0.09375)" xlink:href="#LiberationSans-Bold-107"/>
      <use transform="translate(740.722656 0.09375)" xlink:href="#LiberationSans-Bold-103"/>
      <use transform="translate(801.806641 0.09375)" xlink:href="#LiberationSans-Bold-93"/>
     </g>
    </g>
   </g>
   <g id="matplotlib.axis_2">
    <g id="ytick_1">
     <g id="line2d_9"/>
     <g id="text_10">
      <!-- $\mathdefault{0.000000}$ -->
      <g style="fill:#262626;" transform="translate(30.6 831.451992)scale(0.2 -0.2)">
       <use transform="translate(0 0.171875)" xlink:href="#LiberationSans-48"/>
       <use transform="translate(55.615234 0.171875)" xlink:href="#LiberationSans-46"/>
       <use transform="translate(83.398438 0.171875)" xlink:href="#LiberationSans-48"/>
       <use transform="translate(139.013672 0.171875)" xlink:href="#LiberationSans-48"/>
       <use transform="translate(194.628906 0.171875)" xlink:href="#LiberationSans-48"/>
       <use transform="translate(250.244141 0.171875)" xlink:href="#LiberationSans-48"/>
       <use transform="translate(305.859375 0.171875)" xlink:href="#LiberationSans-48"/>
       <use transform="translate(361.474609 0.171875)" xlink:href="#LiberationSans-48"/>
      </g>
     </g>
    </g>
    <g id="ytick_2">
     <g id="line2d_10"/>
     <g id="text_11">
      <!-- $\mathdefault{0.000025}$ -->
      <g style="fill:#262626;" transform="translate(30.6 730.232212)scale(0.2 -0.2)">
       <use transform="translate(0 0.171875)" xlink:href="#LiberationSans-48"/>
       <use transform="translate(55.615234 0.171875)" xlink:href="#LiberationSans-46"/>
       <use transform="translate(83.398438 0.171875)" xlink:href="#LiberationSans-48"/>
       <use transform="translate(139.013672 0.171875)" xlink:href="#LiberationSans-48"/>
       <use transform="translate(194.628906 0.171875)" xlink:href="#LiberationSans-48"/>
       <use transform="translate(250.244141 0.171875)" xlink:href="#LiberationSans-48"/>
       <use transform="translate(305.859375 0.171875)" xlink:href="#LiberationSans-50"/>
       <use transform="translate(361.474609 0.171875)" xlink:href="#LiberationSans-53"/>
      </g>
     </g>
    </g>
    <g id="ytick_3">
     <g id="line2d_11"/>
     <g id="text_12">
      <!-- $\mathdefault{0.000050}$ -->
      <g style="fill:#262626;" transform="translate(30.6 629.012431)scale(0.2 -0.2)">
       <use transform="translate(0 0.171875)" xlink:href="#LiberationSans-48"/>
       <use transform="translate(55.615234 0.171875)" xlink:href="#LiberationSans-46"/>
       <use transform="translate(83.398438 0.171875)" xlink:href="#LiberationSans-48"/>
       <use transform="translate(139.013672 0.171875)" xlink:href="#LiberationSans-48"/>
       <use transform="translate(194.628906 0.171875)" xlink:href="#LiberationSans-48"/>
       <use transform="translate(250.244141 0.171875)" xlink:href="#LiberationSans-48"/>
       <use transform="translate(305.859375 0.171875)" xlink:href="#LiberationSans-53"/>
       <use transform="translate(361.474609 0.171875)" xlink:href="#LiberationSans-48"/>
      </g>
     </g>
    </g>
    <g id="ytick_4">
     <g id="line2d_12"/>
     <g id="text_13">
      <!-- $\mathdefault{0.000075}$ -->
      <g style="fill:#262626;" transform="translate(30.6 527.792651)scale(0.2 -0.2)">
       <use transform="translate(0 0.171875)" xlink:href="#LiberationSans-48"/>
       <use transform="translate(55.615234 0.171875)" xlink:href="#LiberationSans-46"/>
       <use transform="translate(83.398438 0.171875)" xlink:href="#LiberationSans-48"/>
       <use transform="translate(139.013672 0.171875)" xlink:href="#LiberationSans-48"/>
       <use transform="translate(194.628906 0.171875)" xlink:href="#LiberationSans-48"/>
       <use transform="translate(250.244141 0.171875)" xlink:href="#LiberationSans-48"/>
       <use transform="translate(305.859375 0.171875)" xlink:href="#LiberationSans-55"/>
       <use transform="translate(361.474609 0.171875)" xlink:href="#LiberationSans-53"/>
      </g>
     </g>
    </g>
    <g id="ytick_5">
     <g id="line2d_13"/>
     <g id="text_14">
      <!-- $\mathdefault{0.000100}$ -->
      <g style="fill:#262626;" transform="translate(30.6 426.572871)scale(0.2 -0.2)">
       <use transform="translate(0 0.171875)" xlink:href="#LiberationSans-48"/>
       <use transform="translate(55.615234 0.171875)" xlink:href="#LiberationSans-46"/>
       <use transform="translate(83.398438 0.171875)" xlink:href="#LiberationSans-48"/>
       <use transform="translate(139.013672 0.171875)" xlink:href="#LiberationSans-48"/>
       <use transform="translate(194.628906 0.171875)" xlink:href="#LiberationSans-48"/>
       <use transform="translate(250.244141 0.171875)" xlink:href="#LiberationSans-49"/>
       <use transform="translate(305.859375 0.171875)" xlink:href="#LiberationSans-48"/>
       <use transform="translate(361.474609 0.171875)" xlink:href="#LiberationSans-48"/>
      </g>
     </g>
    </g>
    <g id="ytick_6">
     <g id="line2d_14"/>
     <g id="text_15">
      <!-- $\mathdefault{0.000125}$ -->
      <g style="fill:#262626;" transform="translate(30.6 325.353091)scale(0.2 -0.2)">
       <use transform="translate(0 0.171875)" xlink:href="#LiberationSans-48"/>
       <use transform="translate(55.615234 0.171875)" xlink:href="#LiberationSans-46"/>
       <use transform="translate(83.398438 0.171875)" xlink:href="#LiberationSans-48"/>
       <use transform="translate(139.013672 0.171875)" xlink:href="#LiberationSans-48"/>
       <use transform="translate(194.628906 0.171875)" xlink:href="#LiberationSans-48"/>
       <use transform="translate(250.244141 0.171875)" xlink:href="#LiberationSans-49"/>
       <use transform="translate(305.859375 0.171875)" xlink:href="#LiberationSans-50"/>
       <use transform="translate(361.474609 0.171875)" xlink:href="#LiberationSans-53"/>
      </g>
     </g>
    </g>
    <g id="ytick_7">
     <g id="line2d_15"/>
     <g id="text_16">
      <!-- $\mathdefault{0.000150}$ -->
      <g style="fill:#262626;" transform="translate(30.6 224.13331)scale(0.2 -0.2)">
       <use transform="translate(0 0.171875)" xlink:href="#LiberationSans-48"/>
       <use transform="translate(55.615234 0.171875)" xlink:href="#LiberationSans-46"/>
       <use transform="translate(83.398438 0.171875)" xlink:href="#LiberationSans-48"/>
       <use transform="translate(139.013672 0.171875)" xlink:href="#LiberationSans-48"/>
       <use transform="translate(194.628906 0.171875)" xlink:href="#LiberationSans-48"/>
       <use transform="translate(250.244141 0.171875)" xlink:href="#LiberationSans-49"/>
       <use transform="translate(305.859375 0.171875)" xlink:href="#LiberationSans-53"/>
       <use transform="translate(361.474609 0.171875)" xlink:href="#LiberationSans-48"/>
      </g>
     </g>
    </g>
    <g id="ytick_8">
     <g id="line2d_16"/>
     <g id="text_17">
      <!-- $\mathdefault{0.000175}$ -->
      <g style="fill:#262626;" transform="translate(30.6 122.91353)scale(0.2 -0.2)">
       <use transform="translate(0 0.171875)" xlink:href="#LiberationSans-48"/>
       <use transform="translate(55.615234 0.171875)" xlink:href="#LiberationSans-46"/>
       <use transform="translate(83.398438 0.171875)" xlink:href="#LiberationSans-48"/>
       <use transform="translate(139.013672 0.171875)" xlink:href="#LiberationSans-48"/>
       <use transform="translate(194.628906 0.171875)" xlink:href="#LiberationSans-48"/>
       <use transform="translate(250.244141 0.171875)" xlink:href="#LiberationSans-49"/>
       <use transform="translate(305.859375 0.171875)" xlink:href="#LiberationSans-55"/>
       <use transform="translate(361.474609 0.171875)" xlink:href="#LiberationSans-53"/>
      </g>
     </g>
    </g>
    <g id="ytick_9">
     <g id="line2d_17"/>
     <g id="text_18">
      <!-- $\mathdefault{0.000200}$ -->
      <g style="fill:#262626;" transform="translate(30.6 21.69375)scale(0.2 -0.2)">
       <use transform="translate(0 0.171875)" xlink:href="#LiberationSans-48"/>
       <use transform="translate(55.615234 0.171875)" xlink:href="#LiberationSans-46"/>
       <use transform="translate(83.398438 0.171875)" xlink:href="#LiberationSans-48"/>
       <use transform="translate(139.013672 0.171875)" xlink:href="#LiberationSans-48"/>
       <use transform="translate(194.628906 0.171875)" xlink:href="#LiberationSans-48"/>
       <use transform="translate(250.244141 0.171875)" xlink:href="#LiberationSans-50"/>
       <use transform="translate(305.859375 0.171875)" xlink:href="#LiberationSans-48"/>
       <use transform="translate(361.474609 0.171875)" xlink:href="#LiberationSans-48"/>
      </g>
     </g>
    </g>
    <g id="text_19">
     <!-- $AUC_{\infty}$ [g·hr/kg/l] -->
     <defs>
      <path d="M 36.8125 72.90625 
L 48 72.90625 
L 61.53125 0 
L 51.21875 0 
L 48.1875 18.703125 
L 15.375 18.703125 
L 5.078125 0 
L -5.328125 0 
z
M 40.375 63.1875 
L 19.921875 26.90625 
L 46.6875 26.90625 
z
" id="DejaVuSans-Oblique-65"/>
      <path d="M 15.484375 72.90625 
L 25.390625 72.90625 
L 16.796875 28.609375 
Q 16.265625 25.640625 16.046875 23.703125 
Q 15.828125 21.78125 15.828125 20.3125 
Q 15.828125 13.578125 19.578125 10.078125 
Q 23.34375 6.59375 30.609375 6.59375 
Q 40.046875 6.59375 45.28125 11.765625 
Q 50.53125 16.9375 52.78125 28.609375 
L 61.375 72.90625 
L 71.296875 72.90625 
L 62.5 27.390625 
Q 59.625 12.640625 51.5625 5.609375 
Q 43.5 -1.421875 29.5 -1.421875 
Q 18.5625 -1.421875 12.1875 4.078125 
Q 5.8125 9.578125 5.8125 19 
Q 5.8125 20.703125 6.046875 22.828125 
Q 6.296875 24.953125 6.78125 27.390625 
z
" id="DejaVuSans-Oblique-85"/>
      <path d="M 69.484375 67.28125 
L 67.484375 56.890625 
Q 62.796875 61.625 57.546875 63.921875 
Q 52.296875 66.21875 46.1875 66.21875 
Q 37.84375 66.21875 31.515625 62.203125 
Q 25.203125 58.203125 20.609375 50 
Q 17.671875 44.734375 16.125 38.84375 
Q 14.59375 32.953125 14.59375 27 
Q 14.59375 17.046875 19.75 11.8125 
Q 24.90625 6.59375 34.71875 6.59375 
Q 41.5 6.59375 47.75 8.765625 
Q 54 10.9375 59.90625 15.28125 
L 57.625 3.609375 
Q 51.8125 1.125 45.875 -0.140625 
Q 39.9375 -1.421875 33.984375 -1.421875 
Q 19.96875 -1.421875 12.078125 6.1875 
Q 4.203125 13.8125 4.203125 27.390625 
Q 4.203125 36.078125 7.203125 44.46875 
Q 10.203125 52.875 15.828125 59.8125 
Q 21.78125 67.1875 29.421875 70.703125 
Q 37.0625 74.21875 47.21875 74.21875 
Q 53.46875 74.21875 59.0625 72.484375 
Q 64.65625 70.75 69.484375 67.28125 
z
" id="DejaVuSans-Oblique-67"/>
      <path d="M 45.5625 17.046875 
Q 44.046875 18.796875 41.65625 22.90625 
Q 38.375 17.046875 35.5 14.453125 
Q 31.890625 11.328125 26.265625 11.328125 
Q 19.671875 11.328125 15.328125 16.265625 
Q 10.75 21.4375 10.75 29.984375 
Q 10.75 38.1875 15.328125 43.75 
Q 19.4375 48.6875 26.375 48.6875 
Q 29.9375 48.6875 32.5625 47.21875 
Q 35.640625 45.609375 37.75 42.828125 
Q 39.703125 40.328125 41.65625 36.96875 
Q 44.921875 42.828125 47.796875 45.40625 
Q 51.421875 48.53125 57.03125 48.53125 
Q 63.625 48.53125 67.96875 43.609375 
Q 72.5625 38.421875 72.5625 29.890625 
Q 72.5625 21.6875 67.96875 16.109375 
Q 63.875 11.1875 56.9375 11.1875 
Q 53.375 11.1875 50.734375 12.640625 
Q 48.09375 13.96875 45.5625 17.046875 
z
M 25.734375 17.71875 
Q 33.796875 17.71875 38.625 29.4375 
Q 32.421875 42.234375 25.734375 42.234375 
Q 20.84375 42.234375 18.359375 38.71875 
Q 15.671875 34.96875 15.671875 29.984375 
Q 15.671875 24.515625 18.359375 21.140625 
Q 21.09375 17.71875 25.734375 17.71875 
z
M 57.5625 42.140625 
Q 50.296875 42.140625 44.671875 30.421875 
Q 50.828125 17.625 57.5625 17.625 
Q 62.453125 17.625 64.9375 21.140625 
Q 67.625 24.90625 67.625 29.890625 
Q 67.625 35.359375 64.9375 38.71875 
Q 62.203125 42.140625 57.5625 42.140625 
z
" id="DejaVuSans-8734"/>
      <path d="M 6.890625 25.921875 
L 6.890625 40.828125 
L 20.953125 40.828125 
L 20.953125 25.921875 
z
" id="LiberationSans-Bold-183"/>
      <path d="M 20.515625 42.28125 
Q 23.296875 48.34375 27.484375 51.078125 
Q 31.6875 53.8125 37.5 53.8125 
Q 42.28125 53.8125 45.578125 52.25 
Q 48.875 50.6875 50.953125 47.953125 
Q 53.03125 45.21875 53.953125 41.5 
Q 54.890625 37.796875 54.890625 33.5 
L 54.890625 0 
L 41.21875 0 
L 41.21875 29.59375 
Q 41.21875 32.671875 40.71875 35.234375 
Q 40.234375 37.796875 39.109375 39.625 
Q 37.984375 41.453125 36.171875 42.46875 
Q 34.375 43.5 31.78125 43.5 
Q 29.296875 43.5 27.265625 42.40625 
Q 25.25 41.3125 23.78125 39.28125 
Q 22.3125 37.25 21.5 34.4375 
Q 20.703125 31.640625 20.703125 28.265625 
L 20.703125 0 
L 6.984375 0 
L 6.984375 72.46875 
L 20.703125 72.46875 
L 20.703125 52.6875 
Q 20.703125 51.125 20.65625 49.53125 
Q 20.609375 47.953125 20.53125 46.5625 
Q 20.453125 45.171875 20.40625 44.046875 
Q 20.359375 42.921875 20.3125 42.28125 
z
" id="LiberationSans-Bold-104"/>
      <path d="M 6.984375 0 
L 6.984375 40.4375 
Q 6.984375 42.140625 6.953125 44.046875 
Q 6.9375 45.953125 6.859375 47.6875 
Q 6.78125 49.421875 6.734375 50.8125 
Q 6.6875 52.203125 6.59375 52.828125 
L 19.671875 52.828125 
Q 19.78125 52.25 19.875 50.796875 
Q 19.96875 49.359375 20.0625 47.65625 
Q 20.171875 45.953125 20.234375 44.265625 
Q 20.3125 42.578125 20.3125 41.546875 
L 20.515625 41.546875 
Q 21.53125 44.4375 22.546875 46.703125 
Q 23.578125 48.96875 24.96875 50.5625 
Q 26.375 52.15625 28.328125 53 
Q 30.28125 53.859375 33.15625 53.859375 
Q 34.375 53.859375 35.5625 53.640625 
Q 36.765625 53.421875 37.40625 53.125 
L 37.40625 41.65625 
Q 36.078125 41.9375 34.734375 42.15625 
Q 33.40625 42.390625 31.546875 42.390625 
Q 26.421875 42.390625 23.5625 38.234375 
Q 20.703125 34.078125 20.703125 25.921875 
L 20.703125 0 
z
" id="LiberationSans-Bold-114"/>
      <path d="M 6.984375 0 
L 6.984375 72.46875 
L 20.703125 72.46875 
L 20.703125 0 
z
" id="LiberationSans-Bold-108"/>
     </defs>
     <g style="fill:#262626;" transform="translate(22.2 492.105117)rotate(-90)scale(0.2 -0.2)">
      <use transform="translate(0 0.78125)" xlink:href="#DejaVuSans-Oblique-65"/>
      <use transform="translate(68.408203 0.78125)" xlink:href="#DejaVuSans-Oblique-85"/>
      <use transform="translate(141.601562 0.78125)" xlink:href="#DejaVuSans-Oblique-67"/>
      <use transform="translate(211.425781 -15.625)scale(0.7)" xlink:href="#DejaVuSans-8734"/>
      <use transform="translate(272.470703 0.78125)" xlink:href="#LiberationSans-Bold-32"/>
      <use transform="translate(300.253906 0.78125)" xlink:href="#LiberationSans-Bold-91"/>
      <use transform="translate(333.554688 0.78125)" xlink:href="#LiberationSans-Bold-103"/>
      <use transform="translate(394.638672 0.78125)" xlink:href="#LiberationSans-Bold-183"/>
      <use transform="translate(422.421875 0.78125)" xlink:href="#LiberationSans-Bold-104"/>
      <use transform="translate(483.505859 0.78125)" xlink:href="#LiberationSans-Bold-114"/>
      <use transform="translate(522.421875 0.78125)" xlink:href="#LiberationSans-Bold-47"/>
      <use transform="translate(550.205078 0.78125)" xlink:href="#LiberationSans-Bold-107"/>
      <use transform="translate(605.820312 0.78125)" xlink:href="#LiberationSans-Bold-103"/>
      <use transform="translate(666.904297 0.78125)" xlink:href="#LiberationSans-Bold-47"/>
      <use transform="translate(694.6875 0.78125)" xlink:href="#LiberationSans-Bold-108"/>
      <use transform="translate(722.470703 0.78125)" xlink:href="#LiberationSans-Bold-93"/>
     </g>
    </g>
   </g>
   <g id="PathCollection_1">
    <defs>
     <path d="M -2.236068 2.236068 
L 2.236068 2.236068 
L 2.236068 -2.236068 
L -2.236068 -2.236068 
z
" id="mfe1acbd470" style="stroke:#a9a9a9;stroke-opacity:0.7;"/>
    </defs>
    <g clip-path="url(#p6e05584073)">
     <use style="fill:#a9a9a9;fill-opacity:0.7;stroke:#a9a9a9;stroke-opacity:0.7;" x="914.842857" xlink:href="#mfe1acbd470" y="660.203448"/>
     <use style="fill:#a9a9a9;fill-opacity:0.7;stroke:#a9a9a9;stroke-opacity:0.7;" x="914.842857" xlink:href="#mfe1acbd470" y="592.845619"/>
     <use style="fill:#a9a9a9;fill-opacity:0.7;stroke:#a9a9a9;stroke-opacity:0.7;" x="914.842857" xlink:href="#mfe1acbd470" y="47.633688"/>
     <use style="fill:#a9a9a9;fill-opacity:0.7;stroke:#a9a9a9;stroke-opacity:0.7;" x="914.842857" xlink:href="#mfe1acbd470" y="470.531296"/>
    </g>
   </g>
   <g id="LineCollection_1">
    <path clip-path="url(#p6e05584073)" d="M 541.233134 546.612408 
L 760.578715 546.612408 
" style="fill:none;stroke:#a9a9a9;stroke-opacity:0.7;stroke-width:1.5;"/>
   </g>
   <g id="LineCollection_2">
    <path clip-path="url(#p6e05584073)" d="M 650.905925 593.735463 
L 650.905925 499.489354 
" style="fill:none;stroke:#a9a9a9;stroke-opacity:0.7;stroke-width:1.5;"/>
   </g>
   <g id="line2d_18">
    <defs>
     <path d="M -0 7.5 
L 7.5 -7.5 
L -7.5 -7.5 
z
" id="m21941d65b0" style="stroke:#a9a9a9;stroke-linejoin:miter;stroke-opacity:0.7;"/>
    </defs>
    <g clip-path="url(#p6e05584073)">
     <use style="fill:#a9a9a9;fill-opacity:0.7;stroke:#a9a9a9;stroke-linejoin:miter;stroke-opacity:0.7;" x="650.905925" xlink:href="#m21941d65b0" y="546.612408"/>
    </g>
   </g>
   <g id="patch_3">
    <path d="M 117.7 824.205117 
L 117.7 8.805117 
" style="fill:none;stroke:#262626;stroke-linecap:square;stroke-linejoin:miter;stroke-width:1.25;"/>
   </g>
   <g id="patch_4">
    <path d="M 954.7 824.205117 
L 954.7 8.805117 
" style="fill:none;stroke:#262626;stroke-linecap:square;stroke-linejoin:miter;stroke-width:1.25;"/>
   </g>
   <g id="patch_5">
    <path d="M 117.7 824.205117 
L 954.7 824.205117 
" style="fill:none;stroke:#262626;stroke-linecap:square;stroke-linejoin:miter;stroke-width:1.25;"/>
   </g>
   <g id="patch_6">
    <path d="M 117.7 8.805117 
L 954.7 8.805117 
" style="fill:none;stroke:#262626;stroke-linecap:square;stroke-linejoin:miter;stroke-width:1.25;"/>
   </g>
   <g id="text_20">
    <!-- Akinyinka2000 -->
    <defs>
     <path d="M 56.984375 0 
L 49.125 20.125 
L 17.78125 20.125 
L 9.859375 0 
L 0.203125 0 
L 28.265625 68.796875 
L 38.875 68.796875 
L 66.5 0 
z
M 37.5 50.09375 
Q 36.71875 52.046875 36 54.046875 
Q 35.296875 56.0625 34.765625 57.6875 
Q 34.234375 59.328125 33.859375 60.421875 
Q 33.5 61.53125 33.453125 61.765625 
Q 33.34375 61.53125 33 60.40625 
Q 32.671875 59.28125 32.109375 57.609375 
Q 31.546875 55.953125 30.828125 53.953125 
Q 30.125 51.953125 29.390625 50 
L 20.609375 27.390625 
L 46.34375 27.390625 
z
" id="LiberationSans-65"/>
     <path d="M 39.84375 0 
L 21.96875 24.125 
L 15.53125 18.796875 
L 15.53125 0 
L 6.734375 0 
L 6.734375 72.46875 
L 15.53125 72.46875 
L 15.53125 27.203125 
L 38.71875 52.828125 
L 49.03125 52.828125 
L 27.59375 30.125 
L 50.140625 0 
z
" id="LiberationSans-107"/>
     <path d="M 6.6875 64.0625 
L 6.6875 72.46875 
L 15.484375 72.46875 
L 15.484375 64.0625 
z
M 6.6875 0 
L 6.6875 52.828125 
L 15.484375 52.828125 
L 15.484375 0 
z
" id="LiberationSans-105"/>
     <path d="M 40.28125 0 
L 40.28125 33.5 
Q 40.28125 37.359375 39.71875 39.9375 
Q 39.15625 42.53125 37.890625 44.109375 
Q 36.625 45.703125 34.546875 46.359375 
Q 32.46875 47.015625 29.390625 47.015625 
Q 26.265625 47.015625 23.75 45.921875 
Q 21.234375 44.828125 19.453125 42.75 
Q 17.671875 40.671875 16.6875 37.625 
Q 15.71875 34.578125 15.71875 30.609375 
L 15.71875 0 
L 6.9375 0 
L 6.9375 41.546875 
Q 6.9375 43.21875 6.90625 45.046875 
Q 6.890625 46.875 6.828125 48.5 
Q 6.78125 50.140625 6.734375 51.3125 
Q 6.6875 52.484375 6.640625 52.828125 
L 14.9375 52.828125 
Q 14.984375 52.59375 15.03125 51.515625 
Q 15.09375 50.4375 15.15625 49.046875 
Q 15.234375 47.65625 15.28125 46.21875 
Q 15.328125 44.78125 15.328125 43.796875 
L 15.484375 43.796875 
Q 16.75 46.09375 18.265625 47.953125 
Q 19.78125 49.8125 21.78125 51.09375 
Q 23.78125 52.390625 26.359375 53.09375 
Q 28.953125 53.8125 32.375 53.8125 
Q 36.765625 53.8125 39.9375 52.734375 
Q 43.109375 51.65625 45.15625 49.40625 
Q 47.21875 47.171875 48.171875 43.625 
Q 49.125 40.09375 49.125 35.203125 
L 49.125 0 
z
" id="LiberationSans-110"/>
     <path d="M 29.5 0 
Q 27.640625 -4.78125 25.703125 -8.609375 
Q 23.78125 -12.453125 21.390625 -15.15625 
Q 19 -17.875 16.0625 -19.3125 
Q 13.140625 -20.75 9.328125 -20.75 
Q 7.671875 -20.75 6.25 -20.65625 
Q 4.828125 -20.5625 3.265625 -20.21875 
L 3.265625 -13.625 
Q 4.203125 -13.765625 5.375 -13.84375 
Q 6.546875 -13.921875 7.375 -13.921875 
Q 11.234375 -13.921875 14.546875 -11.03125 
Q 17.875 -8.15625 20.359375 -1.859375 
L 21.1875 0.25 
L 0.25 52.828125 
L 9.625 52.828125 
L 20.75 23.640625 
Q 21.234375 22.3125 21.984375 20.109375 
Q 22.75 17.921875 23.5 15.71875 
Q 24.265625 13.53125 24.84375 11.765625 
Q 25.4375 10.015625 25.53125 9.578125 
Q 25.6875 10.109375 26.25 11.6875 
Q 26.8125 13.28125 27.515625 15.234375 
Q 28.21875 17.1875 28.953125 19.1875 
Q 29.6875 21.1875 30.171875 22.65625 
L 40.53125 52.828125 
L 49.8125 52.828125 
z
" id="LiberationSans-121"/>
     <path d="M 20.21875 -0.984375 
Q 12.25 -0.984375 8.25 3.21875 
Q 4.25 7.421875 4.25 14.75 
Q 4.25 19.96875 6.21875 23.3125 
Q 8.203125 26.65625 11.390625 28.5625 
Q 14.59375 30.46875 18.6875 31.203125 
Q 22.796875 31.9375 27.046875 32.03125 
L 38.921875 32.234375 
L 38.921875 35.109375 
Q 38.921875 38.375 38.234375 40.671875 
Q 37.546875 42.96875 36.125 44.375 
Q 34.71875 45.796875 32.59375 46.453125 
Q 30.46875 47.125 27.59375 47.125 
Q 25.046875 47.125 23 46.75 
Q 20.953125 46.390625 19.4375 45.4375 
Q 17.921875 44.484375 16.984375 42.84375 
Q 16.0625 41.21875 15.765625 38.71875 
L 6.59375 39.546875 
Q 7.078125 42.671875 8.4375 45.28125 
Q 9.8125 47.90625 12.328125 49.796875 
Q 14.84375 51.703125 18.625 52.75 
Q 22.40625 53.8125 27.78125 53.8125 
Q 37.75 53.8125 42.765625 49.234375 
Q 47.796875 44.671875 47.796875 36.03125 
L 47.796875 13.28125 
Q 47.796875 9.375 48.828125 7.390625 
Q 49.859375 5.421875 52.734375 5.421875 
Q 53.46875 5.421875 54.203125 5.515625 
Q 54.9375 5.609375 55.609375 5.765625 
L 55.609375 0.296875 
Q 53.953125 -0.09375 52.3125 -0.28125 
Q 50.6875 -0.484375 48.828125 -0.484375 
Q 46.34375 -0.484375 44.5625 0.171875 
Q 42.78125 0.828125 41.65625 2.171875 
Q 40.53125 3.515625 39.9375 5.484375 
Q 39.359375 7.46875 39.203125 10.109375 
L 38.921875 10.109375 
Q 37.5 7.5625 35.8125 5.515625 
Q 34.125 3.46875 31.875 2.03125 
Q 29.640625 0.59375 26.78125 -0.1875 
Q 23.921875 -0.984375 20.21875 -0.984375 
z
M 22.21875 5.609375 
Q 26.421875 5.609375 29.5625 7.140625 
Q 32.71875 8.6875 34.78125 11.078125 
Q 36.859375 13.484375 37.890625 16.3125 
Q 38.921875 19.140625 38.921875 21.734375 
L 38.921875 26.078125 
L 29.296875 25.875 
Q 26.078125 25.828125 23.171875 25.40625 
Q 20.265625 25 18.0625 23.78125 
Q 15.875 22.5625 14.578125 20.359375 
Q 13.28125 18.171875 13.28125 14.59375 
Q 13.28125 10.296875 15.59375 7.953125 
Q 17.921875 5.609375 22.21875 5.609375 
z
" id="LiberationSans-97"/>
    </defs>
    <g style="fill:#262626;opacity:0.7;" transform="translate(656.237984 543.836481)scale(0.1 -0.1)">
     <use xlink:href="#LiberationSans-65"/>
     <use x="66.699219" xlink:href="#LiberationSans-107"/>
     <use x="116.699219" xlink:href="#LiberationSans-105"/>
     <use x="138.916016" xlink:href="#LiberationSans-110"/>
     <use x="194.53125" xlink:href="#LiberationSans-121"/>
     <use x="244.53125" xlink:href="#LiberationSans-105"/>
     <use x="266.748047" xlink:href="#LiberationSans-110"/>
     <use x="322.363281" xlink:href="#LiberationSans-107"/>
     <use x="372.363281" xlink:href="#LiberationSans-97"/>
     <use x="427.978516" xlink:href="#LiberationSans-50"/>
     <use x="483.59375" xlink:href="#LiberationSans-48"/>
     <use x="539.208984" xlink:href="#LiberationSans-48"/>
     <use x="594.824219" xlink:href="#LiberationSans-48"/>
    </g>
   </g>
   <g id="legend_1">
    <g id="line2d_19">
     <path d="M 132.1 29.605117 
L 164.1 29.605117 
" style="fill:none;stroke:#ffffff;stroke-linecap:round;stroke-width:1.5;"/>
    </g>
    <g id="line2d_20">
     <defs>
      <path d="M 0 5 
C 1.326016 5 2.597899 4.473168 3.535534 3.535534 
C 4.473168 2.597899 5 1.326016 5 0 
C 5 -1.326016 4.473168 -2.597899 3.535534 -3.535534 
C 2.597899 -4.473168 1.326016 -5 0 -5 
C -1.326016 -5 -2.597899 -4.473168 -3.535534 -3.535534 
C -4.473168 -2.597899 -5 -1.326016 -5 0 
C -5 1.326016 -4.473168 2.597899 -3.535534 3.535534 
C -2.597899 4.473168 -1.326016 5 0 5 
z
" id="m4a923d7e52" style="stroke:#ffffff;"/>
     </defs>
     <g>
      <use style="stroke:#ffffff;" x="148.1" xlink:href="#m4a923d7e52" y="29.605117"/>
     </g>
    </g>
    <g id="text_21">
     <!-- PK DATA -->
     <defs>
      <path d="M 16.40625 29.296875 
L 16.40625 0 
L 10.546875 0 
L 10.546875 71.09375 
L 32.90625 71.09375 
Q 37.59375 71 41.671875 69.53125 
Q 45.75 68.0625 48.796875 65.34375 
Q 51.859375 62.640625 53.609375 58.78125 
Q 55.375 54.9375 55.375 50.046875 
Q 55.375 45.171875 53.609375 41.328125 
Q 51.859375 37.5 48.796875 34.828125 
Q 45.75 32.171875 41.640625 30.75 
Q 37.546875 29.34375 32.90625 29.296875 
z
M 16.40625 34.234375 
L 32.90625 34.234375 
Q 36.421875 34.28125 39.453125 35.40625 
Q 42.484375 36.53125 44.71875 38.53125 
Q 46.96875 40.53125 48.265625 43.40625 
Q 49.5625 46.296875 49.5625 49.953125 
Q 49.5625 53.609375 48.28125 56.59375 
Q 47.015625 59.578125 44.765625 61.640625 
Q 42.53125 63.71875 39.5 64.859375 
Q 36.46875 66.015625 32.90625 66.109375 
L 16.40625 66.109375 
z
" id="RobotoMono-Light-80"/>
      <path d="M 24.8125 35.203125 
L 15.671875 25.484375 
L 15.671875 0 
L 9.765625 0 
L 9.765625 71.09375 
L 15.671875 71.09375 
L 15.671875 33.0625 
L 24.421875 43.109375 
L 48.4375 71.09375 
L 55.71875 71.09375 
L 28.765625 39.5 
L 57.671875 0 
L 50.53125 0 
z
" id="RobotoMono-Light-75"/>
      <path id="RobotoMono-Light-32"/>
      <path d="M 8.640625 0 
L 8.640625 71.09375 
L 25.828125 71.09375 
Q 32.671875 71 38.03125 68.40625 
Q 43.40625 65.828125 47.109375 61.46875 
Q 50.828125 57.125 52.78125 51.34375 
Q 54.734375 45.5625 54.828125 39.015625 
L 54.828125 32.03125 
Q 54.734375 25.484375 52.78125 19.703125 
Q 50.828125 13.921875 47.109375 9.5625 
Q 43.40625 5.21875 38.03125 2.65625 
Q 32.671875 0.09375 25.828125 0 
z
M 14.5 66.109375 
L 14.5 4.9375 
L 25.828125 4.9375 
Q 31.546875 5.03125 35.859375 7.265625 
Q 40.1875 9.515625 43.0625 13.25 
Q 45.953125 17 47.4375 21.84375 
Q 48.921875 26.703125 48.96875 32.03125 
L 48.96875 39.15625 
Q 48.921875 44.4375 47.4375 49.265625 
Q 45.953125 54.109375 43.0625 57.8125 
Q 40.1875 61.53125 35.859375 63.765625 
Q 31.546875 66.015625 25.828125 66.109375 
z
" id="RobotoMono-Light-68"/>
      <path d="M 44.1875 19.828125 
L 17.140625 19.828125 
L 10.84375 0 
L 4.9375 0 
L 28.078125 71.09375 
L 33.34375 71.09375 
L 56.296875 0 
L 50.4375 0 
z
M 18.796875 25.046875 
L 42.53125 25.046875 
L 30.71875 62.453125 
z
" id="RobotoMono-Light-65"/>
      <path d="M 55.609375 65.96875 
L 32.953125 65.96875 
L 32.953125 0 
L 27.25 0 
L 27.296875 65.96875 
L 4.59375 65.96875 
L 4.59375 71.09375 
L 55.609375 71.09375 
z
" id="RobotoMono-Light-84"/>
     </defs>
     <g style="fill:#262626;" transform="translate(176.9 35.205117)scale(0.16 -0.16)">
      <use xlink:href="#RobotoMono-Light-80"/>
      <use x="60.009766" xlink:href="#RobotoMono-Light-75"/>
      <use x="120.019531" xlink:href="#RobotoMono-Light-32"/>
      <use x="180.029297" xlink:href="#RobotoMono-Light-68"/>
      <use x="240.039062" xlink:href="#RobotoMono-Light-65"/>
      <use x="300.048828" xlink:href="#RobotoMono-Light-84"/>
      <use x="360.058594" xlink:href="#RobotoMono-Light-65"/>
     </g>
    </g>
    <g id="line2d_21">
     <path d="M 132.1 52.855117 
L 164.1 52.855117 
" style="fill:none;stroke:#ffffff;stroke-linecap:round;stroke-width:1.5;"/>
    </g>
    <g id="line2d_22">
     <defs>
      <path d="M -5 5 
L 5 5 
L 5 -5 
L -5 -5 
z
" id="md43047cd3b" style="stroke:#ffffff;stroke-linejoin:miter;"/>
     </defs>
     <g>
      <use style="stroke:#ffffff;stroke-linejoin:miter;" x="148.1" xlink:href="#md43047cd3b" y="52.855117"/>
     </g>
    </g>
    <g id="text_22">
     <!-- PK FROM TIME COURSE -->
     <defs>
      <path d="M 47.5625 33.203125 
L 16.109375 33.203125 
L 16.109375 0 
L 10.25 0 
L 10.25 71.09375 
L 52.296875 71.09375 
L 52.296875 65.96875 
L 16.109375 65.96875 
L 16.109375 38.328125 
L 47.5625 38.328125 
z
" id="RobotoMono-Light-70"/>
      <path d="M 33.296875 29.734375 
L 15.71875 29.734375 
L 15.71875 0 
L 9.96875 0 
L 9.96875 71.09375 
L 30.03125 71.09375 
Q 34.71875 71 38.859375 69.578125 
Q 43.015625 68.171875 46.109375 65.5 
Q 49.21875 62.84375 51 58.984375 
Q 52.78125 55.125 52.78125 50.140625 
Q 52.78125 46.578125 51.734375 43.640625 
Q 50.6875 40.71875 48.828125 38.34375 
Q 46.96875 35.984375 44.40625 34.171875 
Q 41.84375 32.375 38.765625 31.109375 
L 54.984375 0.640625 
L 54.984375 0 
L 48.875 0 
z
M 15.71875 34.671875 
L 31.203125 34.671875 
Q 34.515625 34.765625 37.390625 35.9375 
Q 40.28125 37.109375 42.40625 39.125 
Q 44.53125 41.15625 45.71875 43.984375 
Q 46.921875 46.828125 46.921875 50.203125 
Q 46.921875 53.953125 45.59375 56.875 
Q 44.28125 59.8125 42.015625 61.84375 
Q 39.75 63.875 36.640625 64.9375 
Q 33.546875 66.015625 29.984375 66.109375 
L 15.71875 66.109375 
z
" id="RobotoMono-Light-82"/>
      <path d="M 53.859375 30.8125 
Q 53.8125 27.203125 53.21875 23.40625 
Q 52.640625 19.625 51.390625 16.078125 
Q 50.140625 12.546875 48.234375 9.4375 
Q 46.34375 6.34375 43.71875 4.015625 
Q 41.109375 1.703125 37.6875 0.359375 
Q 34.28125 -0.984375 30.03125 -0.984375 
Q 25.828125 -0.984375 22.40625 0.359375 
Q 19 1.703125 16.328125 4.015625 
Q 13.671875 6.34375 11.734375 9.46875 
Q 9.8125 12.59375 8.5625 16.125 
Q 7.328125 19.671875 6.71875 23.4375 
Q 6.109375 27.203125 6.0625 30.8125 
L 6.0625 40.1875 
Q 6.109375 43.796875 6.71875 47.578125 
Q 7.328125 51.375 8.546875 54.90625 
Q 9.765625 58.453125 11.6875 61.578125 
Q 13.625 64.703125 16.25 67.046875 
Q 18.890625 69.390625 22.28125 70.734375 
Q 25.6875 72.078125 29.9375 72.078125 
Q 34.1875 72.078125 37.59375 70.734375 
Q 41.015625 69.390625 43.671875 67.0625 
Q 46.34375 64.75 48.234375 61.625 
Q 50.140625 58.5 51.390625 54.953125 
Q 52.640625 51.421875 53.21875 47.625 
Q 53.8125 43.84375 53.859375 40.1875 
z
M 48.09375 40.28125 
Q 48.046875 43.109375 47.65625 46.1875 
Q 47.265625 49.265625 46.390625 52.1875 
Q 45.515625 55.125 44.109375 57.78125 
Q 42.71875 60.453125 40.71875 62.453125 
Q 38.71875 64.453125 36.03125 65.625 
Q 33.34375 66.796875 29.9375 66.796875 
Q 26.515625 66.796875 23.84375 65.59375 
Q 21.1875 64.40625 19.1875 62.40625 
Q 17.1875 60.40625 15.796875 57.734375 
Q 14.40625 55.078125 13.515625 52.140625 
Q 12.640625 49.21875 12.25 46.140625 
Q 11.859375 43.0625 11.8125 40.28125 
L 11.8125 30.8125 
Q 11.859375 27.984375 12.28125 24.921875 
Q 12.703125 21.875 13.578125 18.921875 
Q 14.453125 15.96875 15.84375 13.296875 
Q 17.234375 10.640625 19.234375 8.640625 
Q 21.234375 6.640625 23.921875 5.4375 
Q 26.609375 4.25 30.03125 4.25 
Q 33.5 4.25 36.15625 5.4375 
Q 38.8125 6.640625 40.8125 8.640625 
Q 42.828125 10.640625 44.21875 13.296875 
Q 45.609375 15.96875 46.453125 18.921875 
Q 47.3125 21.875 47.671875 24.921875 
Q 48.046875 27.984375 48.09375 30.8125 
z
" id="RobotoMono-Light-79"/>
      <path d="M 15.671875 71.09375 
L 29.984375 30.859375 
L 45.21875 71.09375 
L 52.875 71.09375 
L 52.875 0 
L 47.171875 0 
L 47.171875 31.5 
L 47.609375 63.28125 
L 31.84375 21.390625 
L 28.03125 21.390625 
L 13.375 62.59375 
L 13.875 31.5 
L 13.875 0 
L 8.15625 0 
L 8.15625 71.09375 
z
" id="RobotoMono-Light-77"/>
      <path d="M 9.421875 71.09375 
L 50.59375 71.09375 
L 50.59375 65.828125 
L 32.765625 65.828125 
L 32.765625 5.171875 
L 50.59375 5.171875 
L 50.59375 0 
L 9.421875 0 
L 9.421875 5.171875 
L 26.703125 5.171875 
L 26.703125 65.828125 
L 9.421875 65.828125 
z
" id="RobotoMono-Light-73"/>
      <path d="M 46.96875 34.078125 
L 15.625 34.078125 
L 15.625 5.078125 
L 51.765625 5.078125 
L 51.765625 0 
L 9.8125 0 
L 9.8125 71.09375 
L 51.5625 71.09375 
L 51.5625 65.96875 
L 15.625 65.96875 
L 15.625 39.15625 
L 46.96875 39.15625 
z
" id="RobotoMono-Light-69"/>
      <path d="M 53.65625 21.578125 
Q 53.078125 16.796875 51.265625 12.671875 
Q 49.46875 8.546875 46.484375 5.484375 
Q 43.5 2.4375 39.421875 0.71875 
Q 35.359375 -0.984375 30.28125 -0.984375 
Q 26.03125 -0.984375 22.578125 0.3125 
Q 19.140625 1.609375 16.46875 3.859375 
Q 13.8125 6.109375 11.859375 9.125 
Q 9.90625 12.15625 8.640625 15.640625 
Q 7.375 19.140625 6.765625 22.890625 
Q 6.15625 26.65625 6.109375 30.375 
L 6.109375 40.671875 
Q 6.15625 44.390625 6.765625 48.140625 
Q 7.375 51.90625 8.640625 55.390625 
Q 9.90625 58.890625 11.859375 61.90625 
Q 13.8125 64.9375 16.46875 67.203125 
Q 19.140625 69.484375 22.578125 70.78125 
Q 26.03125 72.078125 30.28125 72.078125 
Q 35.453125 72.078125 39.53125 70.359375 
Q 43.609375 68.65625 46.578125 65.59375 
Q 49.5625 62.546875 51.34375 58.390625 
Q 53.125 54.25 53.65625 49.359375 
L 47.859375 49.359375 
Q 47.265625 53.03125 45.96875 56.25 
Q 44.671875 59.46875 42.515625 61.890625 
Q 40.375 64.3125 37.34375 65.703125 
Q 34.328125 67.09375 30.28125 67.09375 
Q 26.8125 67.09375 24.125 65.921875 
Q 21.4375 64.75 19.40625 62.796875 
Q 17.390625 60.84375 15.96875 58.21875 
Q 14.546875 55.609375 13.671875 52.671875 
Q 12.796875 49.75 12.375 46.703125 
Q 11.96875 43.65625 11.96875 40.765625 
L 11.96875 30.375 
Q 11.96875 27.484375 12.375 24.40625 
Q 12.796875 21.34375 13.671875 18.40625 
Q 14.546875 15.484375 15.96875 12.859375 
Q 17.390625 10.25 19.40625 8.265625 
Q 21.4375 6.296875 24.125 5.125 
Q 26.8125 3.953125 30.28125 3.953125 
Q 34.375 3.953125 37.421875 5.296875 
Q 40.484375 6.640625 42.609375 9.03125 
Q 44.734375 11.421875 46.015625 14.640625 
Q 47.3125 17.875 47.859375 21.578125 
z
" id="RobotoMono-Light-67"/>
      <path d="M 52.296875 71.09375 
L 52.34375 22.90625 
Q 52.25 18.0625 50.65625 13.71875 
Q 49.078125 9.375 46.1875 6.125 
Q 43.3125 2.875 39.203125 0.9375 
Q 35.109375 -0.984375 30.03125 -0.984375 
Q 24.90625 -0.984375 20.796875 0.921875 
Q 16.703125 2.828125 13.8125 6.09375 
Q 10.9375 9.375 9.328125 13.71875 
Q 7.71875 18.0625 7.671875 22.90625 
L 7.765625 71.09375 
L 13.28125 71.09375 
L 13.421875 22.90625 
Q 13.484375 19.234375 14.59375 15.84375 
Q 15.71875 12.453125 17.8125 9.84375 
Q 19.921875 7.234375 23 5.671875 
Q 26.078125 4.109375 30.03125 4.109375 
Q 33.984375 4.109375 37.03125 5.671875 
Q 40.09375 7.234375 42.15625 9.84375 
Q 44.234375 12.453125 45.328125 15.84375 
Q 46.4375 19.234375 46.53125 22.90625 
L 46.625 71.09375 
z
" id="RobotoMono-Light-85"/>
      <path d="M 48.34375 17.484375 
Q 48.34375 19.96875 47.578125 21.9375 
Q 46.828125 23.921875 45.484375 25.484375 
Q 44.140625 27.046875 42.375 28.234375 
Q 40.625 29.4375 38.625 30.359375 
Q 36.625 31.296875 34.515625 32.03125 
Q 32.421875 32.765625 30.46875 33.40625 
Q 27.984375 34.1875 25.421875 35.125 
Q 22.859375 36.078125 20.4375 37.328125 
Q 18.015625 38.578125 15.890625 40.15625 
Q 13.765625 41.75 12.171875 43.75 
Q 10.59375 45.75 9.6875 48.21875 
Q 8.796875 50.6875 8.796875 53.71875 
Q 8.796875 58.15625 10.765625 61.5625 
Q 12.75 64.984375 15.921875 67.328125 
Q 19.09375 69.671875 23.0625 70.875 
Q 27.046875 72.078125 31.109375 72.078125 
Q 35.640625 72.078125 39.734375 70.578125 
Q 43.84375 69.09375 46.9375 66.40625 
Q 50.046875 63.71875 51.90625 59.890625 
Q 53.765625 56.0625 53.90625 51.375 
L 48 51.375 
Q 47.609375 54.828125 46.28125 57.6875 
Q 44.96875 60.546875 42.765625 62.59375 
Q 40.578125 64.65625 37.625 65.796875 
Q 34.671875 66.9375 31.109375 66.9375 
Q 28.125 66.9375 25.21875 66.125 
Q 22.3125 65.328125 19.984375 63.6875 
Q 17.671875 62.0625 16.234375 59.59375 
Q 14.796875 57.125 14.796875 53.8125 
Q 14.796875 50.25 16.484375 47.75 
Q 18.171875 45.265625 20.75 43.546875 
Q 23.34375 41.84375 26.4375 40.6875 
Q 29.546875 39.546875 32.328125 38.71875 
Q 34.90625 37.9375 37.546875 36.9375 
Q 40.1875 35.9375 42.65625 34.609375 
Q 45.125 33.296875 47.265625 31.65625 
Q 49.421875 30.03125 51 27.921875 
Q 52.59375 25.828125 53.484375 23.265625 
Q 54.390625 20.703125 54.390625 17.578125 
Q 54.390625 12.890625 52.359375 9.421875 
Q 50.34375 5.953125 47.109375 3.625 
Q 43.890625 1.3125 39.78125 0.15625 
Q 35.6875 -0.984375 31.5 -0.984375 
Q 26.8125 -0.984375 22.40625 0.390625 
Q 18.015625 1.765625 14.578125 4.390625 
Q 11.140625 7.03125 8.984375 10.90625 
Q 6.84375 14.796875 6.6875 19.78125 
L 12.59375 19.78125 
Q 13.03125 15.96875 14.625 13.015625 
Q 16.21875 10.0625 18.703125 8.078125 
Q 21.1875 6.109375 24.453125 5.109375 
Q 27.734375 4.109375 31.5 4.109375 
Q 34.625 4.109375 37.625 4.890625 
Q 40.625 5.671875 43.015625 7.296875 
Q 45.40625 8.9375 46.875 11.453125 
Q 48.34375 13.96875 48.34375 17.484375 
z
" id="RobotoMono-Light-83"/>
     </defs>
     <g style="fill:#262626;" transform="translate(176.9 58.455117)scale(0.16 -0.16)">
      <use xlink:href="#RobotoMono-Light-80"/>
      <use x="60.009766" xlink:href="#RobotoMono-Light-75"/>
      <use x="120.019531" xlink:href="#RobotoMono-Light-32"/>
      <use x="180.029297" xlink:href="#RobotoMono-Light-70"/>
      <use x="240.039062" xlink:href="#RobotoMono-Light-82"/>
      <use x="300.048828" xlink:href="#RobotoMono-Light-79"/>
      <use x="360.058594" xlink:href="#RobotoMono-Light-77"/>
      <use x="420.068359" xlink:href="#RobotoMono-Light-32"/>
      <use x="480.078125" xlink:href="#RobotoMono-Light-84"/>
      <use x="540.087891" xlink:href="#RobotoMono-Light-73"/>
      <use x="600.097656" xlink:href="#RobotoMono-Light-77"/>
      <use x="660.107422" xlink:href="#RobotoMono-Light-69"/>
      <use x="720.117188" xlink:href="#RobotoMono-Light-32"/>
      <use x="780.126953" xlink:href="#RobotoMono-Light-67"/>
      <use x="840.136719" xlink:href="#RobotoMono-Light-79"/>
      <use x="900.146484" xlink:href="#RobotoMono-Light-85"/>
      <use x="960.15625" xlink:href="#RobotoMono-Light-82"/>
      <use x="1020.166016" xlink:href="#RobotoMono-Light-83"/>
      <use x="1080.175781" xlink:href="#RobotoMono-Light-69"/>
     </g>
    </g>
    <g id="line2d_23">
     <path d="M 132.1 76.105117 
L 164.1 76.105117 
" style="fill:none;stroke:#ffffff;stroke-linecap:round;stroke-width:1.5;"/>
    </g>
    <g id="line2d_24">
     <defs>
      <path d="M -0 5 
L 5 -5 
L -5 -5 
z
" id="mdc9292afe6" style="stroke:#ffffff;stroke-linejoin:miter;"/>
     </defs>
     <g>
      <use style="stroke:#ffffff;stroke-linejoin:miter;" x="148.1" xlink:href="#mdc9292afe6" y="76.105117"/>
     </g>
    </g>
    <g id="text_23">
     <!-- PK FROM BODY WEIGHT -->
     <defs>
      <path d="M 9.46875 0 
L 9.46875 71.09375 
L 28.90625 71.09375 
Q 33.203125 71.046875 37.28125 69.9375 
Q 41.359375 68.84375 44.53125 66.578125 
Q 47.703125 64.3125 49.625 60.8125 
Q 51.5625 57.328125 51.515625 52.484375 
Q 51.515625 49.46875 50.578125 47.046875 
Q 49.65625 44.625 48.0625 42.75 
Q 46.484375 40.875 44.328125 39.484375 
Q 42.1875 38.09375 39.703125 37.15625 
Q 42.78125 36.421875 45.390625 34.90625 
Q 48 33.40625 49.90625 31.171875 
Q 51.8125 28.953125 52.90625 26.125 
Q 54 23.296875 54 20.015625 
Q 54.046875 15.28125 52.234375 11.59375 
Q 50.4375 7.90625 47.359375 5.34375 
Q 44.28125 2.78125 40.25 1.40625 
Q 36.234375 0.046875 31.84375 0 
z
M 15.328125 34.1875 
L 15.328125 5.078125 
L 31.984375 5.078125 
Q 35.203125 5.125 38.125 6.171875 
Q 41.0625 7.234375 43.28125 9.125 
Q 45.515625 11.03125 46.796875 13.734375 
Q 48.09375 16.453125 48.09375 19.921875 
Q 48.09375 23.296875 46.84375 25.90625 
Q 45.609375 28.515625 43.4375 30.3125 
Q 41.265625 32.125 38.40625 33.09375 
Q 35.546875 34.078125 32.421875 34.1875 
z
M 15.328125 39.203125 
L 29.640625 39.203125 
Q 32.71875 39.265625 35.59375 40.09375 
Q 38.484375 40.921875 40.703125 42.578125 
Q 42.921875 44.234375 44.28125 46.71875 
Q 45.65625 49.21875 45.65625 52.640625 
Q 45.65625 56.203125 44.234375 58.71875 
Q 42.828125 61.234375 40.484375 62.8125 
Q 38.140625 64.40625 35.15625 65.15625 
Q 32.171875 65.921875 29.046875 65.96875 
L 15.328125 65.96875 
z
" id="RobotoMono-Light-66"/>
      <path d="M 29.296875 32.328125 
L 48.296875 71.09375 
L 54.9375 71.09375 
L 32.125 26.765625 
L 32.03125 0 
L 26.5625 0 
L 26.46875 26.765625 
L 3.65625 71.09375 
L 10.453125 71.09375 
z
" id="RobotoMono-Light-89"/>
      <path d="M 17 16.109375 
L 17.390625 11.140625 
L 17.96875 16.109375 
L 28.328125 71.09375 
L 33.40625 71.09375 
L 43.75 16.109375 
L 44.34375 10.984375 
L 44.78125 16.109375 
L 52.046875 71.09375 
L 57.515625 71.09375 
L 47.515625 0 
L 41.703125 0 
L 30.859375 59.28125 
L 19.96875 0 
L 14.15625 0 
L 4.15625 71.09375 
L 9.671875 71.09375 
z
" id="RobotoMono-Light-87"/>
      <path d="M 53.5625 8.453125 
Q 51.46875 5.953125 48.921875 4.140625 
Q 46.390625 2.34375 43.53125 1.1875 
Q 40.671875 0.046875 37.546875 -0.46875 
Q 34.421875 -0.984375 31.203125 -0.984375 
Q 26.953125 -0.921875 23.40625 0.359375 
Q 19.875 1.65625 17.03125 3.921875 
Q 14.203125 6.203125 12.109375 9.25 
Q 10.015625 12.3125 8.625 15.828125 
Q 7.234375 19.34375 6.5 23.171875 
Q 5.765625 27 5.71875 30.8125 
L 5.71875 40.765625 
Q 5.765625 44.484375 6.421875 48.234375 
Q 7.078125 52 8.421875 55.484375 
Q 9.765625 58.984375 11.765625 61.984375 
Q 13.765625 64.984375 16.5 67.234375 
Q 19.234375 69.484375 22.671875 70.78125 
Q 26.125 72.078125 30.375 72.078125 
Q 35.109375 72.078125 39.140625 70.53125 
Q 43.171875 69 46.1875 66.234375 
Q 49.21875 63.484375 51.09375 59.625 
Q 52.984375 55.765625 53.46875 51.078125 
L 47.703125 51.078125 
Q 47.015625 54.5 45.625 57.421875 
Q 44.234375 60.359375 42.078125 62.453125 
Q 39.9375 64.546875 37.03125 65.734375 
Q 34.125 66.9375 30.421875 66.9375 
Q 27 66.9375 24.265625 65.796875 
Q 21.53125 64.65625 19.453125 62.71875 
Q 17.390625 60.796875 15.890625 58.234375 
Q 14.40625 55.671875 13.453125 52.765625 
Q 12.5 49.859375 12.0625 46.796875 
Q 11.625 43.75 11.578125 40.875 
L 11.578125 30.8125 
Q 11.625 27.828125 12.125 24.703125 
Q 12.640625 21.578125 13.671875 18.625 
Q 14.703125 15.671875 16.265625 13.03125 
Q 17.828125 10.40625 20 8.421875 
Q 22.171875 6.453125 24.953125 5.296875 
Q 27.734375 4.15625 31.25 4.109375 
Q 33.453125 4.046875 35.796875 4.3125 
Q 38.140625 4.59375 40.359375 5.296875 
Q 42.578125 6 44.5 7.21875 
Q 46.4375 8.453125 47.859375 10.296875 
L 47.90625 28.65625 
L 31.0625 28.65625 
L 31.0625 33.734375 
L 53.46875 33.734375 
z
" id="RobotoMono-Light-71"/>
      <path d="M 52.203125 0 
L 46.6875 0 
L 46.6875 34.078125 
L 13.28125 34.078125 
L 13.28125 0 
L 7.765625 0 
L 7.765625 71.09375 
L 13.28125 71.09375 
L 13.28125 39.15625 
L 46.6875 39.15625 
L 46.6875 71.09375 
L 52.203125 71.09375 
z
" id="RobotoMono-Light-72"/>
     </defs>
     <g style="fill:#262626;" transform="translate(176.9 81.705117)scale(0.16 -0.16)">
      <use xlink:href="#RobotoMono-Light-80"/>
      <use x="60.009766" xlink:href="#RobotoMono-Light-75"/>
      <use x="120.019531" xlink:href="#RobotoMono-Light-32"/>
      <use x="180.029297" xlink:href="#RobotoMono-Light-70"/>
      <use x="240.039062" xlink:href="#RobotoMono-Light-82"/>
      <use x="300.048828" xlink:href="#RobotoMono-Light-79"/>
      <use x="360.058594" xlink:href="#RobotoMono-Light-77"/>
      <use x="420.068359" xlink:href="#RobotoMono-Light-32"/>
      <use x="480.078125" xlink:href="#RobotoMono-Light-66"/>
      <use x="540.087891" xlink:href="#RobotoMono-Light-79"/>
      <use x="600.097656" xlink:href="#RobotoMono-Light-68"/>
      <use x="660.107422" xlink:href="#RobotoMono-Light-89"/>
      <use x="720.117188" xlink:href="#RobotoMono-Light-32"/>
      <use x="780.126953" xlink:href="#RobotoMono-Light-87"/>
      <use x="840.136719" xlink:href="#RobotoMono-Light-69"/>
      <use x="900.146484" xlink:href="#RobotoMono-Light-73"/>
      <use x="960.15625" xlink:href="#RobotoMono-Light-71"/>
      <use x="1020.166016" xlink:href="#RobotoMono-Light-72"/>
      <use x="1080.175781" xlink:href="#RobotoMono-Light-84"/>
     </g>
    </g>
   </g>
   <g id="legend_2">
    <g id="line2d_25">
     <path d="M 132.1 29.605117 
L 164.1 29.605117 
" style="fill:none;stroke:#ffffff;stroke-linecap:round;stroke-width:1.5;"/>
    </g>
    <g id="line2d_26">
     <defs>
      <path d="M 0 5 
C 1.326016 5 2.597899 4.473168 3.535534 3.535534 
C 4.473168 2.597899 5 1.326016 5 0 
C 5 -1.326016 4.473168 -2.597899 3.535534 -3.535534 
C 2.597899 -4.473168 1.326016 -5 0 -5 
C -1.326016 -5 -2.597899 -4.473168 -3.535534 -3.535534 
C -4.473168 -2.597899 -5 -1.326016 -5 0 
C -5 1.326016 -4.473168 2.597899 -3.535534 3.535534 
C -2.597899 4.473168 -1.326016 5 0 5 
z
" id="md08a90668f" style="stroke:#ffffff;"/>
     </defs>
     <g>
      <use style="fill:#a9a9a9;stroke:#ffffff;" x="148.1" xlink:href="#md08a90668f" y="29.605117"/>
     </g>
    </g>
    <g id="text_24">
     <!-- UNKOWN     I: 4   G: 1  TI: 14  -->
     <defs>
      <path d="M 52.15625 0 
L 46.34375 0 
L 13.71875 60.015625 
L 13.671875 0 
L 7.859375 0 
L 7.859375 71.09375 
L 13.671875 71.09375 
L 46.296875 11.1875 
L 46.34375 71.09375 
L 52.15625 71.09375 
z
" id="RobotoMono-Light-78"/>
      <path d="M 29.09375 4.15625 
Q 29.09375 6.203125 30.4375 7.640625 
Q 31.78125 9.078125 34.078125 9.078125 
Q 36.421875 9.078125 37.75 7.640625 
Q 39.09375 6.203125 39.09375 4.15625 
Q 39.09375 2.09375 37.75 0.75 
Q 36.421875 -0.59375 34.078125 -0.59375 
Q 31.78125 -0.59375 30.4375 0.75 
Q 29.09375 2.09375 29.09375 4.15625 
z
M 29.09375 47.15625 
Q 29.09375 49.203125 30.4375 50.640625 
Q 31.78125 52.078125 34.078125 52.078125 
Q 36.421875 52.078125 37.75 50.640625 
Q 39.09375 49.203125 39.09375 47.15625 
Q 39.09375 45.09375 37.75 43.75 
Q 36.421875 42.40625 34.078125 42.40625 
Q 31.78125 42.40625 30.4375 43.75 
Q 29.09375 45.09375 29.09375 47.15625 
z
" id="RobotoMono-Light-58"/>
      <path d="M 43.359375 22.90625 
L 54.5 22.90625 
L 54.5 17.96875 
L 43.359375 17.96875 
L 43.359375 0 
L 37.546875 0 
L 37.546875 17.96875 
L 4.109375 17.96875 
L 4.109375 21.296875 
L 36.96875 71.09375 
L 43.359375 71.09375 
z
M 11.140625 22.90625 
L 37.546875 22.90625 
L 37.546875 63.71875 
L 34.765625 58.796875 
z
" id="RobotoMono-Light-52"/>
      <path d="M 36.234375 0 
L 30.375 0 
L 30.375 63.71875 
L 10.6875 55.28125 
L 10.6875 60.796875 
L 35.40625 71.09375 
L 36.234375 71.09375 
z
" id="RobotoMono-Light-49"/>
     </defs>
     <g style="fill:#262626;" transform="translate(176.9 35.205117)scale(0.16 -0.16)">
      <use xlink:href="#RobotoMono-Light-85"/>
      <use x="60.009766" xlink:href="#RobotoMono-Light-78"/>
      <use x="120.019531" xlink:href="#RobotoMono-Light-75"/>
      <use x="180.029297" xlink:href="#RobotoMono-Light-79"/>
      <use x="240.039062" xlink:href="#RobotoMono-Light-87"/>
      <use x="300.048828" xlink:href="#RobotoMono-Light-78"/>
      <use x="360.058594" xlink:href="#RobotoMono-Light-32"/>
      <use x="420.068359" xlink:href="#RobotoMono-Light-32"/>
      <use x="480.078125" xlink:href="#RobotoMono-Light-32"/>
      <use x="540.087891" xlink:href="#RobotoMono-Light-32"/>
      <use x="600.097656" xlink:href="#RobotoMono-Light-32"/>
      <use x="660.107422" xlink:href="#RobotoMono-Light-73"/>
      <use x="720.117188" xlink:href="#RobotoMono-Light-58"/>
      <use x="780.126953" xlink:href="#RobotoMono-Light-32"/>
      <use x="840.136719" xlink:href="#RobotoMono-Light-52"/>
      <use x="900.146484" xlink:href="#RobotoMono-Light-32"/>
      <use x="960.15625" xlink:href="#RobotoMono-Light-32"/>
      <use x="1020.166016" xlink:href="#RobotoMono-Light-32"/>
      <use x="1080.175781" xlink:href="#RobotoMono-Light-71"/>
      <use x="1140.185547" xlink:href="#RobotoMono-Light-58"/>
      <use x="1200.195312" xlink:href="#RobotoMono-Light-32"/>
      <use x="1260.205078" xlink:href="#RobotoMono-Light-49"/>
      <use x="1320.214844" xlink:href="#RobotoMono-Light-32"/>
      <use x="1380.224609" xlink:href="#RobotoMono-Light-32"/>
      <use x="1440.234375" xlink:href="#RobotoMono-Light-84"/>
      <use x="1500.244141" xlink:href="#RobotoMono-Light-73"/>
      <use x="1560.253906" xlink:href="#RobotoMono-Light-58"/>
      <use x="1620.263672" xlink:href="#RobotoMono-Light-32"/>
      <use x="1680.273438" xlink:href="#RobotoMono-Light-49"/>
      <use x="1740.283203" xlink:href="#RobotoMono-Light-52"/>
      <use x="1800.292969" xlink:href="#RobotoMono-Light-32"/>
     </g>
    </g>
    <g id="line2d_27">
     <path d="M 132.1 52.855117 
L 164.1 52.855117 
" style="fill:none;stroke:#ffffff;stroke-linecap:round;stroke-width:1.5;"/>
    </g>
    <g id="line2d_28">
     <defs>
      <path d="M 0 5 
C 1.326016 5 2.597899 4.473168 3.535534 3.535534 
C 4.473168 2.597899 5 1.326016 5 0 
C 5 -1.326016 4.473168 -2.597899 3.535534 -3.535534 
C 2.597899 -4.473168 1.326016 -5 0 -5 
C -1.326016 -5 -2.597899 -4.473168 -3.535534 -3.535534 
C -4.473168 -2.597899 -5 -1.326016 -5 0 
C -5 1.326016 -4.473168 2.597899 -3.535534 3.535534 
C -2.597899 4.473168 -1.326016 5 0 5 
z
" id="maa28e3ed10" style="stroke:#ffffff;"/>
     </defs>
     <g>
      <use style="fill:#029e73;stroke:#ffffff;" x="148.1" xlink:href="#maa28e3ed10" y="52.855117"/>
     </g>
    </g>
    <g id="text_25">
     <!-- CONTROL    I: 0   G: 0  TI: 0   -->
     <defs>
      <path d="M 16.609375 5.078125 
L 52.78125 5.078125 
L 52.78125 0 
L 10.75 0 
L 10.75 71.09375 
L 16.609375 71.09375 
z
" id="RobotoMono-Light-76"/>
      <path d="M 52.484375 28.125 
Q 52.484375 22.171875 51.171875 16.875 
Q 49.859375 11.578125 47.125 7.609375 
Q 44.390625 3.65625 40.1875 1.328125 
Q 35.984375 -0.984375 30.171875 -0.984375 
Q 24.421875 -0.984375 20.1875 1.328125 
Q 15.96875 3.65625 13.203125 7.609375 
Q 10.453125 11.578125 9.109375 16.875 
Q 7.765625 22.171875 7.71875 28.125 
L 7.71875 42.921875 
Q 7.765625 48.875 9.078125 54.171875 
Q 10.40625 59.46875 13.15625 63.46875 
Q 15.921875 67.484375 20.109375 69.796875 
Q 24.3125 72.125 30.078125 72.125 
Q 35.890625 72.125 40.109375 69.796875 
Q 44.34375 67.484375 47.078125 63.5 
Q 49.8125 59.515625 51.140625 54.1875 
Q 52.484375 48.875 52.484375 42.921875 
z
M 13.578125 27.25 
Q 13.578125 25.25 13.71875 23.4375 
L 45.796875 52.484375 
Q 45.125 55.609375 43.890625 58.296875 
Q 42.671875 60.984375 40.734375 62.9375 
Q 38.8125 64.890625 36.171875 66.015625 
Q 33.546875 67.140625 30.078125 67.140625 
Q 25.53125 67.140625 22.375 65.234375 
Q 19.234375 63.328125 17.28125 60.109375 
Q 15.328125 56.890625 14.453125 52.6875 
Q 13.578125 48.484375 13.578125 43.890625 
z
M 46.625 43.890625 
Q 46.625 45.515625 46.484375 47.078125 
L 14.546875 18.0625 
Q 15.28125 15.046875 16.546875 12.453125 
Q 17.828125 9.859375 19.71875 7.984375 
Q 21.625 6.109375 24.21875 5.03125 
Q 26.8125 3.953125 30.171875 3.953125 
Q 34.71875 3.953125 37.859375 5.875 
Q 41.015625 7.8125 42.9375 11.03125 
Q 44.875 14.265625 45.75 18.453125 
Q 46.625 22.65625 46.625 27.25 
z
" id="RobotoMono-Light-48"/>
     </defs>
     <g style="fill:#262626;" transform="translate(176.9 58.455117)scale(0.16 -0.16)">
      <use xlink:href="#RobotoMono-Light-67"/>
      <use x="60.009766" xlink:href="#RobotoMono-Light-79"/>
      <use x="120.019531" xlink:href="#RobotoMono-Light-78"/>
      <use x="180.029297" xlink:href="#RobotoMono-Light-84"/>
      <use x="240.039062" xlink:href="#RobotoMono-Light-82"/>
      <use x="300.048828" xlink:href="#RobotoMono-Light-79"/>
      <use x="360.058594" xlink:href="#RobotoMono-Light-76"/>
      <use x="420.068359" xlink:href="#RobotoMono-Light-32"/>
      <use x="480.078125" xlink:href="#RobotoMono-Light-32"/>
      <use x="540.087891" xlink:href="#RobotoMono-Light-32"/>
      <use x="600.097656" xlink:href="#RobotoMono-Light-32"/>
      <use x="660.107422" xlink:href="#RobotoMono-Light-73"/>
      <use x="720.117188" xlink:href="#RobotoMono-Light-58"/>
      <use x="780.126953" xlink:href="#RobotoMono-Light-32"/>
      <use x="840.136719" xlink:href="#RobotoMono-Light-48"/>
      <use x="900.146484" xlink:href="#RobotoMono-Light-32"/>
      <use x="960.15625" xlink:href="#RobotoMono-Light-32"/>
      <use x="1020.166016" xlink:href="#RobotoMono-Light-32"/>
      <use x="1080.175781" xlink:href="#RobotoMono-Light-71"/>
      <use x="1140.185547" xlink:href="#RobotoMono-Light-58"/>
      <use x="1200.195312" xlink:href="#RobotoMono-Light-32"/>
      <use x="1260.205078" xlink:href="#RobotoMono-Light-48"/>
      <use x="1320.214844" xlink:href="#RobotoMono-Light-32"/>
      <use x="1380.224609" xlink:href="#RobotoMono-Light-32"/>
      <use x="1440.234375" xlink:href="#RobotoMono-Light-84"/>
      <use x="1500.244141" xlink:href="#RobotoMono-Light-73"/>
      <use x="1560.253906" xlink:href="#RobotoMono-Light-58"/>
      <use x="1620.263672" xlink:href="#RobotoMono-Light-32"/>
      <use x="1680.273438" xlink:href="#RobotoMono-Light-48"/>
      <use x="1740.283203" xlink:href="#RobotoMono-Light-32"/>
      <use x="1800.292969" xlink:href="#RobotoMono-Light-32"/>
     </g>
    </g>
    <g id="line2d_29">
     <path d="M 132.1 76.105117 
L 164.1 76.105117 
" style="fill:none;stroke:#ffffff;stroke-linecap:round;stroke-width:1.5;"/>
    </g>
    <g id="line2d_30">
     <defs>
      <path d="M 0 5 
C 1.326016 5 2.597899 4.473168 3.535534 3.535534 
C 4.473168 2.597899 5 1.326016 5 0 
C 5 -1.326016 4.473168 -2.597899 3.535534 -3.535534 
C 2.597899 -4.473168 1.326016 -5 0 -5 
C -1.326016 -5 -2.597899 -4.473168 -3.535534 -3.535534 
C -4.473168 -2.597899 -5 -1.326016 -5 0 
C -5 1.326016 -4.473168 2.597899 -3.535534 3.535534 
C -2.597899 4.473168 -1.326016 5 0 5 
z
" id="m6162d10b1b" style="stroke:#ffffff;"/>
     </defs>
     <g>
      <use style="fill:#0173b2;stroke:#ffffff;" x="148.1" xlink:href="#m6162d10b1b" y="76.105117"/>
     </g>
    </g>
    <g id="text_26">
     <!-- SMOKING    I: 0   G: 0  TI: 0   -->
     <g style="fill:#262626;" transform="translate(176.9 81.705117)scale(0.16 -0.16)">
      <use xlink:href="#RobotoMono-Light-83"/>
      <use x="60.009766" xlink:href="#RobotoMono-Light-77"/>
      <use x="120.019531" xlink:href="#RobotoMono-Light-79"/>
      <use x="180.029297" xlink:href="#RobotoMono-Light-75"/>
      <use x="240.039062" xlink:href="#RobotoMono-Light-73"/>
      <use x="300.048828" xlink:href="#RobotoMono-Light-78"/>
      <use x="360.058594" xlink:href="#RobotoMono-Light-71"/>
      <use x="420.068359" xlink:href="#RobotoMono-Light-32"/>
      <use x="480.078125" xlink:href="#RobotoMono-Light-32"/>
      <use x="540.087891" xlink:href="#RobotoMono-Light-32"/>
      <use x="600.097656" xlink:href="#RobotoMono-Light-32"/>
      <use x="660.107422" xlink:href="#RobotoMono-Light-73"/>
      <use x="720.117188" xlink:href="#RobotoMono-Light-58"/>
      <use x="780.126953" xlink:href="#RobotoMono-Light-32"/>
      <use x="840.136719" xlink:href="#RobotoMono-Light-48"/>
      <use x="900.146484" xlink:href="#RobotoMono-Light-32"/>
      <use x="960.15625" xlink:href="#RobotoMono-Light-32"/>
      <use x="1020.166016" xlink:href="#RobotoMono-Light-32"/>
      <use x="1080.175781" xlink:href="#RobotoMono-Light-71"/>
      <use x="1140.185547" xlink:href="#RobotoMono-Light-58"/>
      <use x="1200.195312" xlink:href="#RobotoMono-Light-32"/>
      <use x="1260.205078" xlink:href="#RobotoMono-Light-48"/>
      <use x="1320.214844" xlink:href="#RobotoMono-Light-32"/>
      <use x="1380.224609" xlink:href="#RobotoMono-Light-32"/>
      <use x="1440.234375" xlink:href="#RobotoMono-Light-84"/>
      <use x="1500.244141" xlink:href="#RobotoMono-Light-73"/>
      <use x="1560.253906" xlink:href="#RobotoMono-Light-58"/>
      <use x="1620.263672" xlink:href="#RobotoMono-Light-32"/>
      <use x="1680.273438" xlink:href="#RobotoMono-Light-48"/>
      <use x="1740.283203" xlink:href="#RobotoMono-Light-32"/>
      <use x="1800.292969" xlink:href="#RobotoMono-Light-32"/>
     </g>
    </g>
    <g id="line2d_31">
     <path d="M 132.1 99.355117 
L 164.1 99.355117 
" style="fill:none;stroke:#ffffff;stroke-linecap:round;stroke-width:1.5;"/>
    </g>
    <g id="line2d_32">
     <defs>
      <path d="M 0 5 
C 1.326016 5 2.597899 4.473168 3.535534 3.535534 
C 4.473168 2.597899 5 1.326016 5 0 
C 5 -1.326016 4.473168 -2.597899 3.535534 -3.535534 
C 2.597899 -4.473168 1.326016 -5 0 -5 
C -1.326016 -5 -2.597899 -4.473168 -3.535534 -3.535534 
C -4.473168 -2.597899 -5 -1.326016 -5 0 
C -5 1.326016 -4.473168 2.597899 -3.535534 3.535534 
C -2.597899 4.473168 -1.326016 5 0 5 
z
" id="m02b49cb89e" style="stroke:#ffffff;"/>
     </defs>
     <g>
      <use style="fill:#d55e00;stroke:#ffffff;" x="148.1" xlink:href="#m02b49cb89e" y="99.355117"/>
     </g>
    </g>
    <g id="text_27">
     <!-- OC         I: 0   G: 0  TI: 0   -->
     <g style="fill:#262626;" transform="translate(176.9 104.955117)scale(0.16 -0.16)">
      <use xlink:href="#RobotoMono-Light-79"/>
      <use x="60.009766" xlink:href="#RobotoMono-Light-67"/>
      <use x="120.019531" xlink:href="#RobotoMono-Light-32"/>
      <use x="180.029297" xlink:href="#RobotoMono-Light-32"/>
      <use x="240.039062" xlink:href="#RobotoMono-Light-32"/>
      <use x="300.048828" xlink:href="#RobotoMono-Light-32"/>
      <use x="360.058594" xlink:href="#RobotoMono-Light-32"/>
      <use x="420.068359" xlink:href="#RobotoMono-Light-32"/>
      <use x="480.078125" xlink:href="#RobotoMono-Light-32"/>
      <use x="540.087891" xlink:href="#RobotoMono-Light-32"/>
      <use x="600.097656" xlink:href="#RobotoMono-Light-32"/>
      <use x="660.107422" xlink:href="#RobotoMono-Light-73"/>
      <use x="720.117188" xlink:href="#RobotoMono-Light-58"/>
      <use x="780.126953" xlink:href="#RobotoMono-Light-32"/>
      <use x="840.136719" xlink:href="#RobotoMono-Light-48"/>
      <use x="900.146484" xlink:href="#RobotoMono-Light-32"/>
      <use x="960.15625" xlink:href="#RobotoMono-Light-32"/>
      <use x="1020.166016" xlink:href="#RobotoMono-Light-32"/>
      <use x="1080.175781" xlink:href="#RobotoMono-Light-71"/>
      <use x="1140.185547" xlink:href="#RobotoMono-Light-58"/>
      <use x="1200.195312" xlink:href="#RobotoMono-Light-32"/>
      <use x="1260.205078" xlink:href="#RobotoMono-Light-48"/>
      <use x="1320.214844" xlink:href="#RobotoMono-Light-32"/>
      <use x="1380.224609" xlink:href="#RobotoMono-Light-32"/>
      <use x="1440.234375" xlink:href="#RobotoMono-Light-84"/>
      <use x="1500.244141" xlink:href="#RobotoMono-Light-73"/>
      <use x="1560.253906" xlink:href="#RobotoMono-Light-58"/>
      <use x="1620.263672" xlink:href="#RobotoMono-Light-32"/>
      <use x="1680.273438" xlink:href="#RobotoMono-Light-48"/>
      <use x="1740.283203" xlink:href="#RobotoMono-Light-32"/>
      <use x="1800.292969" xlink:href="#RobotoMono-Light-32"/>
     </g>
    </g>
    <g id="line2d_33">
     <path d="M 132.1 122.605117 
L 164.1 122.605117 
" style="fill:none;stroke:#ffffff;stroke-linecap:round;stroke-width:1.5;"/>
    </g>
    <g id="line2d_34">
     <defs>
      <path d="M 0 5 
C 1.326016 5 2.597899 4.473168 3.535534 3.535534 
C 4.473168 2.597899 5 1.326016 5 0 
C 5 -1.326016 4.473168 -2.597899 3.535534 -3.535534 
C 2.597899 -4.473168 1.326016 -5 0 -5 
C -1.326016 -5 -2.597899 -4.473168 -3.535534 -3.535534 
C -4.473168 -2.597899 -5 -1.326016 -5 0 
C -5 1.326016 -4.473168 2.597899 -3.535534 3.535534 
C -2.597899 4.473168 -1.326016 5 0 5 
z
" id="mf4997bbecb" style="stroke:#ffffff;"/>
     </defs>
     <g>
      <use style="fill:#de8f05;stroke:#ffffff;" x="148.1" xlink:href="#mf4997bbecb" y="122.605117"/>
     </g>
    </g>
    <g id="text_28">
     <!-- OC-SMOKING I: 0   G: 0  TI: 0   -->
     <defs>
      <path d="M 47.359375 29.34375 
L 11.1875 29.34375 
L 11.1875 34.28125 
L 47.359375 34.28125 
z
" id="RobotoMono-Light-45"/>
     </defs>
     <g style="fill:#262626;" transform="translate(176.9 128.205117)scale(0.16 -0.16)">
      <use xlink:href="#RobotoMono-Light-79"/>
      <use x="60.009766" xlink:href="#RobotoMono-Light-67"/>
      <use x="120.019531" xlink:href="#RobotoMono-Light-45"/>
      <use x="180.078125" xlink:href="#RobotoMono-Light-83"/>
      <use x="240.087891" xlink:href="#RobotoMono-Light-77"/>
      <use x="300.097656" xlink:href="#RobotoMono-Light-79"/>
      <use x="360.107422" xlink:href="#RobotoMono-Light-75"/>
      <use x="420.117188" xlink:href="#RobotoMono-Light-73"/>
      <use x="480.126953" xlink:href="#RobotoMono-Light-78"/>
      <use x="540.136719" xlink:href="#RobotoMono-Light-71"/>
      <use x="600.146484" xlink:href="#RobotoMono-Light-32"/>
      <use x="660.15625" xlink:href="#RobotoMono-Light-73"/>
      <use x="720.166016" xlink:href="#RobotoMono-Light-58"/>
      <use x="780.175781" xlink:href="#RobotoMono-Light-32"/>
      <use x="840.185547" xlink:href="#RobotoMono-Light-48"/>
      <use x="900.195312" xlink:href="#RobotoMono-Light-32"/>
      <use x="960.205078" xlink:href="#RobotoMono-Light-32"/>
      <use x="1020.214844" xlink:href="#RobotoMono-Light-32"/>
      <use x="1080.224609" xlink:href="#RobotoMono-Light-71"/>
      <use x="1140.234375" xlink:href="#RobotoMono-Light-58"/>
      <use x="1200.244141" xlink:href="#RobotoMono-Light-32"/>
      <use x="1260.253906" xlink:href="#RobotoMono-Light-48"/>
      <use x="1320.263672" xlink:href="#RobotoMono-Light-32"/>
      <use x="1380.273438" xlink:href="#RobotoMono-Light-32"/>
      <use x="1440.283203" xlink:href="#RobotoMono-Light-84"/>
      <use x="1500.292969" xlink:href="#RobotoMono-Light-73"/>
      <use x="1560.302734" xlink:href="#RobotoMono-Light-58"/>
      <use x="1620.3125" xlink:href="#RobotoMono-Light-32"/>
      <use x="1680.322266" xlink:href="#RobotoMono-Light-48"/>
      <use x="1740.332031" xlink:href="#RobotoMono-Light-32"/>
      <use x="1800.341797" xlink:href="#RobotoMono-Light-32"/>
     </g>
    </g>
   </g>
   <g id="legend_3">
    <g id="text_29">
     <!-- GROUP SIZE -->
     <defs>
      <path d="M 12.984375 5.078125 
L 51.765625 5.078125 
L 51.765625 0 
L 6.34375 0 
L 6.25 4.546875 
L 43.609375 65.96875 
L 7.421875 65.96875 
L 7.421875 71.09375 
L 50.390625 71.09375 
L 50.4375 66.796875 
z
" id="RobotoMono-Light-90"/>
     </defs>
     <g style="fill:#262626;" transform="translate(844.275 366.805117)scale(0.16 -0.16)">
      <use xlink:href="#RobotoMono-Light-71"/>
      <use x="60.009766" xlink:href="#RobotoMono-Light-82"/>
      <use x="120.019531" xlink:href="#RobotoMono-Light-79"/>
      <use x="180.029297" xlink:href="#RobotoMono-Light-85"/>
      <use x="240.039062" xlink:href="#RobotoMono-Light-80"/>
      <use x="300.048828" xlink:href="#RobotoMono-Light-32"/>
      <use x="360.058594" xlink:href="#RobotoMono-Light-83"/>
      <use x="420.068359" xlink:href="#RobotoMono-Light-73"/>
      <use x="480.078125" xlink:href="#RobotoMono-Light-90"/>
      <use x="540.087891" xlink:href="#RobotoMono-Light-69"/>
     </g>
    </g>
    <g id="line2d_35">
     <path d="M 860.285 397.255117 
L 892.285 397.255117 
" style="fill:none;stroke:#ffffff;stroke-linecap:round;stroke-width:1.5;"/>
    </g>
    <g id="line2d_36">
     <defs>
      <path d="M 0 3 
C 0.795609 3 1.55874 2.683901 2.12132 2.12132 
C 2.683901 1.55874 3 0.795609 3 0 
C 3 -0.795609 2.683901 -1.55874 2.12132 -2.12132 
C 1.55874 -2.683901 0.795609 -3 0 -3 
C -0.795609 -3 -1.55874 -2.683901 -2.12132 -2.12132 
C -2.683901 -1.55874 -3 -0.795609 -3 0 
C -3 0.795609 -2.683901 1.55874 -2.12132 2.12132 
C -1.55874 2.683901 -0.795609 3 0 3 
z
" id="m5adedf8421" style="stroke:#ffffff;"/>
     </defs>
     <g>
      <use style="stroke:#ffffff;" x="876.285" xlink:href="#m5adedf8421" y="397.255117"/>
     </g>
    </g>
    <g id="text_30">
     <!-- 1 -->
     <g style="fill:#262626;" transform="translate(905.085 402.855117)scale(0.16 -0.16)">
      <use xlink:href="#RobotoMono-Light-49"/>
     </g>
    </g>
    <g id="line2d_37">
     <path d="M 860.285 433.305117 
L 892.285 433.305117 
" style="fill:none;stroke:#ffffff;stroke-linecap:round;stroke-width:1.5;"/>
    </g>
    <g id="line2d_38">
     <defs>
      <path d="M 0 7.5 
C 1.989023 7.5 3.896849 6.709753 5.303301 5.303301 
C 6.709753 3.896849 7.5 1.989023 7.5 0 
C 7.5 -1.989023 6.709753 -3.896849 5.303301 -5.303301 
C 3.896849 -6.709753 1.989023 -7.5 0 -7.5 
C -1.989023 -7.5 -3.896849 -6.709753 -5.303301 -5.303301 
C -6.709753 -3.896849 -7.5 -1.989023 -7.5 0 
C -7.5 1.989023 -6.709753 3.896849 -5.303301 5.303301 
C -3.896849 6.709753 -1.989023 7.5 0 7.5 
z
" id="m176fd3145b" style="stroke:#ffffff;"/>
     </defs>
     <g>
      <use style="stroke:#ffffff;" x="876.285" xlink:href="#m176fd3145b" y="433.305117"/>
     </g>
    </g>
    <g id="text_31">
     <!-- 10 -->
     <g style="fill:#262626;" transform="translate(905.085 438.905117)scale(0.16 -0.16)">
      <use xlink:href="#RobotoMono-Light-49"/>
      <use x="60.009766" xlink:href="#RobotoMono-Light-48"/>
     </g>
    </g>
    <g id="line2d_39">
     <path d="M 860.285 469.355117 
L 892.285 469.355117 
" style="fill:none;stroke:#ffffff;stroke-linecap:round;stroke-width:1.5;"/>
    </g>
    <g id="line2d_40">
     <defs>
      <path d="M 0 17.5 
C 4.641054 17.5 9.092648 15.65609 12.374369 12.374369 
C 15.65609 9.092648 17.5 4.641054 17.5 0 
C 17.5 -4.641054 15.65609 -9.092648 12.374369 -12.374369 
C 9.092648 -15.65609 4.641054 -17.5 0 -17.5 
C -4.641054 -17.5 -9.092648 -15.65609 -12.374369 -12.374369 
C -15.65609 -9.092648 -17.5 -4.641054 -17.5 0 
C -17.5 4.641054 -15.65609 9.092648 -12.374369 12.374369 
C -9.092648 15.65609 -4.641054 17.5 0 17.5 
z
" id="m9cb41f6c74" style="stroke:#ffffff;"/>
     </defs>
     <g>
      <use style="stroke:#ffffff;" x="876.285" xlink:href="#m9cb41f6c74" y="469.355117"/>
     </g>
    </g>
    <g id="text_32">
     <!-- 30 -->
     <defs>
      <path d="M 19.625 38.71875 
L 25.53125 38.71875 
Q 28.953125 38.765625 31.984375 39.6875 
Q 35.015625 40.625 37.28125 42.375 
Q 39.546875 44.140625 40.859375 46.671875 
Q 42.1875 49.21875 42.1875 52.546875 
Q 42.1875 56 41.109375 58.703125 
Q 40.046875 61.421875 38.09375 63.28125 
Q 36.140625 65.140625 33.375 66.109375 
Q 30.609375 67.09375 27.25 67.09375 
Q 23.875 67.09375 21.046875 66.03125 
Q 18.21875 64.984375 16.140625 63.078125 
Q 14.0625 61.1875 12.859375 58.46875 
Q 11.671875 55.765625 11.625 52.4375 
L 5.765625 52.4375 
Q 5.859375 56.640625 7.484375 60.21875 
Q 9.125 63.8125 11.953125 66.453125 
Q 14.796875 69.09375 18.703125 70.578125 
Q 22.609375 72.078125 27.25 72.078125 
Q 31.78125 72.078125 35.59375 70.734375 
Q 39.40625 69.390625 42.15625 66.875 
Q 44.921875 64.359375 46.453125 60.6875 
Q 48 57.03125 48 52.34375 
Q 48 49.703125 47.140625 47.28125 
Q 46.296875 44.875 44.671875 42.796875 
Q 43.0625 40.71875 40.765625 39.078125 
Q 38.484375 37.453125 35.640625 36.421875 
Q 42.28125 34.578125 45.796875 30.046875 
Q 49.3125 25.53125 49.3125 19.28125 
Q 49.3125 14.5 47.625 10.734375 
Q 45.953125 6.984375 43 4.390625 
Q 40.046875 1.8125 36.0625 0.40625 
Q 32.078125 -0.984375 27.484375 -0.984375 
Q 22.796875 -0.984375 18.6875 0.40625 
Q 14.59375 1.8125 11.515625 4.421875 
Q 8.453125 7.03125 6.640625 10.78125 
Q 4.828125 14.546875 4.734375 19.28125 
L 10.546875 19.28125 
Q 10.640625 15.765625 11.953125 12.9375 
Q 13.28125 10.109375 15.546875 8.109375 
Q 17.828125 6.109375 20.875 5.03125 
Q 23.921875 3.953125 27.484375 3.953125 
Q 30.953125 3.953125 33.90625 4.921875 
Q 36.859375 5.90625 38.984375 7.8125 
Q 41.109375 9.71875 42.296875 12.546875 
Q 43.5 15.375 43.5 19.09375 
Q 43.5 23 42.0625 25.75 
Q 40.625 28.515625 38.1875 30.265625 
Q 35.75 32.03125 32.46875 32.859375 
Q 29.203125 33.6875 25.53125 33.734375 
L 19.625 33.734375 
z
" id="RobotoMono-Light-51"/>
     </defs>
     <g style="fill:#262626;" transform="translate(905.085 474.955117)scale(0.16 -0.16)">
      <use xlink:href="#RobotoMono-Light-51"/>
      <use x="60.009766" xlink:href="#RobotoMono-Light-48"/>
     </g>
    </g>
   </g>
  </g>
 </g>
 <defs>
  <clipPath id="p6e05584073">
   <rect height="815.4" width="837" x="117.7" y="8.805117"/>
  </clipPath>
 </defs>
</svg>
